STARTFONT 2.3
FONT -FontForge-Fredoka One-Book-R-Normal--36-360-72-72-P-208-ISO10646-1
SIZE 36 72 72  4
FONTBOUNDINGBOX 48 44 -5 -9
COMMENT "Generated by fontforge, http://fontforge.sourceforge.net"
COMMENT "Copyright (c) 2011 Milena B Brandao (milenabbrandao@gmail.com), with Reserved Font Name "Fredoka""
STARTPROPERTIES 40
FOUNDRY "FontForge"
FAMILY_NAME "Fredoka One"
WEIGHT_NAME "Book"
SLANT "R"
SETWIDTH_NAME "Normal"
ADD_STYLE_NAME ""
PIXEL_SIZE 36
POINT_SIZE 360
RESOLUTION_X 72
RESOLUTION_Y 72
SPACING "P"
AVERAGE_WIDTH 208
CHARSET_REGISTRY "ISO10646"
CHARSET_ENCODING "1"
FONTNAME_REGISTRY ""
CHARSET_COLLECTIONS "ISO10646-1"
BITS_PER_PIXEL 4
FONT_NAME "FredokaOne-Regular"
FACE_NAME "Fredoka One"
COPYRIGHT "Copyright (c) 2011 Milena B Brandao (milenabbrandao@gmail.com), with Reserved Font Name "Fredoka""
FONT_VERSION "1.001"
FONT_ASCENT 29
FONT_DESCENT 7
UNDERLINE_POSITION -4
UNDERLINE_THICKNESS 2
X_HEIGHT 19
CAP_HEIGHT 26
RAW_ASCENT 800
RAW_DESCENT 200
NORM_SPACE 9
RELATIVE_WEIGHT 40
RELATIVE_SETWIDTH 50
SUPERSCRIPT_X 0
SUPERSCRIPT_Y 17
SUPERSCRIPT_SIZE 23
SUBSCRIPT_X 0
SUBSCRIPT_Y 5
SUBSCRIPT_SIZE 23
AVG_LOWERCASE_WIDTH 206
AVG_UPPERCASE_WIDTH 248
ENDPROPERTIES
CHARS 235
STARTCHAR space
ENCODING 32
SWIDTH 253 0
DWIDTH 9 0
BBX 1 1 0 0
BITMAP
00
ENDCHAR
STARTCHAR exclam
ENCODING 33
SWIDTH 267 0
DWIDTH 10 0
BBX 8 27 1 0
BITMAP
02687500
1EFFFF90
5FFFFFE0
6FFFFFF0
6FFFFFF0
6FFFFFF0
6FFFFFF0
6FFFFFF0
6FFFFFF0
6FFFFFF0
6FFFFFF0
6FFFFFF0
6FFFFFF0
6FFFFFF0
6FFFFFF0
5FFFFFE0
1EFFFFA0
02677500
00000000
00000000
038AA710
2FFFFFC0
7FFFFFF1
8FFFFFF3
8FFFFFF2
5FFFFFE0
08EFFD40
ENDCHAR
STARTCHAR quotedbl
ENCODING 34
SWIDTH 429 0
DWIDTH 15 0
BBX 15 14 0 13
BITMAP
0035510000465100
08FFFE2008FFFE10
0EFFFF700EFFFF60
1FFFFF802FFFFF80
1FFFFF902FFFFF80
0FFFFF801FFFFF80
0EFFFF700FFFFF60
0CFFFF500DFFFF40
09FFFF200AFFFF10
06FFFE0007FFFD00
03FFFA0004FFF900
00DFF50000EFF400
005FC000006FB000
0003100000031000
ENDCHAR
STARTCHAR numbersign
ENCODING 35
SWIDTH 749 0
DWIDTH 27 0
BBX 27 27 0 0
BITMAP
0000000003440000000144200000
00000000AFFFC000003EFFF50000
00000002FFFFF000009FFFF80000
00000004FFFFD00000CFFFF60000
00000007FFFFB00000EFFFF30000
00000009FFFF800001FFFFF10000
0000000CFFFF600004FFFFD00000
0005777EFFFF97777AFFFFD77600
007FFFFFFFFFFFFFFFFFFFFFFF50
00DFFFFFFFFFFFFFFFFFFFFFFF60
00FFFFFFFFFFFFFFFFFFFFFFFF30
00DFFFFFFFFFFFFFFFFFFFFFFB00
001344DFFFF844447FFFFD433000
000000EFFFF300006FFFFB000000
000002FFFFF100009FFFF8000000
000004FFFFD00000BFFFF6000000
05BCCDFFFFECCCCCFFFFFDCC7000
2FFFFFFFFFFFFFFFFFFFFFFFE000
5FFFFFFFFFFFFFFFFFFFFFFFE000
7FFFFFFFFFFFFFFFFFFFFFFFA000
3DEEEFFFFFEEEEEFFFFFFEEC3000
00004FFFFD00000BFFFF60000000
00006FFFFB00000EFFFF40000000
00009FFFF900001FFFFF10000000
0000BFFFF600003FFFFE00000000
0000DFFFF200005FFFF900000000
00005CDB5000001ADC9100000000
ENDCHAR
STARTCHAR dollar
ENCODING 36
SWIDTH 475 0
DWIDTH 17 0
BBX 17 31 0 -3
BITMAP
0000001BDB20000000
0000007FFF90000000
0000008FFFA0000000
0000008FFFA0000000
000000AFFFB0000000
00018EFFFFFE920000
001CFFFFFFFFFE3000
00AFFFFFFFFFFFD000
03FFFFFFFFFFFFC000
08FFFFE746EFFF3000
0AFFFF70001AC50000
09FFFF800000000000
07FFFFF93000000000
02FFFFFFFFB8200000
009FFFFFFFFFFB2000
000AFFFFFFFFFFE200
00004AEFFFFFFFF900
000000049DFFFFFE00
00031000006FFFFF20
02CFE400000EFFFF30
0CFFFF40004FFFFF10
1FFFFFFA8AFFFFFD00
0AFFFFFFFFFFFFF700
01DFFFFFFFFFFFB000
001BFFFFFFFFFA1000
00005BFFFFFB400000
0000008FFFA0000000
0000008FFFA0000000
0000008FFFA0000000
0000007FFF80000000
0000001CEC20000000
ENDCHAR
STARTCHAR percent
ENCODING 37
SWIDTH 838 0
DWIDTH 30 0
BBX 28 30 1 -1
BITMAP
0000000000000000000021000000
00000000000000000003FE500000
0000367630000000000BFFC00000
002BFFFFFC300000004FFF500000
02EFFFFFFFE2000000BFFC000000
0BFFFFFFFFFB000004FFF4000000
2FFFFFDFFFFF30000CFFB0000000
6FFFC101CFFF60005FFF30000000
8FFF60007FFF8000DFFA00000000
8FFF60006FFF8006FFF200000000
7FFF9000AFFF701DFF9000000000
4FFFF96AFFFF507FFF2000000000
0EFFFFFFFFFE11EFF80000000000
05FFFFFFFFF708FFE10000000000
007FFFFFFF901EFF700000000000
00039DEDA4009FFE100145520000
000000000002FFF6018FFFFFC300
00000000000AFFD00BFFFFFFFF40
00000000003FFF607FFFFFFFFFD0
0000000000AFFD00EFFFFEFFFFF5
0000000003FFF503FFFE301BFFF8
000000000BFFC005FFF90004FFFA
000000004FFF4006FFF80003FFFB
00000000CFFB0005FFFB0006FFFA
00000005FFF30002FFFF846EFFF8
0000000DFFA00000CFFFFFFFFFF3
0000006FFF2000004FFFFFFFFFB0
000000DFF900000007FFFFFFFD20
000004FFF2000000004AEFFD8100
0000019F70000000000001000000
ENDCHAR
STARTCHAR ampersand
ENCODING 38
SWIDTH 748 0
DWIDTH 27 0
BBX 27 29 0 -1
BITMAP
00000000489A9840000000000000
0000007EFFFFFFFE500000000000
00000AFFFFFFFFFFF70000000000
00007FFFFFFFFFFFFF2000000000
0000EFFFFFFFFFFFFF9000000000
0003FFFFFD425FFFFFC000000000
0005FFFFF5000CFFFFE000000000
0006FFFFF5002EFFFFD000000000
0005FFFFF804DFFFFFA000000000
0002FFFFFC8FFFFFFF3000000000
0000EFFFFFFFFFFFF90000000000
00009FFFFFFFFFFFA00000000000
00003FFFFFFFFFF8000000000000
00005FFFFFFFFE50000000000000
0006FFFFFFFFD200000035520000
004FFFFFFFFFF600001CFFFF5000
01DFFFFFFFFFFF40007FFFFF7000
06FFFFFFFFFFFFE300CFFFFF6000
0CFFFFFECFFFFFFE44FFFFFF2000
0FFFFFF72EFFFFFFFDFFFFFB0000
1FFFFFF404FFFFFFFFFFFFF40000
0FFFFFF7004FFFFFFFFFFF900000
0EFFFFFE7217FFFFFFFFFFFEB200
0AFFFFFFFFFFFFFFFFFFFFFFFC00
03FFFFFFFFFFFFFFFFFFFFFFFF10
009FFFFFFFFFFFFFFFFFFFFFFF10
0008FFFFFFFFFFFFA9FFFFFFFE00
000039DFFFFFFD820016BDFFD500
0000000134431000000000000000
ENDCHAR
STARTCHAR quotesingle
ENCODING 39
SWIDTH 208 0
DWIDTH 7 0
BBX 7 14 0 13
BITMAP
00355100
08FFFE20
0EFFFF70
1FFFFF80
1FFFFF90
0FFFFF80
0EFFFF70
0CFFFF50
09FFFF20
06FFFE00
03FFFA00
00DFF500
005FC000
00031000
ENDCHAR
STARTCHAR parenleft
ENCODING 40
SWIDTH 384 0
DWIDTH 14 0
BBX 13 37 1 -9
BITMAP
00000016BDD900
000003DFFFFF30
00004EFFFFFF40
0002EFFFFFFF30
000BFFFFFDB700
004FFFFF900000
00BFFFFC000000
01FFFFF4000000
06FFFFD0000000
0BFFFF80000000
0EFFFF40000000
3FFFFF10000000
6FFFFD00000000
8FFFFC00000000
BFFFFA00000000
CFFFF900000000
DFFFF800000000
DFFFF800000000
EFFFF700000000
DFFFF800000000
CFFFF800000000
BFFFF900000000
9FFFFB00000000
7FFFFC00000000
4FFFFE00000000
1FFFFF20000000
0CFFFF60000000
08FFFFA0000000
02FFFFF1000000
00CFFFF9000000
005FFFFF400000
000CFFFFF86200
0003FFFFFFFE10
00006FFFFFFF40
000006FFFFFF40
0000003BFFFD10
00000000122000
ENDCHAR
STARTCHAR parenright
ENCODING 41
SWIDTH 384 0
DWIDTH 14 0
BBX 13 37 0 -9
BITMAP
1ADDA500000000
5FFFFFC2000000
7FFFFFFD200000
5FFFFFFFC10000
09BEFFFFF80000
0001BFFFFF2000
00001EFFFF8000
000007FFFFD000
000001FFFFF400
000000BFFFF800
0000007FFFFC00
0000004FFFFF10
0000001FFFFF40
0000000EFFFF60
0000000DFFFF80
0000000BFFFF90
0000000BFFFFA0
0000000AFFFFB0
0000000AFFFFB0
0000000BFFFFA0
0000000BFFFFA0
0000000CFFFF90
0000000DFFFF60
0000000FFFFF40
0000002FFFFF20
0000005FFFFD00
0000008FFFF900
000000DFFFF500
000004FFFFE100
00000BFFFF9000
00007FFFFF3000
036AFFFFF90000
3FFFFFFFE20000
6FFFFFFE300000
6FFFFFE4000000
2EFFE920000000
00320000000000
ENDCHAR
STARTCHAR asterisk
ENCODING 42
SWIDTH 503 0
DWIDTH 18 0
BBX 18 17 0 10
BITMAP
00000019BB92000000
000000AFFFFB000000
000000CFFFFE000000
000000DFFFFF000100
04EEA6DFFFFF5AEF60
0DFFFFFFFFFFFFFFE1
3FFFFFFFFFFFFFFFF5
6FFFFFFFFFFFFFFFF8
4FFFFFFFFFFFFFFFF5
05CFFFFFFFFFFFFC60
0002DFFFFFFFFE3000
0007FFFFFFFFFF8000
002FFFFFFFFFFFF400
008FFFFFFFFFFFFA00
005FFFFF86FFFFF600
0006FFFC00AFFF8000
00003AA10007930000
ENDCHAR
STARTCHAR plus
ENCODING 43
SWIDTH 527 0
DWIDTH 19 0
BBX 19 18 0 1
BITMAP
00000001565100000000
0000001EFFFE10000000
0000004FFFFF40000000
0000005FFFFF50000000
0000005FFFFF50000000
0000005FFFFF50000000
039ABBCFFFFFCBBA8200
0DFFFFFFFFFFFFFFFC00
1FFFFFFFFFFFFFFFFF10
1FFFFFFFFFFFFFFFFF10
0EFFFFFFFFFFFFFFFE00
06DFFFFFFFFFFFFFD600
0000005FFFFF50000000
0000005FFFFF50000000
0000005FFFFF50000000
0000005FFFFF40000000
0000002FFFFF20000000
000000059A9400000000
ENDCHAR
STARTCHAR comma
ENCODING 44
SWIDTH 238 0
DWIDTH 9 0
BBX 8 13 0 -6
BITMAP
017AA940
0AFFFFF4
0FFFFFF9
1FFFFFFA
1FFFFFF9
0DFFFFF7
03CFFFF5
000CFFF1
002FFFA0
01CFFF30
0DFFF700
0FFF8000
09930000
ENDCHAR
STARTCHAR hyphen
ENCODING 45
SWIDTH 433 0
DWIDTH 16 0
BBX 15 6 0 5
BITMAP
029AAAAAAAAAA600
0DFFFFFFFFFFFF60
1FFFFFFFFFFFFFA0
1FFFFFFFFFFFFFA0
0EFFFFFFFFFFFF80
05DFFFFFFFFFFC20
ENDCHAR
STARTCHAR period
ENCODING 46
SWIDTH 237 0
DWIDTH 9 0
BBX 8 7 0 0
BITMAP
017AA940
0BFFFFF4
1FFFFFF8
1FFFFFF9
1FFFFFF9
0DFFFFF6
04CFFE90
ENDCHAR
STARTCHAR slash
ENCODING 47
SWIDTH 526 0
DWIDTH 19 0
BBX 19 31 0 -2
BITMAP
00000000000000200000
0000000000000BFE8100
0000000000006FFFFD10
000000000000DFFFFF50
000000000005FFFFFF20
00000000000CFFFFFC00
00000000005FFFFFF500
0000000000CFFFFFC000
0000000004FFFFFF5000
000000000BFFFFFD0000
000000003FFFFFF60000
00000000BFFFFFD00000
00000003FFFFFF600000
0000000AFFFFFE000000
0000002FFFFFF7000000
0000009FFFFFE1000000
000002FFFFFF70000000
000009FFFFFE10000000
00001FFFFFF800000000
00008FFFFFE100000000
0001EFFFFF9000000000
0007FFFFFF2000000000
001EFFFFF90000000000
007FFFFFF20000000000
00EFFFFFA00000000000
06FFFFFF300000000000
0DFFFFFA000000000000
3FFFFFF3000000000000
6FFFFFB0000000000000
2DFFFF40000000000000
017CF800000000000000
ENDCHAR
STARTCHAR zero
ENCODING 48
SWIDTH 608 0
DWIDTH 22 0
BBX 21 28 0 -1
BITMAP
0000000279BB9720000000
000002BFFFFFFFFA100000
00004EFFFFFFFFFFE30000
0003FFFFFFFFFFFFFE2000
000DFFFFFFFFFFFFFFB000
006FFFFFFFFFFFFFFFF400
00CFFFFFFEAAEFFFFFFB00
03FFFFFFC1002DFFFFFF10
07FFFFFF300004FFFFFF50
0BFFFFFC000000EFFFFF80
0DFFFFF8000000AFFFFFB0
0FFFFFF60000008FFFFFD0
1FFFFFF50000007FFFFFE0
1FFFFFF40000006FFFFFF0
1FFFFFF40000006FFFFFE0
1FFFFFF50000007FFFFFD0
0EFFFFF60000008FFFFFD0
0DFFFFF9000000BFFFFFB0
0AFFFFFD000001EFFFFF80
07FFFFFF500007FFFFFF50
02FFFFFFE4006FFFFFFE10
00CFFFFFFFEFFFFFFFF900
005FFFFFFFFFFFFFFFF300
000BFFFFFFFFFFFFFF9000
0002DFFFFFFFFFFFFC1000
00002CFFFFFFFFFFC10000
0000007DFFFFFFD6000000
0000000035775300000000
ENDCHAR
STARTCHAR one
ENCODING 49
SWIDTH 407 0
DWIDTH 15 0
BBX 14 28 0 -1
BITMAP
00000000156400
00000003DFFFB0
0000005FFFFFF2
000006FFFFFFF3
00007FFFFFFFF3
0009FFFFFFFFF3
00AFFFFFFFFFF3
0BFFFFFFFFFFF3
5FFFFFFFFFFFF3
5FFFFFFFFFFFF3
1DFFFFFFFFFFF3
03EFFE7FFFFFF3
0017612FFFFFF3
0000002FFFFFF3
0000002FFFFFF3
0000002FFFFFF3
0000002FFFFFF3
0000002FFFFFF3
0000002FFFFFF3
0000002FFFFFF3
0000002FFFFFF3
0000002FFFFFF3
0000002FFFFFF3
0000002FFFFFF3
0000002FFFFFF3
0000001EFFFFF1
00000006EFFE60
00000000011000
ENDCHAR
STARTCHAR two
ENCODING 50
SWIDTH 609 0
DWIDTH 22 0
BBX 22 28 0 -1
BITMAP
000000048ABA9510000000
000006DFFFFFFFE7000000
0000AFFFFFFFFFFFB10000
000AFFFFFFFFFFFFFC0000
006FFFFFFFFFFFFFFF9000
01EFFFFFFFFFFFFFFFF300
07FFFFFFFC9BFFFFFFFA00
0BFFFFFF60002EFFFFFE00
0FFFFFFA000006FFFFFF30
1FFFFFF5000001FFFFFF40
1FFFFFF4000003FFFFFF40
0EFFFFF200000AFFFFFF30
05DFFE8000006FFFFFFE00
000110000007FFFFFFF900
0000000001AFFFFFFFF200
000000005EFFFFFFFF8000
0000003BFFFFFFFFFA0000
000008FFFFFFFFFF900000
0002CFFFFFFFFFE6000000
002DFFFFFFFFFA20000000
01DFFFFFFFFE7555555300
08FFFFFFFFFFFFFFFFFFC0
0EFFFFFFFFFFFFFFFFFFF4
1FFFFFFFFFFFFFFFFFFFF6
0EFFFFFFFFFFFFFFFFFFF5
09FFFFFFFFFFFFFFFFFFF3
009EFFFFFFFFFFFFFFFE80
0000111111111111111000
ENDCHAR
STARTCHAR three
ENCODING 51
SWIDTH 608 0
DWIDTH 22 0
BBX 21 28 0 -1
BITMAP
000000048ABBA730000000
000006DFFFFFFFFC400000
00009FFFFFFFFFFFF80000
0009FFFFFFFFFFFFFF8000
003FFFFFFFFFFFFFFFF400
00AFFFFFFFFFFFFFFFFC00
00EFFFFFFB769FFFFFFF20
00DFFFFF800005FFFFFF50
004EFFFD000000FFFFFF60
00029DB2001239FFFFFF40
000000003DFFFFFFFFFE10
00000000AFFFFFFFFFF600
00000000DFFFFFFFFE5000
00000000DFFFFFFFFD3000
00000000BFFFFFFFFFE400
000000004EFFFFFFFFFE10
0000000001446DFFFFFF80
03ADED50000001CFFFFFD0
0EFFFFF10000007FFFFFE0
1FFFFFF80000009FFFFFD0
0DFFFFFF600006FFFFFFC0
09FFFFFFFECCEFFFFFFF70
03FFFFFFFFFFFFFFFFFE10
008FFFFFFFFFFFFFFFF600
000BFFFFFFFFFFFFFF8000
00008FFFFFFFFFFFE60000
000003AEFFFFFFE8200000
0000000036765300000000
ENDCHAR
STARTCHAR four
ENCODING 52
SWIDTH 592 0
DWIDTH 21 0
BBX 20 27 0 0
BITMAP
00001774000000156520
0000DFFFE40002EFFFF5
0003FFFFFE0007FFFFFC
0007FFFFFF0008FFFFFD
000BFFFFFC0008FFFFFD
000FFFFFF90008FFFFFD
004FFFFFF50008FFFFFD
007FFFFFF10008FFFFFD
00BFFFFFC00008FFFFFD
00EFFFFF900008FFFFFD
04FFFFFF500008FFFFFD
07FFFFFF100008FFFFFD
0BFFFFFC000008FFFFFD
0EFFFFFD99999CFFFFFD
4FFFFFFFFFFFFFFFFFFD
6FFFFFFFFFFFFFFFFFFD
7FFFFFFFFFFFFFFFFFFD
6FFFFFFFFFFFFFFFFFFD
1DFFFFFFFFFFFFFFFFFD
0045666666666BFFFFFD
00000000000008FFFFFD
00000000000008FFFFFD
00000000000008FFFFFD
00000000000008FFFFFD
00000000000007FFFFFC
00000000000005FFFFFA
000000000000008DEEB2
ENDCHAR
STARTCHAR five
ENCODING 53
SWIDTH 530 0
DWIDTH 19 0
BBX 19 28 0 -1
BITMAP
00003677766666661000
0009FFFFFFFFFFFFE300
003FFFFFFFFFFFFFF800
008FFFFFFFFFFFFFF900
00BFFFFFFFFFFFFFF900
00DFFFFFFFFFFFFFF600
00FFFFFFEDDDDDDD8000
02FFFFFF400000000000
04FFFFFF200000000000
06FFFFFF765200000000
08FFFFFFFFFFC4000000
0AFFFFFFFFFFFF900000
0CFFFFFFFFFFFFFB0000
0EFFFFFFFFFFFFFF9000
0FFFFFFFFFFFFFFFF300
0AFFFFFFFFFFFFFFFA00
006DFFE6005FFFFFFE00
000045100007FFFFFF10
000000000004FFFFFF20
003BB4000007FFFFFF10
04FFFF91005EFFFFFE00
1EFFFFFFEFFFFFFFFA00
6FFFFFFFFFFFFFFFF300
3FFFFFFFFFFFFFFFA000
07FFFFFFFFFFFFFC1000
006EFFFFFFFFFFB10000
00018EFFFFFFD6000000
00000036776300000000
ENDCHAR
STARTCHAR six
ENCODING 54
SWIDTH 560 0
DWIDTH 20 0
BBX 20 28 0 -1
BITMAP
00000000000024565100
00000000049EFFFFFE20
00000003BFFFFFFFFF60
0000006FFFFFFFFFFF80
000008FFFFFFFFFFFF70
00006FFFFFFFFFFFFF40
0002EFFFFFFFFFFFD800
000BFFFFFFFC62100000
004FFFFFFF6000000000
00BFFFFFF50000000000
02FFFFFF900000000000
06FFFFFF69BA84000000
0AFFFFFFFFFFFFD50000
0DFFFFFFFFFFFFFF8000
0EFFFFFFFFFFFFFFF800
0FFFFFFFFFFFFFFFFF40
1FFFFFFFFFEFFFFFFFB0
1FFFFFFF6002CFFFFFF1
0FFFFFF900003FFFFFF3
0DFFFFF700002FFFFFF3
09FFFFFC00007FFFFFF2
05FFFFFFC77AFFFFFFD0
00DFFFFFFFFFFFFFFF70
005FFFFFFFFFFFFFFD10
000AFFFFFFFFFFFFE300
0000AFFFFFFFFFFD3000
000004CFFFFFFE710000
00000001567630000000
ENDCHAR
STARTCHAR seven
ENCODING 55
SWIDTH 561 0
DWIDTH 20 0
BBX 20 27 0 0
BITMAP
00455555555555555410
1DFFFFFFFFFFFFFFFFE2
5FFFFFFFFFFFFFFFFFF8
7FFFFFFFFFFFFFFFFFF9
6FFFFFFFFFFFFFFFFFF9
4FFFFFFFFFFFFFFFFFF6
08EFFFFFFFFFFFFFFFF2
000000000004FFFFFFB0
00000000000CFFFFFF40
00000000007FFFFFFC00
0000000002FFFFFFF400
000000000CFFFFFFA000
000000007FFFFFFE2000
00000002EFFFFFF60000
0000000AFFFFFFC00000
0000004FFFFFFF300000
000000BFFFFFF9000000
000003FFFFFFE1000000
000009FFFFFF70000000
00000EFFFFFE10000000
00003FFFFFF800000000
00006FFFFFF300000000
00009FFFFFE000000000
0000AFFFFFB000000000
0000BFFFFFA000000000
00009FFFFF8000000000
00002CEFEB2000000000
ENDCHAR
STARTCHAR eight
ENCODING 56
SWIDTH 582 0
DWIDTH 21 0
BBX 20 28 0 -1
BITMAP
00000016ADEDA6100000
000007EFFFFFFFE70000
0000AFFFFFFFFFFFA000
000AFFFFFFFFFFFFF900
005FFFFFFFFFFFFFFF40
00CFFFFFFFFFFFFFFFB0
02FFFFFFD636EFFFFFF1
04FFFFFF40005FFFFFF3
04FFFFFF30003FFFFFF3
02FFFFFFB101BFFFFFF2
00CFFFFFFEDEFFFFFFB0
004FFFFFFFFFFFFFFF40
0008FFFFFFFFFFFFF700
001CFFFFFFFFFFFFFC10
00AFFFFFFFFFFFFFFF90
04FFFFFFFFFFFFFFFFF3
0BFFFFFF92029FFFFFF9
0EFFFFFA00000BFFFFFE
1FFFFFF5000006FFFFFF
0FFFFFF7000008FFFFFE
0DFFFFFE30003EFFFFFC
09FFFFFFFB9BFFFFFFF8
03FFFFFFFFFFFFFFFFF2
009FFFFFFFFFFFFFFF80
000AFFFFFFFFFFFFF900
00008FFFFFFFFFFF7000
000003AFFFFFFFA20000
00000001467641000000
ENDCHAR
STARTCHAR nine
ENCODING 57
SWIDTH 560 0
DWIDTH 20 0
BBX 20 27 0 0
BITMAP
00000038ACBA73000000
00003BFFFFFFFFB20000
0005EFFFFFFFFFFE4000
004FFFFFFFFFFFFFE200
01EFFFFFFFFFFFFFFB00
07FFFFFFFFFFFFFFFF30
0CFFFFFE5226EFFFFF90
0FFFFFF600008FFFFFD0
1FFFFFF300005FFFFFF1
0FFFFFF700009FFFFFF3
0CFFFFFF845AFFFFFFF4
07FFFFFFFFFFFFFFFFF3
00CFFFFFFFFFFFFFFFF2
002EFFFFFFFFFFFFFFF1
0002CFFFFFFFFFFFFFE0
000006DFFFFEFFFFFFB0
000000024542FFFFFF70
00000000000AFFFFFF30
00000000008FFFFFFB00
000000002AFFFFFFF400
0003567BFFFFFFFFB000
00CFFFFFFFFFFFFE1000
04FFFFFFFFFFFFF40000
06FFFFFFFFFFFF500000
06FFFFFFFFFFD4000000
03FFFFFFFFE810000000
008EFFEC951000000000
ENDCHAR
STARTCHAR colon
ENCODING 58
SWIDTH 238 0
DWIDTH 9 0
BBX 8 19 0 0
BITMAP
00013100
05DFFFB1
0EFFFFF7
1FFFFFF9
1FFFFFFA
0EFFFFF8
09FFFFF3
00578720
00000000
00000000
00000000
00000000
0169A940
0BFFFFF4
0FFFFFF9
1FFFFFFA
1FFFFFF9
0DFFFFF6
03CFFE90
ENDCHAR
STARTCHAR semicolon
ENCODING 59
SWIDTH 237 0
DWIDTH 9 0
BBX 8 25 0 -6
BITMAP
00022100
06EFFFB1
0EFFFFF7
1FFFFFF9
1FFFFFF9
0FFFFFF8
0AFFFFF3
00578720
00000000
00000000
00000000
00000000
017AA940
0BFFFFF4
1FFFFFF8
1FFFFFF9
1FFFFFF9
0DFFFFF7
03CFFFF5
000CFFF1
002FFFA0
01CFFF30
0DFFF800
0FFF9000
09A40000
ENDCHAR
STARTCHAR less
ENCODING 60
SWIDTH 627 0
DWIDTH 23 0
BBX 22 25 0 0
BITMAP
0000000000000000028A20
00000000000000018FFFD1
000000000000005DFFFFF8
0000000000002BFFFFFFFE
000000000018FFFFFFFFFB
0000000005EFFFFFFFFFC2
00000003BFFFFFFFFFE700
0000019FFFFFFFFFF91000
00006EFFFFFFFFFC300000
003CFFFFFFFFFE60000000
08FFFFFFFFFF9100000000
4FFFFFFFFFC30000000000
6FFFFFFFF8000000000000
5FFFFFFFFF810000000000
0BFFFFFFFFFE6000000000
006EFFFFFFFFFC30000000
00019FFFFFFFFFF9100000
000003CFFFFFFFFFE60000
00000006EFFFFFFFFFC300
0000000019FFFFFFFFFF91
00000000003CFFFFFFFFFB
0000000000006EFFFFFFFE
000000000000018FFFFFFA
0000000000000002BFFFE2
000000000000000005BD40
ENDCHAR
STARTCHAR equal
ENCODING 61
SWIDTH 478 0
DWIDTH 17 0
BBX 17 14 0 1
BITMAP
017888888888887200
0CFFFFFFFFFFFFFE10
0FFFFFFFFFFFFFFF40
1FFFFFFFFFFFFFFF40
0DFFFFFFFFFFFFFF20
04BDDDDDDDDDDDD700
000000000000000000
000000000000000000
05CDEEEEEEEEEED700
0EFFFFFFFFFFFFFF20
1FFFFFFFFFFFFFFF40
1FFFFFFFFFFFFFFF30
0CFFFFFFFFFFFFFE10
016777777777777200
ENDCHAR
STARTCHAR greater
ENCODING 62
SWIDTH 627 0
DWIDTH 23 0
BBX 22 25 0 0
BITMAP
006A600000000000000000
06FFFD4000000000000000
1EFFFFFA20000000000000
6FFFFFFFE7000000000000
4FFFFFFFFFD40000000000
07FFFFFFFFFFA200000000
002BFFFFFFFFFF81000000
00004DFFFFFFFFFD500000
0000007EFFFFFFFFFB2000
00000002AFFFFFFFFFF810
0000000004DFFFFFFFFFD3
000000000007EFFFFFFFFC
0000000000002DFFFFFFFF
000000000003CFFFFFFFFD
0000000001AFFFFFFFFFF5
000000007EFFFFFFFFFB20
0000004DFFFFFFFFFD5000
00002AFFFFFFFFFF810000
0007EFFFFFFFFFB2000000
04DFFFFFFFFFD500000000
3FFFFFFFFFF81000000000
7FFFFFFFFB200000000000
2FFFFFFD40000000000000
09FFFE7000000000000000
009D920000000000000000
ENDCHAR
STARTCHAR question
ENCODING 63
SWIDTH 512 0
DWIDTH 18 0
BBX 18 27 0 0
BITMAP
000006AEFFDA500000
0004DFFFFFFFFC2000
004FFFFFFFFFFFE300
02EFFFFFFFFFFFFE10
0BFFFFFFFFFFFFFF90
2FFFFFFFCBEFFFFFF1
6FFFFFC1001BFFFFF5
3FFFFF500004FFFFF7
04CFFC000003FFFFF7
000241000009FFFFF6
0000000002AFFFFFF2
00000002BFFFFFFFA0
0000001EFFFFFFFE20
0000008FFFFFFFE300
000000BFFFFFFA1000
000000BFFFFF200000
0000008FFFFD000000
000000058872000000
000000000000000000
000000000000000000
00000028AA82000000
000000EFFFFE100000
000004FFFFFF500000
000005FFFFFF600000
000004FFFFFF500000
000002FFFFFF200000
0000005DFFD7000000
ENDCHAR
STARTCHAR at
ENCODING 64
SWIDTH 908 0
DWIDTH 33 0
BBX 32 29 0 -5
BITMAP
000000000048BEFFFEDA740000000000
000000006DFFFFFFFFFFFFD820000000
0000004DFFFFFFFFFFFFFFFFF7000000
000006FFFFFFFFFFFFFFFFFFFFC20000
00006FFFFFFFDA8778ADFFFFFFFE3000
0004FFFFFF920000000027DFFFFFD100
001DFFFFD300001200013207FFFFFA00
008FFFFD10005CFFE84EFF904EFFFF30
01EFFFE2000AFFFFFFEFFFC006FFFFA0
05FFFF7000BFFFFFFFFFFFB000BFFFF1
0AFFFF1008FFFFFFFFFFFF90005FFFF5
0DFFFB002FFFFFA7BFFFFF70001FFFF8
0FFFF8007FFFF6000CFFFF50000DFFFA
1FFFF7009FFFE00008FFFF30000BFFFB
1FFFF600AFFFF1000CFFFF10000AFFFB
0FFFF7009FFFFA22AFFFFE00000BFFFA
0EFFF9006FFFFFFFFFFFFC00000DFFF9
0CFFFC001EFFFFFFFFFFFA00002FFFF6
09FFFF1004FFFFFFFFFFF800009FFFF2
05FFFF70005EFFFFAFFFF60006FFFFC0
01EFFFE1000168732FFFF7139FFFFF50
009FFFFA000000000FFFFFFFFFFFFB00
002FFFFFB10000000AFFFFFFFFFFD100
0006FFFFFE83000002EFFFFFFFFB1000
00009FFFFFFFFDCC502BFFFFFD500000
000009FFFFFFFFFFC000367530000000
0000006EFFFFFFFFC000000000000000
000000017DFFFFFFB000000000000000
00000000002689A92000000000000000
ENDCHAR
STARTCHAR A
ENCODING 65
SWIDTH 765 0
DWIDTH 28 0
BBX 27 28 0 -1
BITMAP
0000000000001540000000000000
000000000006FFFC100000000000
00000000002FFFFFA00000000000
0000000000AFFFFFF20000000000
0000000002FFFFFFFA0000000000
0000000009FFFFFFFF2000000000
000000002FFFFFFFFF9000000000
000000008FFFFFFFFFF200000000
00000001EFFFFFFFFFF900000000
00000008FFFFFFFFFFFF10000000
0000001EFFFFFFFFFFFF80000000
0000007FFFFFFAFFFFFFE1000000
000001EFFFFFF29FFFFFF8000000
000007FFFFFF902FFFFFFE100000
00001EFFFFFF2009FFFFFF700000
00006FFFFFFA0002FFFFFFE10000
0000DFFFFFFEEEEEFFFFFFF70000
0006FFFFFFFFFFFFFFFFFFFE0000
000DFFFFFFFFFFFFFFFFFFFF6000
005FFFFFFFFFFFFFFFFFFFFFD000
00DFFFFFFFFFFFFFFFFFFFFFF600
05FFFFFFC6666666667FFFFFFD00
0CFFFFFF40000000000BFFFFFF50
3FFFFFFB000000000003FFFFFFC0
6FFFFFF4000000000000BFFFFFE0
1DFFFFC00000000000004FFFFF80
01AFFE300000000000000AFFE600
0001420000000000000000440000
ENDCHAR
STARTCHAR B
ENCODING 66
SWIDTH 646 0
DWIDTH 23 0
BBX 22 27 1 0
BITMAP
0156666666666530000000
2EFFFFFFFFFFFFFE700000
7FFFFFFFFFFFFFFFFB1000
8FFFFFFFFFFFFFFFFFB000
8FFFFFFFFFFFFFFFFFF700
8FFFFFFFFFFFFFFFFFFE10
8FFFFFFEEEEEFFFFFFFF50
8FFFFFC0000005FFFFFF70
8FFFFFC0000000CFFFFF90
8FFFFFC0000000CFFFFF80
8FFFFFC0001469FFFFFF50
8FFFFFC002EFFFFFFFFE00
8FFFFFC006FFFFFFFFF700
8FFFFFC007FFFFFFFFFA00
8FFFFFC004FFFFFFFFFF50
8FFFFFC0006BCEFFFFFFC0
8FFFFFC00000007FFFFFF1
8FFFFFC00000001FFFFFF4
8FFFFFC00000001FFFFFF5
8FFFFFC00000005FFFFFF4
8FFFFFD6666668EFFFFFF1
8FFFFFFFFFFFFFFFFFFFC0
8FFFFFFFFFFFFFFFFFFF50
8FFFFFFFFFFFFFFFFFFB00
8FFFFFFFFFFFFFFFFFC100
5FFFFFFFFFFFFFFFFA1000
08DEFFFFFFFFFED9300000
ENDCHAR
STARTCHAR C
ENCODING 67
SWIDTH 679 0
DWIDTH 24 0
BBX 24 28 0 -1
BITMAP
000000000004789974000000
0000000029EFFFFFFFE93000
0000001AFFFFFFFFFFFFF910
000005EFFFFFFFFFFFFFFFD1
00006FFFFFFFFFFFFFFFFFF7
0005FFFFFFFFFFFFFFFFFFF6
002EFFFFFFFFFCBCFFFFFFD1
009FFFFFFFD6100016EFFF40
02FFFFFFFA1000000018A300
07FFFFFFA000000000000000
0BFFFFFE2000000000000000
0EFFFFFA0000000000000000
0FFFFFF60000000000000000
1FFFFFF50000000000000000
0FFFFFF50000000000000000
0EFFFFF70000000000000000
0CFFFFFC0000000000000000
08FFFFFF4000000000000000
04FFFFFFD100000000000000
00CFFFFFFD300000005DF800
005FFFFFFFFA52125BFFFF60
000BFFFFFFFFFFFFFFFFFFE1
0001DFFFFFFFFFFFFFFFFFF6
00002DFFFFFFFFFFFFFFFFF6
000001AFFFFFFFFFFFFFFF90
00000005DFFFFFFFFFFFD500
0000000005AEFFFFFEA50000
000000000000245430000000
ENDCHAR
STARTCHAR D
ENCODING 68
SWIDTH 704 0
DWIDTH 25 0
BBX 24 27 1 0
BITMAP
015666666664300000000000
2EFFFFFFFFFFFEA400000000
7FFFFFFFFFFFFFFFB3000000
8FFFFFFFFFFFFFFFFF600000
8FFFFFFFFFFFFFFFFFF80000
8FFFFFFFFFFFFFFFFFFF7000
8FFFFFFFFFFFFFFFFFFFF400
8FFFFFC000026CFFFFFFFC00
8FFFFFC00000008FFFFFFF60
8FFFFFC000000007FFFFFFB0
8FFFFFC000000000CFFFFFF1
8FFFFFC0000000005FFFFFF4
8FFFFFC0000000001FFFFFF5
8FFFFFC0000000000EFFFFF6
8FFFFFC0000000000FFFFFF5
8FFFFFC0000000002FFFFFF4
8FFFFFC0000000007FFFFFF2
8FFFFFC000000001EFFFFFC0
8FFFFFC00000001CFFFFFF80
8FFFFFC0000004DFFFFFFE10
8FFFFFD66668CFFFFFFFF800
8FFFFFFFFFFFFFFFFFFFC100
8FFFFFFFFFFFFFFFFFFE2000
8FFFFFFFFFFFFFFFFFD20000
8FFFFFFFFFFFFFFFFB100000
5FFFFFFFFFFFFFFD50000000
08DEFFFFFFEDB83000000000
ENDCHAR
STARTCHAR E
ENCODING 69
SWIDTH 638 0
DWIDTH 23 0
BBX 22 27 1 0
BITMAP
0146666666666666666300
1DFFFFFFFFFFFFFFFFFF80
7FFFFFFFFFFFFFFFFFFFE0
8FFFFFFFFFFFFFFFFFFFF1
8FFFFFFFFFFFFFFFFFFFF0
8FFFFFFFFFFFFFFFFFFFC0
8FFFFFFFFFFFFFFFFFEC30
8FFFFFC000000000000000
8FFFFFC000000000000000
8FFFFFC000000000000000
8FFFFFD666666653000000
8FFFFFFFFFFFFFFF900000
8FFFFFFFFFFFFFFFE00000
8FFFFFFFFFFFFFFFF10000
8FFFFFFFFFFFFFFFF10000
8FFFFFFFFFFFFFFFD00000
8FFFFFFFFFFFFFEC400000
8FFFFFC000000000000000
8FFFFFC000000000000000
8FFFFFC000000000000000
8FFFFFD666666666665300
8FFFFFFFFFFFFFFFFFFF80
8FFFFFFFFFFFFFFFFFFFE0
8FFFFFFFFFFFFFFFFFFFF1
8FFFFFFFFFFFFFFFFFFFF0
5FFFFFFFFFFFFFFFFFFFC0
08DFFFFFFFFFFFFFFFFC30
ENDCHAR
STARTCHAR F
ENCODING 70
SWIDTH 637 0
DWIDTH 23 0
BBX 21 27 1 0
BITMAP
0146666666666666666300
1DFFFFFFFFFFFFFFFFFF80
7FFFFFFFFFFFFFFFFFFFE0
8FFFFFFFFFFFFFFFFFFFF0
8FFFFFFFFFFFFFFFFFFFF0
8FFFFFFFFFFFFFFFFFFFC0
8FFFFFFFFFFFFFFFFFFC40
8FFFFFC000000000000000
8FFFFFC000000000000000
8FFFFFC000000000000000
8FFFFFD666666653000000
8FFFFFFFFFFFFFFF800000
8FFFFFFFFFFFFFFFE00000
8FFFFFFFFFFFFFFFF10000
8FFFFFFFFFFFFFFFF00000
8FFFFFFFFFFFFFFFD00000
8FFFFFFFFFFFFFFD400000
8FFFFFC000000000000000
8FFFFFC000000000000000
8FFFFFC000000000000000
8FFFFFC000000000000000
8FFFFFC000000000000000
8FFFFFC000000000000000
8FFFFFC000000000000000
8FFFFFC000000000000000
5FFFFF9000000000000000
08DFEB2000000000000000
ENDCHAR
STARTCHAR G
ENCODING 71
SWIDTH 714 0
DWIDTH 26 0
BBX 25 28 0 -1
BITMAP
000000000048ACDCA620000000
000000017EFFFFFFFFFB400000
0000004DFFFFFFFFFFFFFA1000
000007FFFFFFFFFFFFFFFFD100
00008FFFFFFFFFFFFFFFFFF600
0006FFFFFFFFFFFFFFFFFFF300
002FFFFFFFFFB98ADFFFFFA000
00AFFFFFFF92000005DFFC1000
02FFFFFFF60000000005600000
07FFFFFF700000000000000000
0BFFFFFD000000000000000000
0EFFFFF8000008DEEEEEEDC500
0FFFFFF500003FFFFFFFFFFF10
1FFFFFF400004FFFFFFFFFFF30
0FFFFFF500004FFFFFFFFFFF40
0EFFFFF800001EFFFFFFFFFF40
0CFFFFFD0000025667FFFFFF40
08FFFFFF6000000002FFFFFF40
03FFFFFFF300000002FFFFFF40
00BFFFFFFE50000002FFFFFF40
004FFFFFFFFB521249FFFFFF40
0009FFFFFFFFFFFFFFFFFFFF40
0000CFFFFFFFFFFFFFFFFFFF30
00001CFFFFFFFFFFFFFFFFFC00
000001BFFFFFFFFFFFFFFFC200
00000006EFFFFFFFFFFFF91000
0000000017CFFFFFFFC8200000
00000000000134543100000000
ENDCHAR
STARTCHAR H
ENCODING 72
SWIDTH 699 0
DWIDTH 25 0
BBX 23 27 1 0
BITMAP
014651000000000001565100
2EFFFF50000000003EFFFF40
7FFFFFB0000000008FFFFFA0
8FFFFFC000000000AFFFFFB0
8FFFFFC000000000AFFFFFB0
8FFFFFC000000000AFFFFFB0
8FFFFFC000000000AFFFFFB0
8FFFFFC000000000AFFFFFB0
8FFFFFC000000000AFFFFFB0
8FFFFFC000000000AFFFFFB0
8FFFFFC000000000AFFFFFB0
8FFFFFFDDDDDDDDDEFFFFFB0
8FFFFFFFFFFFFFFFFFFFFFB0
8FFFFFFFFFFFFFFFFFFFFFB0
8FFFFFFFFFFFFFFFFFFFFFB0
8FFFFFFFFFFFFFFFFFFFFFB0
8FFFFFD777777777CFFFFFB0
8FFFFFC000000000AFFFFFB0
8FFFFFC000000000AFFFFFB0
8FFFFFC000000000AFFFFFB0
8FFFFFC000000000AFFFFFB0
8FFFFFC000000000AFFFFFB0
8FFFFFC000000000AFFFFFB0
8FFFFFC000000000AFFFFFB0
8FFFFFC0000000009FFFFFA0
5FFFFF90000000007FFFFF70
08DEEA100000000019DEDA10
ENDCHAR
STARTCHAR I
ENCODING 73
SWIDTH 257 0
DWIDTH 9 0
BBX 7 27 1 0
BITMAP
01465100
2EFFFF50
7FFFFFB0
8FFFFFC0
8FFFFFC0
8FFFFFC0
8FFFFFC0
8FFFFFC0
8FFFFFC0
8FFFFFC0
8FFFFFC0
8FFFFFC0
8FFFFFC0
8FFFFFC0
8FFFFFC0
8FFFFFC0
8FFFFFC0
8FFFFFC0
8FFFFFC0
8FFFFFC0
8FFFFFC0
8FFFFFC0
8FFFFFC0
8FFFFFC0
8FFFFFC0
5FFFFF90
08DFEB20
ENDCHAR
STARTCHAR J
ENCODING 74
SWIDTH 549 0
DWIDTH 20 0
BBX 19 28 0 -1
BITMAP
00000000000002554000
0000000000007FFFFC00
000000000000DFFFFF30
000000000000FFFFFF40
000000000001FFFFFF50
000000000001FFFFFF50
000000000001FFFFFF50
000000000001FFFFFF50
000000000001FFFFFF50
000000000001FFFFFF50
000000000001FFFFFF50
000000000001FFFFFF50
000000000001FFFFFF50
000000000001FFFFFF50
000000000001FFFFFF50
000000000001FFFFFF50
000000000001FFFFFF50
000000000001FFFFFF50
000450000003FFFFFF40
01BFFC10000AFFFFFF20
0BFFFFD5139FFFFFFD00
4FFFFFFFFFFFFFFFF800
6FFFFFFFFFFFFFFFE100
1DFFFFFFFFFFFFFF5000
03EFFFFFFFFFFFF80000
002CFFFFFFFFFF600000
00005CFFFFFE92000000
00000024543000000000
ENDCHAR
STARTCHAR K
ENCODING 75
SWIDTH 639 0
DWIDTH 23 0
BBX 21 28 1 -1
BITMAP
0146510000000002BA3000
2EFFFF500000003EFFF600
7FFFFFB0000002DFFFFF40
8FFFFFC000001CFFFFFFB0
8FFFFFC00000BFFFFFFF70
8FFFFFC00009FFFFFFFC10
8FFFFFC0007FFFFFFFD200
8FFFFFC006FFFFFFFE2000
8FFFFFC04FFFFFFFE30000
8FFFFFC3EFFFFFFE300000
8FFFFFDEFFFFFFE3000000
8FFFFFFFFFFFFE30000000
8FFFFFFFFFFFE200000000
8FFFFFFFFFFE2000000000
8FFFFFFFFFFF8000000000
8FFFFFFFFFFFF800000000
8FFFFFFFFFFFFF80000000
8FFFFFC9FFFFFFF8000000
8FFFFFC0AFFFFFFF800000
8FFFFFC01CFFFFFFF80000
8FFFFFC001DFFFFFFF7000
8FFFFFC0002EFFFFFFF600
8FFFFFC00003FFFFFFFF30
8FFFFFC000005FFFFFFFA0
8FFFFFC0000007FFFFFF90
5FFFFF900000009FFFFD10
08DFEB2000000009FFB100
0000000000000000430000
ENDCHAR
STARTCHAR L
ENCODING 76
SWIDTH 587 0
DWIDTH 21 0
BBX 20 27 1 0
BITMAP
01465100000000000000
2EFFFF50000000000000
7FFFFFB0000000000000
8FFFFFC0000000000000
8FFFFFC0000000000000
8FFFFFC0000000000000
8FFFFFC0000000000000
8FFFFFC0000000000000
8FFFFFC0000000000000
8FFFFFC0000000000000
8FFFFFC0000000000000
8FFFFFC0000000000000
8FFFFFC0000000000000
8FFFFFC0000000000000
8FFFFFC0000000000000
8FFFFFC0000000000000
8FFFFFC0000000000000
8FFFFFC0000000000000
8FFFFFC0000000000000
8FFFFFC0000000000000
8FFFFFC0000000000000
8FFFFFD5555555555400
8FFFFFFFFFFFFFFFFFC0
8FFFFFFFFFFFFFFFFFF3
8FFFFFFFFFFFFFFFFFF3
5FFFFFFFFFFFFFFFFFF2
08DFFFFFFFFFFFFFFE80
ENDCHAR
STARTCHAR M
ENCODING 77
SWIDTH 870 0
DWIDTH 31 0
BBX 29 27 1 0
BITMAP
014541000000000000000001455200
2EFFFF50000000000000002EFFFF50
7FFFFFF300000000000001DFFFFFB0
8FFFFFFD1000000000000AFFFFFFD0
8FFFFFFFA000000000007FFFFFFFD0
8FFFFFFFF70000000003FFFFFFFFD0
8FFFFFFFFF300000001DFFFFFFFFD0
8FFFFFFFFFD1000000BFFFFFFFFFD0
8FFFFFFFFFFB000007FFFFFFFFFFD0
8FFFFFFFFFFF70004FFFFFFFFFFFD0
8FFFFFFFFFFFF401EFFFFFFFFFFFD0
8FFFFFFFFFFFFE2BFFFFFFEFFFFFD0
8FFFFFCAFFFFFFEFFFFFFD8FFFFFD0
8FFFFFC1DFFFFFFFFFFFF37FFFFFD0
8FFFFFC03FFFFFFFFFFF607FFFFFD0
8FFFFFC007FFFFFFFFFA007FFFFFD0
8FFFFFC000BFFFFFFFE1007FFFFFD0
8FFFFFC0001DFFFFFF40007FFFFFD0
8FFFFFC00004FFFFF800007FFFFFD0
8FFFFFC000005EFF8000007FFFFFD0
8FFFFFC0000000310000007FFFFFD0
8FFFFFC0000000000000007FFFFFD0
8FFFFFC0000000000000007FFFFFD0
8FFFFFC0000000000000007FFFFFD0
8FFFFFB0000000000000007FFFFFC0
5FFFFF80000000000000004FFFFF90
08DEEA100000000000000008DEEB20
ENDCHAR
STARTCHAR N
ENCODING 78
SWIDTH 720 0
DWIDTH 26 0
BBX 24 27 1 0
BITMAP
014541000000000000255400
2EFFFF500000000005FFFFD1
7FFFFFF3000000000BFFFFF5
8FFFFFFD100000000DFFFFF7
8FFFFFFFA00000000DFFFFF7
8FFFFFFFF60000000DFFFFF7
8FFFFFFFFE3000000DFFFFF7
8FFFFFFFFFC100000DFFFFF7
8FFFFFFFFFF900000DFFFFF7
8FFFFFFFFFFF50000DFFFFF7
8FFFFFFFFFFFE2000DFFFFF7
8FFFFFFFFFFFFC000DFFFFF7
8FFFFFCCFFFFFF900DFFFFF7
8FFFFFC2EFFFFFF50DFFFFF7
8FFFFFC05FFFFFFE2DFFFFF7
8FFFFFC008FFFFFFCDFFFFF7
8FFFFFC000CFFFFFFFFFFFF7
8FFFFFC0002EFFFFFFFFFFF7
8FFFFFC00004FFFFFFFFFFF7
8FFFFFC000008FFFFFFFFFF7
8FFFFFC000000BFFFFFFFFF7
8FFFFFC0000002EFFFFFFFF7
8FFFFFC00000004FFFFFFFF7
8FFFFFC000000008FFFFFFF7
8FFFFFB000000000BFFFFFF7
5FFFFF90000000001EFFFFF4
09EFEA100000000003CEFD80
ENDCHAR
STARTCHAR O
ENCODING 79
SWIDTH 775 0
DWIDTH 28 0
BBX 27 28 0 -1
BITMAP
0000000000379AA8620000000000
000000007DFFFFFFFFD600000000
0000004DFFFFFFFFFFFFC3000000
000007FFFFFFFFFFFFFFFE500000
00007FFFFFFFFFFFFFFFFFF60000
0005FFFFFFFFFFFFFFFFFFFF4000
001EFFFFFFFFDBBDFFFFFFFFE100
008FFFFFFFB300004CFFFFFFF800
01EFFFFFF8000000009FFFFFFE10
06FFFFFF90000000000BFFFFFF50
0AFFFFFE100000000002FFFFFF90
0DFFFFF9000000000000BFFFFFC0
0FFFFFF60000000000008FFFFFD0
1FFFFFF40000000000006FFFFFF0
1FFFFFF50000000000006FFFFFE0
0EFFFFF70000000000008FFFFFD0
0DFFFFFB000000000000CFFFFFB0
09FFFFFF300000000003FFFFFF70
05FFFFFFC1000000001DFFFFFF30
01EFFFFFFC10000002CFFFFFFC00
006FFFFFFFE720027EFFFFFFF400
000CFFFFFFFFFFFFFFFFFFFFB000
0002EFFFFFFFFFFFFFFFFFFD1000
00004EFFFFFFFFFFFFFFFFE30000
000003DFFFFFFFFFFFFFFD200000
0000001AFFFFFFFFFFFF91000000
0000000039EFFFFFFE9300000000
0000000000034665300000000000
ENDCHAR
STARTCHAR P
ENCODING 80
SWIDTH 632 0
DWIDTH 23 0
BBX 21 27 1 0
BITMAP
0146666666664100000000
2EFFFFFFFFFFFFC5000000
7FFFFFFFFFFFFFFFB20000
8FFFFFFFFFFFFFFFFE3000
8FFFFFFFFFFFFFFFFFE100
8FFFFFFFFFFFFFFFFFFA00
8FFFFFFFFFFFFFFFFFFF20
8FFFFFC000004CFFFFFF70
8FFFFFC0000001DFFFFFA0
8FFFFFC00000009FFFFFC0
8FFFFFC00000008FFFFFC0
8FFFFFC0000000BFFFFFB0
8FFFFFC0000008FFFFFF90
8FFFFFEAAAAADFFFFFFF40
8FFFFFFFFFFFFFFFFFFD00
8FFFFFFFFFFFFFFFFFF400
8FFFFFFFFFFFFFFFFF7000
8FFFFFFFFFFFFFFFE60000
8FFFFFFFFFFFFFFA200000
8FFFFFEBBBBB9620000000
8FFFFFC000000000000000
8FFFFFC000000000000000
8FFFFFC000000000000000
8FFFFFC000000000000000
8FFFFFC000000000000000
5FFFFF9000000000000000
08DEEA1000000000000000
ENDCHAR
STARTCHAR Q
ENCODING 81
SWIDTH 830 0
DWIDTH 30 0
BBX 30 28 0 -1
BITMAP
0000000000379AA862000000000000
000000007DFFFFFFFFD60000000000
0000004DFFFFFFFFFFFFC300000000
000007FFFFFFFFFFFFFFFE50000000
00007FFFFFFFFFFFFFFFFFF6000000
0005FFFFFFFFFFFFFFFFFFFF400000
001EFFFFFFFFDBBDFFFFFFFFE10000
008FFFFFFFB300004CFFFFFFF70000
01EFFFFFF8000000009FFFFFFE1000
06FFFFFF90000000000BFFFFFF5000
0AFFFFFE100000000002FFFFFF9000
0DFFFFF9000000000000BFFFFFC000
0FFFFFF60000000000008FFFFFD000
1FFFFFF40000000000006FFFFFE000
1FFFFFF50000000000006FFFFFE000
0EFFFFF70000000000008FFFFFD000
0DFFFFFB000000000000CFFFFFB000
09FFFFFF300000000003FFFFFF7000
05FFFFFFC1000000001DFFFFFF3000
01EFFFFFFC10000002CFFFFFFC0000
006FFFFFFFE720027EFFFFFFFF9100
000CFFFFFFFFFFFFFFFFFFFFFFFD30
0002EFFFFFFFFFFFFFFFFFFFFFFFE2
00004EFFFFFFFFFFFFFFFFFFFFFFF4
000003DFFFFFFFFFFFFFFEFFFFFFE1
00000019FFFFFFFFFFFF916EFFFF70
0000000039EFFFFFFE930002BFFA00
000000000003466530000000034000
ENDCHAR
STARTCHAR R
ENCODING 82
SWIDTH 631 0
DWIDTH 23 0
BBX 22 28 1 -1
BITMAP
0146666666664200000000
2EFFFFFFFFFFFFC5000000
7FFFFFFFFFFFFFFFC20000
8FFFFFFFFFFFFFFFFE3000
8FFFFFFFFFFFFFFFFFE200
8FFFFFFFFFFFFFFFFFFA00
8FFFFFFFFFFFFFFFFFFF20
8FFFFFC000004CFFFFFF70
8FFFFFC0000001DFFFFFB0
8FFFFFC00000008FFFFFC0
8FFFFFC00000007FFFFFD0
8FFFFFC0000000BFFFFFC0
8FFFFFC0000007FFFFFF90
8FFFFFEAAAAADFFFFFFF50
8FFFFFFFFFFFFFFFFFFD00
8FFFFFFFFFFFFFFFFFF500
8FFFFFFFFFFFFFFFFF8000
8FFFFFFFFFFFFFFFFF7000
8FFFFFFFFFFFFFFFFFD000
8FFFFFEBBBBBCFFFFFF500
8FFFFFC000003FFFFFFB00
8FFFFFC000000BFFFFFF30
8FFFFFC0000005FFFFFF90
8FFFFFC0000000DFFFFFE0
8FFFFFC00000007FFFFFF2
5FFFFF900000001FFFFFA0
08DEEA1000000006FFD600
0000000000000000220000
ENDCHAR
STARTCHAR S
ENCODING 83
SWIDTH 583 0
DWIDTH 21 0
BBX 20 28 1 -1
BITMAP
0000037ABCB962000000
0002BFFFFFFFFFB30000
004EFFFFFFFFFFFF6000
02EFFFFFFFFFFFFFF400
0BFFFFFFFFFFFFFFF800
2FFFFFFFFFFFFFFFF300
7FFFFFFA324BFFFF8000
9FFFFFD000007EF90000
9FFFFFC0000000100000
7FFFFFF5000000000000
4FFFFFFFC74100000000
0EFFFFFFFFFFC8300000
05FFFFFFFFFFFFFB3000
008FFFFFFFFFFFFFF500
0005CFFFFFFFFFFFFE20
000004AFFFFFFFFFFF80
0000000158CFFFFFFFD0
000000000003DFFFFFF0
04DF910000006FFFFFF1
3EFFFC1000007FFFFFF0
DFFFFFD30002DFFFFFD0
FFFFFFFFB9AFFFFFFF90
AFFFFFFFFFFFFFFFFF30
1DFFFFFFFFFFFFFFF900
03EFFFFFFFFFFFFFB100
001BFFFFFFFFFFF80000
00004AFFFFFFE9200000
00000003554200000000
ENDCHAR
STARTCHAR T
ENCODING 84
SWIDTH 731 0
DWIDTH 26 0
BBX 26 27 0 0
BITMAP
02566666666666666666666640
3FFFFFFFFFFFFFFFFFFFFFFFF7
6FFFFFFFFFFFFFFFFFFFFFFFFB
7FFFFFFFFFFFFFFFFFFFFFFFFB
4FFFFFFFFFFFFFFFFFFFFFFFF9
08BCCCCCCCFFFFFFDCCCCCCC92
0000000000EFFFFF4000000000
0000000000EFFFFF4000000000
0000000000EFFFFF4000000000
0000000000EFFFFF4000000000
0000000000EFFFFF4000000000
0000000000EFFFFF4000000000
0000000000EFFFFF4000000000
0000000000EFFFFF4000000000
0000000000EFFFFF4000000000
0000000000EFFFFF4000000000
0000000000EFFFFF4000000000
0000000000EFFFFF4000000000
0000000000EFFFFF4000000000
0000000000EFFFFF4000000000
0000000000EFFFFF4000000000
0000000000EFFFFF4000000000
0000000000EFFFFF4000000000
0000000000EFFFFF4000000000
0000000000EFFFFF4000000000
0000000000CFFFFF1000000000
00000000003CFFD60000000000
ENDCHAR
STARTCHAR U
ENCODING 85
SWIDTH 726 0
DWIDTH 26 0
BBX 24 28 1 -1
BITMAP
015662000000000000256510
2EFFFF500000000003FFFFF3
7FFFFFB00000000009FFFFF9
8FFFFFC0000000000AFFFFFA
8FFFFFD0000000000AFFFFFB
8FFFFFD0000000000AFFFFFB
8FFFFFD0000000000AFFFFFB
8FFFFFD0000000000AFFFFFB
8FFFFFD0000000000AFFFFFB
8FFFFFD0000000000AFFFFFB
8FFFFFD0000000000AFFFFFB
8FFFFFD0000000000AFFFFFB
8FFFFFD0000000000AFFFFFB
8FFFFFD0000000000AFFFFFB
8FFFFFD0000000000AFFFFFA
7FFFFFE0000000000BFFFFFA
6FFFFFF1000000000DFFFFF8
4FFFFFF5000000003FFFFFF6
0FFFFFFC00000000AFFFFFF2
0AFFFFFF70000005FFFFFFD0
04FFFFFFFA31028FFFFFFF60
00CFFFFFFFFFFFFFFFFFFD10
002FFFFFFFFFFFFFFFFFF400
0006FFFFFFFFFFFFFFFF8000
00007FFFFFFFFFFFFFF90000
000004DFFFFFFFFFFE500000
00000017DFFFFFFD81000000
000000000256653000000000
ENDCHAR
STARTCHAR V
ENCODING 86
SWIDTH 783 0
DWIDTH 28 0
BBX 28 27 0 0
BITMAP
0005950000000000000000486100
04DFFF5000000000000003FFFE60
3FFFFFD00000000000000BFFFFF5
6FFFFFF50000000000003FFFFFF9
2FFFFFFC0000000000009FFFFFF5
0AFFFFFF400000000002FFFFFFD0
03FFFFFFB00000000008FFFFFF60
00BFFFFFF3000000001EFFFFFD00
003FFFFFF9000000007FFFFFF600
000BFFFFFF20000000DFFFFFD000
0004FFFFFF80000005FFFFFF6000
0000BFFFFFE100000CFFFFFD0000
00004FFFFFF700004FFFFFF70000
00000BFFFFFD0000BFFFFFE10000
000004FFFFFF6003FFFFFF700000
000000CFFFFFD00AFFFFFE100000
0000004FFFFFF52FFFFFF7000000
0000000CFFFFFC8FFFFFE1000000
00000004FFFFFFFFFFFF70000000
00000000CFFFFFFFFFFE10000000
000000005FFFFFFFFFF700000000
000000000CFFFFFFFFE100000000
0000000005FFFFFFFF8000000000
0000000000CFFFFFFE1000000000
00000000005FFFFFF80000000000
00000000000BFFFFD10000000000
0000000000019EEA200000000000
ENDCHAR
STARTCHAR W
ENCODING 87
SWIDTH 999 0
DWIDTH 36 0
BBX 36 27 0 0
BITMAP
001586000000000015510000000000696100
07EFFF6000000004EFFE4000000007FFFE70
4FFFFFD00000000DFFFFD00000000EFFFFF4
6FFFFFF30000005FFFFFF40000004FFFFFF5
2FFFFFF8000000AFFFFFF90000009FFFFFF1
0CFFFFFD000001FFFFFFFE000000EFFFFFB0
07FFFFFF300005FFFFFFFF400004FFFFFF60
02FFFFFF80000AFFFFFFFF900009FFFFFF10
00CFFFFFD0001EFFFFFFFFD0000DFFFFFB00
007FFFFFF2005FFFFFFFFFF3003FFFFFF600
001FFFFFF700AFFFFFFFFFF8008FFFFFF100
000BFFFFFC01EFFFFFFFFFFD00DFFFFFA000
0006FFFFFF25FFFFFFFFFFFF33FFFFFF5000
0001FFFFFF7AFFFFFBCFFFFF88FFFFFE1000
0000AFFFFFDEFFFFF67FFFFFDDFFFFFA0000
00005FFFFFFFFFFFF12FFFFFFFFFFFF40000
00001EFFFFFFFFFFB00CFFFFFFFFFFE00000
00000AFFFFFFFFFF5007FFFFFFFFFF900000
000005FFFFFFFFFF1002FFFFFFFFFF400000
000000EFFFFFFFFA0000BFFFFFFFFE000000
0000009FFFFFFFF500006FFFFFFFF8000000
0000004FFFFFFFE100001FFFFFFFF3000000
0000000EFFFFFFA000000BFFFFFFD0000000
00000008FFFFFF50000006FFFFFF80000000
00000003FFFFFE10000001FFFFFF30000000
00000000BFFFF7000000009FFFFB00000000
0000000019ED700000000008DE8100000000
ENDCHAR
STARTCHAR X
ENCODING 88
SWIDTH 741 0
DWIDTH 27 0
BBX 27 28 0 -1
BITMAP
004DF8000000000000001BFB2000
05FFFF90000000000001CFFFD200
2FFFFFF700000000000BFFFFFC00
6FFFFFFF6000000000AFFFFFFF10
2EFFFFFFF400000008FFFFFFFC00
05FFFFFFFE3000006FFFFFFFE200
007FFFFFFFD10004FFFFFFFE3000
0008FFFFFFFC103EFFFFFFF40000
0000AFFFFFFFB2DFFFFFFF500000
00000BFFFFFFFEFFFFFFF7000000
000001CFFFFFFFFFFFFF80000000
0000001DFFFFFFFFFFF900000000
00000002DFFFFFFFFFA000000000
000000003FFFFFFFFD1000000000
00000000BFFFFFFFFF7000000000
0000000AFFFFFFFFFFF500000000
0000009FFFFFFFFFFFFF40000000
000007FFFFFFFFFFFFFFE3000000
00006FFFFFFFD6FFFFFFFE200000
0005FFFFFFFE306FFFFFFFD20000
004FFFFFFFF40008FFFFFFFD1000
03EFFFFFFF600000AFFFFFFFC000
1DFFFFFFF80000000BFFFFFFF900
5FFFFFFF9000000001DFFFFFFF10
4FFFFFFB00000000002EFFFFFE10
09FFFFC1000000000003EFFFF500
008FFC100000000000004EFE5000
0002400000000000000001510000
ENDCHAR
STARTCHAR Y
ENCODING 89
SWIDTH 686 0
DWIDTH 25 0
BBX 25 28 0 -1
BITMAP
0018B600000000000019B50000
04DFFF600000000000BFFFC100
2EFFFFE20000000006FFFFFC00
6FFFFFFB000000001EFFFFFF10
2FFFFFFF50000000AFFFFFFC00
08FFFFFFE1000004FFFFFFF400
01DFFFFFF900001DFFFFFF9000
004FFFFFFF30008FFFFFFD1000
0008FFFFFFC003FFFFFFF40000
0001DFFFFFF70CFFFFFF900000
00004FFFFFFE8FFFFFFD100000
000008FFFFFFFFFFFFF4000000
000001DFFFFFFFFFFF90000000
0000003FFFFFFFFFFD10000000
00000008FFFFFFFFF400000000
00000001DFFFFFFF9000000000
000000003FFFFFFD1000000000
000000000DFFFFF80000000000
000000000DFFFFF80000000000
000000000DFFFFF80000000000
000000000DFFFFF80000000000
000000000DFFFFF80000000000
000000000DFFFFF80000000000
000000000DFFFFF80000000000
000000000DFFFFF80000000000
000000000AFFFFF50000000000
0000000003CFFFA00000000000
00000000000010000000000000
ENDCHAR
STARTCHAR Z
ENCODING 90
SWIDTH 643 0
DWIDTH 23 0
BBX 23 28 0 -1
BITMAP
004666666666666666640000
09FFFFFFFFFFFFFFFFFFB000
0EFFFFFFFFFFFFFFFFFFF700
1FFFFFFFFFFFFFFFFFFFFB00
1FFFFFFFFFFFFFFFFFFFFA00
0CFFFFFFFFFFFFFFFFFFF400
03ACDDDDDDDDEFFFFFFF8000
000000000001EFFFFFFC0000
00000000000BFFFFFFE20000
00000000007FFFFFFF500000
0000000003FFFFFFF9000000
000000001DFFFFFFD1000000
000000009FFFFFFF30000000
00000005FFFFFFF700000000
0000002EFFFFFFB000000000
000000BFFFFFFE1000000000
000007FFFFFFF40000000000
00003FFFFFFF900000000000
0001DFFFFFFC000000000000
000AFFFFFFE2000000000000
006FFFFFFF82222222220000
02EFFFFFFFFFFFFFFFFFF700
0BFFFFFFFFFFFFFFFFFFFF10
1FFFFFFFFFFFFFFFFFFFFF30
0FFFFFFFFFFFFFFFFFFFFF30
0AFFFFFFFFFFFFFFFFFFFF10
019FFFFFFFFFFFFFFFFFE700
000011111111111111110000
ENDCHAR
STARTCHAR bracketleft
ENCODING 91
SWIDTH 348 0
DWIDTH 13 0
BBX 11 37 1 -9
BITMAP
07BCCCCCCC50
5FFFFFFFFFD0
8FFFFFFFFFE0
8FFFFFFFFFE0
8FFFFFFFFFB0
8FFFFF855400
8FFFFF400000
8FFFFF400000
8FFFFF400000
8FFFFF400000
8FFFFF400000
8FFFFF400000
8FFFFF400000
8FFFFF400000
8FFFFF400000
8FFFFF400000
8FFFFF400000
8FFFFF400000
8FFFFF400000
8FFFFF400000
8FFFFF400000
8FFFFF400000
8FFFFF400000
8FFFFF400000
8FFFFF400000
8FFFFF400000
8FFFFF400000
8FFFFF400000
8FFFFF400000
8FFFFF400000
8FFFFF411000
8FFFFFFFFF70
8FFFFFFFFFD0
8FFFFFFFFFF0
6FFFFFFFFFE0
1CFFFFFFFF80
001222222100
ENDCHAR
STARTCHAR backslash
ENCODING 92
SWIDTH 528 0
DWIDTH 19 0
BBX 19 31 0 -2
BITMAP
00002000000000000000
018EFB00000000000000
1DFFFF60000000000000
6FFFFFD0000000000000
3FFFFFF5000000000000
0CFFFFFC000000000000
04FFFFFF500000000000
00CFFFFFC00000000000
005FFFFFF40000000000
000DFFFFFB0000000000
0006FFFFFF3000000000
0000DFFFFFB000000000
00006FFFFFF300000000
00000EFFFFFA00000000
000007FFFFFF20000000
000001EFFFFF90000000
0000007FFFFFF2000000
0000001EFFFFF9000000
00000008FFFFFF100000
00000001FFFFFF800000
000000009FFFFFE10000
000000002FFFFFF80000
0000000009FFFFFE1000
0000000002FFFFFF7000
0000000000AFFFFFE100
00000000003FFFFFF600
00000000000AFFFFFD00
000000000003FFFFFF40
000000000000BFFFFF60
0000000000004FFFFD20
00000000000009FC7000
ENDCHAR
STARTCHAR bracketright
ENCODING 93
SWIDTH 348 0
DWIDTH 13 0
BBX 12 37 0 -9
BITMAP
19CCCCCCCA30
5FFFFFFFFFD0
7FFFFFFFFFF1
6FFFFFFFFFF1
3FFFFFFFFFF1
02555DFFFFF1
00000BFFFFF1
00000BFFFFF1
00000BFFFFF1
00000BFFFFF1
00000BFFFFF1
00000BFFFFF1
00000BFFFFF1
00000BFFFFF1
00000BFFFFF1
00000BFFFFF1
00000BFFFFF1
00000BFFFFF1
00000BFFFFF1
00000BFFFFF1
00000BFFFFF1
00000BFFFFF1
00000BFFFFF1
00000BFFFFF1
00000BFFFFF1
00000BFFFFF1
00000BFFFFF1
00000BFFFFF1
00000BFFFFF1
00000BFFFFF1
00011BFFFFF1
1DFFFFFFFFF1
6FFFFFFFFFF1
7FFFFFFFFFF1
6FFFFFFFFFE0
2DFFFFFFFF60
002222222000
ENDCHAR
STARTCHAR asciicircum
ENCODING 94
SWIDTH 526 0
DWIDTH 19 0
BBX 17 11 1 9
BITMAP
000000048400000000
0000007FFF60000000
000007FFFFF6000000
00007FFFFFFF600000
0007FFFFFFFFF60000
007FFFFFFFFFFF6000
07FFFFFFDFFFFFF600
4FFFFFF909FFFFFF40
7FFFFF90009FFFFF50
1DFFF9000009FFFC10
02CF900000009FB100
ENDCHAR
STARTCHAR underscore
ENCODING 95
SWIDTH 826 0
DWIDTH 30 0
BBX 30 6 0 -9
BITMAP
08BCCCCCCCCCCCCCCCCCCCCCCCCB50
5FFFFFFFFFFFFFFFFFFFFFFFFFFFF1
7FFFFFFFFFFFFFFFFFFFFFFFFFFFF3
6FFFFFFFFFFFFFFFFFFFFFFFFFFFF2
2EFFFFFFFFFFFFFFFFFFFFFFFFFFC0
003333333333333333333333333200
ENDCHAR
STARTCHAR grave
ENCODING 96
SWIDTH 482 0
DWIDTH 17 0
BBX 12 8 3 20
BITMAP
04C951000000
0EFFFFB61000
4FFFFFFFFB50
8FFFFFFFFFF1
5FFFFFFFFFF0
028DFFFFFFB0
000027CFFF40
000000026500
ENDCHAR
STARTCHAR a
ENCODING 97
SWIDTH 596 0
DWIDTH 21 0
BBX 20 19 0 0
BITMAP
00000049CEC8205CEEC3
00001AFFFFFFE6FFFFFC
0002DFFFFFFFFFFFFFFF
001DFFFFFFFFFFFFFFFF
00AFFFFFFFFFFFFFFFFF
03FFFFFFFFFFFFFFFFFF
09FFFFFFD758EFFFFFFF
0DFFFFFE10004FFFFFFF
0FFFFFF600000BFFFFFF
1FFFFFF4000008FFFFFF
0FFFFFF600000BFFFFFF
0DFFFFFE20005FFFFFFF
09FFFFFFE869FFFFFFFF
03FFFFFFFFFFFFFFFFFF
00AFFFFFFFFFFFFFFFFF
001DFFFFFFFFFFFFFFFF
0002DFFFFFFFFFFFFFFF
00001AFFFFFFF6FFFFFC
00000049CEC9305CDEB3
ENDCHAR
STARTCHAR b
ENCODING 98
SWIDTH 592 0
DWIDTH 21 0
BBX 20 28 1 0
BITMAP
07BCB800000000000000
5FFFFF70000000000000
8FFFFFB0000000000000
8FFFFFB0000000000000
8FFFFFB0000000000000
8FFFFFB0000000000000
8FFFFFB0000000000000
8FFFFFB0000000000000
8FFFFFB0000000000000
8FFFFFB17CEDB6000000
8FFFFFCCFFFFFFD30000
8FFFFFFFFFFFFFFE5000
8FFFFFFFFFFFFFFFF300
8FFFFFFFFFFFFFFFFD10
8FFFFFFFFFFFFFFFFF70
8FFFFFFFB67CFFFFFFD0
8FFFFFF90000AFFFFFF3
8FFFFFF100002FFFFFF5
8FFFFFD000000EFFFFF6
8FFFFFF100002FFFFFF5
8FFFFFF90000BFFFFFF3
8FFFFFFFB67CFFFFFFD0
8FFFFFFFFFFFFFFFFF70
8FFFFFFFFFFFFFFFFE10
8FFFFFFFFFFFFFFFF400
8FFFFFFFFFFFFFFF5000
5FFFFFADFFFFFFD40000
09DED9117CDDB6000000
ENDCHAR
STARTCHAR c
ENCODING 99
SWIDTH 517 0
DWIDTH 19 0
BBX 18 21 0 -1
BITMAP
000000000122000000
00000039EFFFEB6000
00001AFFFFFFFFFD30
0002DFFFFFFFFFFFF4
002EFFFFFFFFFFFFFA
00BFFFFFFFFFFFFFF8
04FFFFFFFFFFFFFFE1
09FFFFFFE856DFFF50
0DFFFFFE2000069400
0FFFFFF80000000000
1FFFFFF60000000000
0FFFFFF80000000000
0DFFFFFE2000058200
09FFFFFFE757DFFE30
03FFFFFFFFFFFFFFE1
00AFFFFFFFFFFFFFF8
001DFFFFFFFFFFFFFA
0002DFFFFFFFFFFFE3
000019FFFFFFFFFD30
00000029DFFFFC6000
000000000122100000
ENDCHAR
STARTCHAR d
ENCODING 100
SWIDTH 598 0
DWIDTH 22 0
BBX 20 28 1 0
BITMAP
00000000000004ACCA30
0000000000000EFFFFC0
0000000000003FFFFFF1
0000000000003FFFFFF1
0000000000003FFFFFF1
0000000000003FFFFFF1
0000000000003FFFFFF1
0000000000003FFFFFF1
0000000000003FFFFFF1
0000038CEDA33FFFFFF1
00008FFFFFFF9FFFFFF1
001BFFFFFFFFFFFFFFF1
00BFFFFFFFFFFFFFFFF1
07FFFFFFFFFFFFFFFFF1
1EFFFFFFFFFFFFFFFFF1
6FFFFFFF968EFFFFFFF1
AFFFFFF30002EFFFFFF1
DFFFFF9000008FFFFFF1
EFFFFF6000005FFFFFF1
DFFFFF9000008FFFFFF1
BFFFFFF40002EFFFFFF1
6FFFFFFF968EFFFFFFF1
1EFFFFFFFFFFFFFFFFF1
07FFFFFFFFFFFFFFFFF1
00BFFFFFFFFFFFFFFFF1
001BFFFFFFFFFFFFFFF1
00009FFFFFFF8FFFFFD0
0000038CDDA405CEEB30
ENDCHAR
STARTCHAR e
ENCODING 101
SWIDTH 573 0
DWIDTH 21 0
BBX 20 21 0 -1
BITMAP
00000000145542000000
0000006CFFFFFFC70000
00003DFFFFFFFFFFC200
0005FFFFFFFFFFFFFD10
003EFFFFFFFFFFFFFFA0
00CFFFFFFFFFFFFFFFF3
05FFFFFFFC66AFFFFFF8
0AFFFFFF80000AFFFFFA
0DFFFFFC000009FFFFFB
0FFFFFFDAAAABFFFFFF9
1FFFFFFFFFFFFFFFFFF4
0FFFFFFFFFFFFFFFFF90
0EFFFFFD999999998400
0AFFFFFE100000000000
05FFFFFFE721247CE700
00DFFFFFFFFFFFFFFF40
004FFFFFFFFFFFFFFFA0
0007FFFFFFFFFFFFFFB0
00006EFFFFFFFFFFFF60
0000019DFFFFFFFFC500
00000000356776410000
ENDCHAR
STARTCHAR f
ENCODING 102
SWIDTH 450 0
DWIDTH 16 0
BBX 16 28 0 0
BITMAP
000000016ACDD910
0000004EFFFFFF70
000004FFFFFFFFA0
00001EFFFFFFFFA0
00008FFFFFFFFF90
0000DFFFFFFFFF30
0001FFFFFFB66200
0002FFFFFF300000
0002FFFFFF300000
05ABFFFFFFCDED80
2FFFFFFFFFFFFFF6
6FFFFFFFFFFFFFF9
7FFFFFFFFFFFFFFA
5FFFFFFFFFFFFFF8
1EFFFFFFFFFFFFE3
0146FFFFFF656510
0002FFFFFF300000
0002FFFFFF300000
0002FFFFFF300000
0002FFFFFF300000
0002FFFFFF300000
0002FFFFFF300000
0002FFFFFF300000
0002FFFFFF300000
0002FFFFFF300000
0002FFFFFF200000
0000EFFFFE000000
00005DFFD5000000
ENDCHAR
STARTCHAR g
ENCODING 103
SWIDTH 585 0
DWIDTH 21 0
BBX 20 28 0 -9
BITMAP
0000005ADEC7109EFFB1
00002CFFFFFFE7FFFFF7
0003EFFFFFFFFFFFFFF9
002EFFFFFFFFFFFFFFF9
00BFFFFFFFFFFFFFFFF9
04FFFFFFFFFFFFFFFFF9
0AFFFFFFA437FFFFFFF9
0EFFFFFA00006FFFFFF9
0FFFFFF300000DFFFFF9
1FFFFFF200000CFFFFF9
0FFFFFF600002FFFFFF9
0CFFFFFE4001CFFFFFF9
07FFFFFFFDCEFFFFFFF9
01EFFFFFFFFFFFFFFFF9
006FFFFFFFFFFFFFFFF9
0009FFFFFFFFFFFFFFF9
00008FFFFFFFFEFFFFF9
000004CFFFFE78FFFFF9
0000000356410AFFFFF9
0000151000001EFFFFF7
0001DFE600009FFFFFF4
000CFFFFEBADFFFFFFE0
004FFFFFFFFFFFFFFF70
006FFFFFFFFFFFFFFB00
001CFFFFFFFFFFFFC100
00008FFFFFFFFFF80000
0000017CFFFFD9200000
00000000022100000000
ENDCHAR
STARTCHAR h
ENCODING 104
SWIDTH 605 0
DWIDTH 22 0
BBX 20 28 1 0
BITMAP
07BCB800000000000000
5FFFFF70000000000000
8FFFFFB0000000000000
8FFFFFB0000000000000
8FFFFFB0000000000000
8FFFFFB0000000000000
8FFFFFB0000000000000
8FFFFFB0000000000000
8FFFFFB0000000000000
8FFFFFB03ADDB7200000
8FFFFFB7FFFFFFE70000
8FFFFFEFFFFFFFFF9000
8FFFFFFFFFFFFFFFF600
8FFFFFFFFFFFFFFFFF20
8FFFFFFFFFFFFFFFFF80
8FFFFFFFC76BFFFFFFD0
8FFFFFF800009FFFFFF2
8FFFFFD000002FFFFFF4
8FFFFFB000000FFFFFF5
8FFFFFB000000EFFFFF5
8FFFFFB000000EFFFFF5
8FFFFFB000000EFFFFF5
8FFFFFB000000EFFFFF5
8FFFFFB000000EFFFFF5
8FFFFFB000000EFFFFF5
8FFFFFB000000EFFFFF5
6FFFFF8000000BFFFFF2
09EFEA10000003CEFD70
ENDCHAR
STARTCHAR i
ENCODING 105
SWIDTH 255 0
DWIDTH 9 0
BBX 7 28 1 0
BITMAP
07BCB800
5FFFFF70
8FFFFFB0
8FFFFFB0
7FFFFFA0
2FFFFF50
02676300
00000000
00000000
08DED910
5FFFFF80
8FFFFFB0
8FFFFFB0
8FFFFFB0
8FFFFFB0
8FFFFFB0
8FFFFFB0
8FFFFFB0
8FFFFFB0
8FFFFFB0
8FFFFFB0
8FFFFFB0
8FFFFFB0
8FFFFFB0
8FFFFFB0
8FFFFFB0
6FFFFF80
09EFEA10
ENDCHAR
STARTCHAR j
ENCODING 106
SWIDTH 252 0
DWIDTH 9 0
BBX 13 37 -5 -9
BITMAP
00000006BCB700
0000005FFFFF60
0000008FFFFF90
0000008FFFFF90
0000007FFFFF80
0000002EFFFF30
00000001565200
00000000000000
00000000010000
0000001AFFFB10
0000006FFFFF70
0000008FFFFF90
0000008FFFFF90
0000008FFFFF90
0000008FFFFF90
0000008FFFFF90
0000008FFFFF90
0000008FFFFF90
0000008FFFFF90
0000008FFFFF90
0000008FFFFF90
0000008FFFFF90
0000008FFFFF90
0000008FFFFF90
0000008FFFFF90
0000008FFFFF90
0000009FFFFF90
000000AFFFFF90
000001EFFFFF70
00025DFFFFFF40
2BFFFFFFFFFE00
8FFFFFFFFFF600
BFFFFFFFFFB000
BFFFFFFFFB1000
9FFFFFFF800000
2DFFFD82000000
00220000000000
ENDCHAR
STARTCHAR k
ENCODING 107
SWIDTH 536 0
DWIDTH 19 0
BBX 18 29 1 -1
BITMAP
08CDD9100000000000
5FFFFF800000000000
8FFFFFB00000000000
8FFFFFB00000000000
8FFFFFB00000000000
8FFFFFB00000000000
8FFFFFB00000000000
8FFFFFB00000000000
8FFFFFB00000000000
8FFFFFB00000120000
8FFFFFB00008FF9000
8FFFFFB001CFFFF800
8FFFFFB01CFFFFFF30
8FFFFFB2DFFFFFFF70
8FFFFFDDFFFFFFFE20
8FFFFFFFFFFFFFE300
8FFFFFFFFFFFFC2000
8FFFFFFFFFFFB10000
8FFFFFFFFFFD000000
8FFFFFFFFFFFB10000
8FFFFFFFFFFFFD2000
8FFFFFFFFFFFFFE400
8FFFFFCBFFFFFFFF70
8FFFFFB0AFFFFFFFF6
8FFFFFB00AFFFFFFFA
8FFFFFB0009FFFFFF6
6FFFFF800008FFFFB0
09EFEA1000005DFC10
000000000000003000
ENDCHAR
STARTCHAR l
ENCODING 108
SWIDTH 327 0
DWIDTH 12 0
BBX 11 28 1 0
BITMAP
08CDD9100000
5FFFFF700000
8FFFFFB00000
8FFFFFB00000
8FFFFFB00000
8FFFFFB00000
8FFFFFB00000
8FFFFFB00000
8FFFFFB00000
8FFFFFB00000
8FFFFFB00000
8FFFFFB00000
8FFFFFB00000
8FFFFFB00000
8FFFFFB00000
8FFFFFB00000
8FFFFFB00000
8FFFFFB00000
8FFFFFB00000
8FFFFFB00000
8FFFFFB00000
8FFFFFE20000
7FFFFFFFF900
5FFFFFFFFF20
2FFFFFFFFF30
0CFFFFFFFF30
03EFFFFFFF10
0017BEFFE800
ENDCHAR
STARTCHAR m
ENCODING 109
SWIDTH 851 0
DWIDTH 31 0
BBX 29 19 1 0
BITMAP
09DED9005CFEB6000028DFEA300000
5FFFFF68FFFFFFB105EFFFFFF70000
8FFFFFDFFFFFFFFB5FFFFFFFFF7000
8FFFFFFFFFFFFFFFFFFFFFFFFFE200
8FFFFFFFFFFFFFFFFFFFFFFFFFF700
8FFFFFFFFFFFFFFFFFFFFFFFFFFC00
8FFFFFFD77EFFFFFFFB69FFFFFFE00
8FFFFFF3004FFFFFFD0008FFFFFF10
8FFFFFD0000EFFFFF90003FFFFFF20
8FFFFFC0000DFFFFF80002FFFFFF30
8FFFFFC0000CFFFFF80002FFFFFF30
8FFFFFC0000CFFFFF80002FFFFFF30
8FFFFFC0000CFFFFF80002FFFFFF30
8FFFFFC0000CFFFFF80002FFFFFF30
8FFFFFC0000CFFFFF80002FFFFFF30
8FFFFFC0000CFFFFF70002FFFFFF30
8FFFFFB0000CFFFFF70001FFFFFF30
6FFFFF900009FFFFF40000EFFFFE10
09EFEA100002BEFD8000004CFFD500
ENDCHAR
STARTCHAR n
ENCODING 110
SWIDTH 606 0
DWIDTH 22 0
BBX 20 19 1 0
BITMAP
09DEEA104ADEC8200000
6FFFFF88FFFFFFF80000
8FFFFFEFFFFFFFFFA000
8FFFFFFFFFFFFFFFF700
8FFFFFFFFFFFFFFFFF20
8FFFFFFFFFFFFFFFFF90
8FFFFFFFA66BFFFFFFE0
8FFFFFF600009FFFFFF3
8FFFFFE000002FFFFFF4
8FFFFFB000000FFFFFF5
8FFFFFB000000EFFFFF6
8FFFFFB000000EFFFFF6
8FFFFFB000000EFFFFF6
8FFFFFB000000EFFFFF6
8FFFFFB000000EFFFFF6
8FFFFFB000000EFFFFF6
8FFFFFB000000EFFFFF5
5FFFFF8000000BFFFFF3
09DEEA10000002BEED70
ENDCHAR
STARTCHAR o
ENCODING 111
SWIDTH 600 0
DWIDTH 22 0
BBX 21 21 0 -1
BITMAP
0000000024654100000000
0000005CFFFFFEA3000000
00002CFFFFFFFFFF800000
0003EFFFFFFFFFFFFB0000
002EFFFFFFFFFFFFFFA000
00BFFFFFFFFFFFFFFFF500
04FFFFFFFFFFFFFFFFFD00
09FFFFFFC3016EFFFFFF30
0DFFFFFC000003FFFFFF80
0FFFFFF6000000CFFFFF90
1FFFFFF4000000AFFFFFA0
0FFFFFF6000000CFFFFFA0
0DFFFFFC100005FFFFFF70
09FFFFFFD5128FFFFFFF40
03FFFFFFFFFFFFFFFFFD00
00AFFFFFFFFFFFFFFFF500
001DFFFFFFFFFFFFFFA000
0002EFFFFFFFFFFFFB0000
00002BFFFFFFFFFF800000
0000004BFFFFFE93000000
0000000013543000000000
ENDCHAR
STARTCHAR p
ENCODING 112
SWIDTH 582 0
DWIDTH 21 0
BBX 19 28 1 -9
BITMAP
09EED9018CEDA5000000
6FFFFF8DFFFFFFB20000
8FFFFFFFFFFFFFFD2000
8FFFFFFFFFFFFFFFD100
8FFFFFFFFFFFFFFFFA00
8FFFFFFFFFFFFFFFFF30
8FFFFFFF845CFFFFFF90
8FFFFFF60000BFFFFFD0
8FFFFFD000004FFFFFF0
8FFFFFC000003FFFFFF0
8FFFFFE100006FFFFFE0
8FFFFFFB1004EFFFFFB0
8FFFFFFFEACFFFFFFF70
8FFFFFFFFFFFFFFFFE10
8FFFFFFFFFFFFFFFF600
8FFFFFFFFFFFFFFF9000
8FFFFFFFFFFFFFF90000
8FFFFF99FFFFFD500000
8FFFFF90267640000000
8FFFFF90000000000000
8FFFFF90000000000000
8FFFFF90000000000000
8FFFFF90000000000000
8FFFFF90000000000000
8FFFFF90000000000000
7FFFFF70000000000000
1DFFFD10000000000000
00232000000000000000
ENDCHAR
STARTCHAR q
ENCODING 113
SWIDTH 582 0
DWIDTH 21 0
BBX 20 28 0 -9
BITMAP
0000005ADEC7109DED90
00002CFFFFFFD9FFFFF5
0003EFFFFFFFFFFFFFF7
001DFFFFFFFFFFFFFFF8
00BFFFFFFFFFFFFFFFF8
04FFFFFFFFFFFFFFFFF8
0AFFFFFFB549FFFFFFF8
0EFFFFFB00007FFFFFF8
0FFFFFF300000EFFFFF8
1FFFFFF200000DFFFFF8
0FFFFFF600002FFFFFF8
0CFFFFFE3001BFFFFFF8
08FFFFFFFBAEFFFFFFF8
01EFFFFFFFFFFFFFFFF8
007FFFFFFFFFFFFFFFF8
000AFFFFFFFFFFFFFFF8
0000AFFFFFFFFFFFFFF8
000006DFFFFF9AFFFFF8
0000000467620AFFFFF8
0000000000000AFFFFF8
0000000000000AFFFFF8
0000000000000AFFFFF8
0000000000000AFFFFF8
0000000000000AFFFFF8
0000000000000AFFFFF8
00000000000008FFFFF6
00000000000002DFFFC1
00000000000000023200
ENDCHAR
STARTCHAR r
ENCODING 114
SWIDTH 457 0
DWIDTH 16 0
BBX 15 20 1 0
BITMAP
0000000000220000
09DEEA106DFFEA10
6FFFFF9BFFFFFFA0
8FFFFFFFFFFFFFD0
8FFFFFFFFFFFFFC0
8FFFFFFFFFFFFF70
8FFFFFFFFFFFFE10
8FFFFFFC30268200
8FFFFFE100000000
8FFFFFC000000000
8FFFFFC000000000
8FFFFFC000000000
8FFFFFC000000000
8FFFFFC000000000
8FFFFFC000000000
8FFFFFC000000000
8FFFFFC000000000
8FFFFFB000000000
6FFFFF9000000000
09DFEA1000000000
ENDCHAR
STARTCHAR s
ENCODING 115
SWIDTH 489 0
DWIDTH 18 0
BBX 16 21 1 -1
BITMAP
0000013454100000
0007CFFFFFFD8200
01CFFFFFFFFFFF70
0BFFFFFFFFFFFFC0
2FFFFFFFFFFFFF80
6FFFFFEBACFFFE10
6FFFFF400017A300
5FFFFFD630000000
2FFFFFFFFFC72000
0CFFFFFFFFFFF910
03FFFFFFFFFFFFA0
005EFFFFFFFFFFF3
00017DFFFFFFFFF8
027400369EFFFFFA
1EFFD60004FFFFFA
9FFFFFECCFFFFFF8
FFFFFFFFFFFFFFF4
EFFFFFFFFFFFFFC0
3CFFFFFFFFFFFD20
005AEFFFFFFC6100
0000034543100000
ENDCHAR
STARTCHAR t
ENCODING 116
SWIDTH 449 0
DWIDTH 16 0
BBX 16 26 0 0
BITMAP
0000046640000000
0000BFFFFA000000
0001FFFFFF100000
0002FFFFFF100000
0002FFFFFF200000
0002FFFFFF200000
0002FFFFFF200000
08DDFFFFFFCDDD80
4FFFFFFFFFFFFFF6
6FFFFFFFFFFFFFF9
7FFFFFFFFFFFFFF9
6FFFFFFFFFFFFFF8
1EFFFFFFFFFFFFE3
0256FFFFFF556520
0002FFFFFF200000
0002FFFFFF200000
0002FFFFFF200000
0002FFFFFF200000
0002FFFFFF200000
0001FFFFFF600000
0000FFFFFFFEEA10
0000CFFFFFFFFF70
00007FFFFFFFFF90
00001DFFFFFFFF90
000002CFFFFFFF60
00000005ADEFEA10
ENDCHAR
STARTCHAR u
ENCODING 117
SWIDTH 606 0
DWIDTH 22 0
BBX 20 19 1 0
BITMAP
09EFEA10000003CFFD80
6FFFFF9000000BFFFFF3
8FFFFFB000000EFFFFF5
8FFFFFC000000EFFFFF6
8FFFFFC000000EFFFFF6
8FFFFFC000000EFFFFF6
8FFFFFC000000EFFFFF6
8FFFFFC000000EFFFFF6
8FFFFFC000000EFFFFF6
8FFFFFC000000EFFFFF6
7FFFFFE000002FFFFFF6
6FFFFFF70000AFFFFFF6
2FFFFFFFA77CFFFFFFF6
0CFFFFFFFFFFFFFFFFF6
05FFFFFFFFFFFFFFFFF6
00AFFFFFFFFFFFFFFFF6
001BFFFFFFFFFEFFFFF5
00019FFFFFFE5BFFFFF3
0000038CDD9203BEED70
ENDCHAR
STARTCHAR v
ENCODING 118
SWIDTH 638 0
DWIDTH 23 0
BBX 23 21 0 -1
BITMAP
000141000000000001410000
019FFE20000000002EFF8100
1CFFFFA000000000BFFFFC00
6FFFFFF300000004FFFFFF50
5FFFFFFB0000000CFFFFFF40
0DFFFFFF4000005FFFFFFD00
05FFFFFFC00000CFFFFFF500
00BFFFFFF50005FFFFFFB000
003FFFFFFC000DFFFFFF2000
0009FFFFFF506FFFFFF80000
0001EFFFFFD1DFFFFFE10000
00006FFFFFFBFFFFFF600000
00000CFFFFFFFFFFFC000000
000004FFFFFFFFFFF3000000
000000AFFFFFFFFFA0000000
0000002EFFFFFFFE20000000
00000007FFFFFFF700000000
00000001DFFFFFD000000000
000000005FFFFF4000000000
0000000006EFE60000000000
000000000002000000000000
ENDCHAR
STARTCHAR w
ENCODING 119
SWIDTH 793 0
DWIDTH 29 0
BBX 28 21 0 -1
BITMAP
0001200000000000000000012000
02AFFD2000005DEA2000005EFD60
2EFFFF900005FFFFD10001EFFFF8
6FFFFFE1000DFFFFF60007FFFFFE
3FFFFFF6003FFFFFFC000DFFFFFD
0DFFFFFB009FFFFFFF203FFFFFF7
07FFFFFF20EFFFFFFF709FFFFFF1
01FFFFFF84FFFFFFFFD0EFFFFFA0
00AFFFFFDAFFFFFFFFF8FFFFFF30
003FFFFFFFFFFFFFFFFFFFFFFC00
000CFFFFFFFFFFFFFFFFFFFFF600
0006FFFFFFFFFFFFFFFFFFFFE100
0001EFFFFFFFFF9FFFFFFFFF9000
00009FFFFFFFFB2FFFFFFFFF3000
00003FFFFFFFF50BFFFFFFFC0000
00000CFFFFFFE106FFFFFFF60000
000005FFFFFF9001EFFFFFE00000
000000EFFFFF30009FFFFF800000
0000007FFFFB00002FFFFE100000
00000008FFB1000004DFD3000000
0000000001000000000100000000
ENDCHAR
STARTCHAR x
ENCODING 120
SWIDTH 567 0
DWIDTH 20 0
BBX 20 21 0 -1
BITMAP
00022000000000013000
008FF9000000004EFC20
08FFFFA0000004FFFFD2
4FFFFFFA00004FFFFFFA
6FFFFFFFA004FFFFFFFC
1DFFFFFFFA4EFFFFFFF6
03EFFFFFFFFFFFFFFF80
003EFFFFFFFFFFFFF800
0003EFFFFFFFFFFF8000
00003EFFFFFFFFF90000
000006FFFFFFFFC00000
00003EFFFFFFFFF90000
0003EFFFFFFFFFFF8000
003EFFFFFFFFFFFFF800
03EFFFFFFFFFFFFFFF80
1DFFFFFFFA4EFFFFFFF6
6FFFFFFFA004EFFFFFFC
3FFFFFFA00004EFFFFFA
08FFFFA0000004EFFFD1
007FF8000000004DFC20
00012000000000013000
ENDCHAR
STARTCHAR y
ENCODING 121
SWIDTH 604 0
DWIDTH 22 0
BBX 22 29 0 -9
BITMAP
0002510000000000230000
019FFE2000000005FFE810
1DFFFFB00000000DFFFFC0
6FFFFFF50000005FFFFFF2
3FFFFFFD100000CFFFFFE1
0AFFFFFF800004FFFFFF80
02FFFFFFE2000BFFFFFF20
008FFFFFFA003FFFFFFA00
001DFFFFFF409FFFFFF300
0005FFFFFFD2FFFFFFC000
0000BFFFFFFDFFFFFF5000
00002FFFFFFFFFFFFD0000
000008FFFFFFFFFFF60000
000001DFFFFFFFFFE10000
0000005FFFFFFFFF800000
0000000BFFFFFFFF200000
00000003FFFFFFFA000000
00000000BFFFFFF3000000
00000001FFFFFFB0000000
00000008FFFFFF50000000
0000001EFFFFFD00000000
0000006FFFFFF600000000
000000DFFFFFE100000000
000004FFFFFF8000000000
00000AFFFFFF1000000000
00000EFFFFF90000000000
00000BFFFFF30000000000
000001AFFFA00000000000
0000000266000000000000
ENDCHAR
STARTCHAR z
ENCODING 122
SWIDTH 586 0
DWIDTH 21 0
BBX 21 19 0 0
BITMAP
006DEFFFFFFFFFFFEC4000
01FFFFFFFFFFFFFFFFF300
04FFFFFFFFFFFFFFFFF900
04FFFFFFFFFFFFFFFFFA00
03FFFFFFFFFFFFFFFFF600
00BFFFFFFFFFFFFFFFA000
0003555559FFFFFFFA0000
000000006FFFFFFF800000
00000007FFFFFFF7000000
0000009FFFFFFF60000000
00001BFFFFFFF500000000
0001CFFFFFFE4000000000
002DFFFFFFF85555552000
02DFFFFFFFFFFFFFFFF900
0BFFFFFFFFFFFFFFFFFF10
1FFFFFFFFFFFFFFFFFFF30
0EFFFFFFFFFFFFFFFFFF20
08FFFFFFFFFFFFFFFFFF10
008DFFFFFFFFFFFFFFD500
ENDCHAR
STARTCHAR braceleft
ENCODING 123
SWIDTH 381 0
DWIDTH 14 0
BBX 14 37 0 -9
BITMAP
000000017BCB50
0000003EFFFFF1
000002EFFFFFF2
00000AFFFFFFF2
00001FFFFFFFC0
00004FFFFF6400
00005FFFFD0000
00005FFFFD0000
00005FFFFD0000
00005FFFFD0000
00005FFFFD0000
00005FFFFD0000
00005FFFFD0000
00005FFFFC0000
00008FFFFA0000
0479FFFFF60000
3FFFFFFFE10000
6FFFFFFF600000
7FFFFFFE200000
4FFFFFFFC00000
08CEFFFFF50000
0000AFFFF90000
00006FFFFB0000
00005FFFFC0000
00004FFFFD0000
00004FFFFD0000
00004FFFFD0000
00005FFFFC0000
00005FFFFC0000
00005FFFFC0000
00004FFFFE2000
00001FFFFFFE80
00000CFFFFFFF1
000004FFFFFFF2
0000007FFFFFF1
00000004BFFF90
00000000012100
ENDCHAR
STARTCHAR bar
ENCODING 124
SWIDTH 217 0
DWIDTH 8 0
BBX 6 37 1 -9
BITMAP
08CC70
5FFFF2
8FFFF5
8FFFF6
8FFFF6
8FFFF6
8FFFF6
8FFFF6
8FFFF6
8FFFF6
8FFFF6
8FFFF6
8FFFF6
8FFFF6
8FFFF6
8FFFF6
8FFFF6
8FFFF6
8FFFF6
8FFFF6
8FFFF6
8FFFF6
8FFFF6
8FFFF6
8FFFF6
8FFFF6
8FFFF6
8FFFF6
8FFFF6
8FFFF6
8FFFF6
8FFFF6
8FFFF6
8FFFF5
7FFFF4
3FFFD1
025510
ENDCHAR
STARTCHAR braceright
ENCODING 125
SWIDTH 381 0
DWIDTH 14 0
BBX 14 37 0 -9
BITMAP
08CCA500000000
5FFFFFB1000000
7FFFFFFB000000
6FFFFFFF500000
2EFFFFFFB00000
0159FFFFE00000
0003FFFFF00000
0002FFFFF00000
0002FFFFF00000
0002FFFFF00000
0003FFFFF00000
0003FFFFF00000
0003FFFFF00000
0002FFFFF00000
0000FFFFF30000
0000BFFFFE8620
00004FFFFFFFD0
00000AFFFFFFF2
000006FFFFFFF2
00003FFFFFFFE0
00009FFFFFDB60
0000EFFFF60000
0001FFFFF10000
0002FFFFF00000
0003FFFFF00000
0003FFFFF00000
0002FFFFF00000
0002FFFFF00000
0002FFFFF00000
0002FFFFF00000
0005FFFFE00000
1BFFFFFFC00000
5FFFFFFF700000
7FFFFFFD100000
6FFFFFE3000000
1CFFE920000000
00120000000000
ENDCHAR
STARTCHAR asciitilde
ENCODING 126
SWIDTH 651 0
DWIDTH 23 0
BBX 20 9 1 5
BITMAP
00000589840000068300
0005EFFFFFD3007FFF80
007FFFFFFFFE88FFFFF6
04FFFFFFFFFFFFFFFFF8
0DFFFFFFFFFFFFFFFFF2
3FFFFFFFFFFFFFFFFF70
0BFFFF618FFFFFFFF700
009FF90003BFFFFB4000
00023000000243100000
ENDCHAR
STARTCHAR exclamdown
ENCODING 161
SWIDTH 268 0
DWIDTH 10 0
BBX 8 28 1 -9
BITMAP
00355200
1CFFFF80
6FFFFFF1
8FFFFFF3
8FFFFFF3
6FFFFFF1
1DFFFF90
01465200
00000000
00000000
06BCCA30
3FFFFFC0
5FFFFFF0
6FFFFFF0
6FFFFFF0
6FFFFFF0
6FFFFFF0
6FFFFFF0
6FFFFFF0
6FFFFFF0
6FFFFFF0
6FFFFFF0
6FFFFFF0
6FFFFFF0
6FFFFFF0
4FFFFFE0
0BFFFF60
00233100
ENDCHAR
STARTCHAR cent
ENCODING 162
SWIDTH 434 0
DWIDTH 16 0
BBX 15 27 0 -3
BITMAP
0000000BFE500000
0000003FFFC00000
0000004FFFD00000
0000004FFFD00000
0000004FFFD00000
0000004FFFD00000
000007DFFFFB5000
0003DFFFFFFFFB10
003EFFFFFFFFFF90
01DFFFFFFFFFFF80
07FFFFFFFFFFFE20
0CFFFFF7228FF500
0FFFFF8000011000
1FFFFF4000000000
1FFFFF6000000000
0DFFFFD200298000
09FFFFFEABFFFB00
03FFFFFFFFFFFF70
007FFFFFFFFFFFA0
0008FFFFFFFFFF40
00004DFFFFFFC300
0000007FFFE30000
0000004FFFD00000
0000004FFFD00000
0000004FFFD00000
0000003FFFC00000
0000000AED500000
ENDCHAR
STARTCHAR sterling
ENCODING 163
SWIDTH 675 0
DWIDTH 24 0
BBX 24 27 0 0
BITMAP
000000000002566531000000
0000000028DFFFFFFFA40000
00000007EFFFFFFFFFFFB200
0000009FFFFFFFFFFFFFFE20
000007FFFFFFFFFFFFFFFFB0
00001EFFFFFFFFFFFFFFFFF0
00007FFFFFFE9778DFFFFFD0
0000CFFFFFC1000005EFFE30
0000FFFFFF20000000397100
0002FFFFFC00000000000000
0003FFFFFA00000000000000
0147FFFFFB44442000000000
3FFFFFFFFFFFFFF400000000
6FFFFFFFFFFFFFF900000000
6FFFFFFFFFFFFFF900000000
4FFFFFFFFFFFFFF600000000
04888FFFFFF8885000000000
00000EFFFFF0000000000000
00000CFFFFF1000000000000
00000EFFFFF1000000000000
00004FFFFFD0000000000000
0001DFFFFFFDDDDDDDDDDC91
0008FFFFFFFFFFFFFFFFFFF8
001FFFFFFFFFFFFFFFFFFFFB
001FFFFFFFFFFFFFFFFFFFFB
000CFFFFFFFFFFFFFFFFFFF9
0002AEFFFFFFFFFFFFFFFEB2
ENDCHAR
STARTCHAR currency
ENCODING 164
SWIDTH 677 0
DWIDTH 24 0
BBX 24 28 0 0
BITMAP
004A90000000000000049600
07FFF80000000000002FFFC1
0EFFFF300000000000CFFFF6
0CFFFFEA865444568DFFFFF3
05FFFFFFFFFFFFFFFFFFFFA0
009FFFFFFFFFFFFFFFFFFE20
000AFFFFFFFFFFFFFFFFE300
0007FFFFFFFFFFFFFFFFC000
002FFFFFFFFFEFFFFFFFF700
008FFFFFE610014BFFFFFE00
00DFFFFE200000009FFFFF40
02FFFFF7000000001FFFFF70
04FFFFF3000000000CFFFF90
05FFFFF1000000000AFFFFA0
05FFFFF1000000000AFFFFA0
04FFFFF3000000000BFFFF90
02FFFFF7000000001EFFFF80
00EFFFFE100000008FFFFF40
009FFFFFD4000029FFFFFE10
003FFFFFFFECCEFFFFFFF900
0008FFFFFFFFFFFFFFFFE100
0009FFFFFFFFFFFFFFFFD200
009FFFFFFFFFFFFFFFFFFC10
04FFFFFFFFFFFFFFFFFFFF90
0CFFFFFB865555679EFFFFF3
1FFFFF400000000001CFFFF6
09FFF90000000000003FFFC1
005B9100000000000006B700
ENDCHAR
STARTCHAR yen
ENCODING 165
SWIDTH 677 0
DWIDTH 24 0
BBX 24 27 0 0
BITMAP
000473000000000000167100
01BFFE300000000000BFFE50
1DFFFFD00000000007FFFFF5
6FFFFFF8000000002EFFFFFC
3FFFFFFF20000000BFFFFFF9
0AFFFFFFB0000005FFFFFFE2
01EFFFFFF600001EFFFFFF70
005FFFFFFE10009FFFFFFB00
000AFFFFFF9003FFFFFFE200
0001EFFFFFF40CFFFFFF6000
00005FFFFFFD8FFFFFFB0000
00000AFFFFFFFFFFFFE20000
000001EFFFFFFFFFFF600000
0000005FFFFFFFFFFB000000
00008EFFFFFFFFFFFFFC2000
0001FFFFFFFFFFFFFFFF7000
0001FFFFFFFFFFFFFFFF7000
00007DDDDFFFFFFEDDDB2000
000000000FFFFFF600000000
000000000FFFFFF600000000
00004ABBBFFFFFFDBBB80000
0001EFFFFFFFFFFFFFFF7000
0001FFFFFFFFFFFFFFFF8000
0000AFFFFFFFFFFFFFFE3000
000001222EFFFFF622100000
000000000BFFFFF200000000
0000000003BEED6000000000
ENDCHAR
STARTCHAR brokenbar
ENCODING 166
SWIDTH 215 0
DWIDTH 8 0
BBX 6 36 1 -8
BITMAP
08CC60
5FFFF2
8FFFF4
8FFFF4
8FFFF4
8FFFF4
8FFFF4
8FFFF4
8FFFF4
8FFFF4
8FFFF4
8FFFF4
8FFFF4
8FFFF4
8FFFF4
4FFFE1
047720
000000
000000
025510
3FFFD0
8FFFF4
8FFFF4
8FFFF4
8FFFF4
8FFFF4
8FFFF4
8FFFF4
8FFFF4
8FFFF4
8FFFF4
8FFFF4
8FFFF4
8FFFF4
6FFFF2
1CFF90
ENDCHAR
STARTCHAR section
ENCODING 167
SWIDTH 560 0
DWIDTH 20 0
BBX 20 37 0 -9
BITMAP
00000026899851000000
00002AFFFFFFFFB40000
0004EFFFFFFFFFFF8000
002EFFFFFFFFFFFFF700
00BFFFFFFFFFFFFFFB00
03FFFFFFFFFFFFFFF500
07FFFFFE5126EFFFB000
09FFFFF800002AEA1000
09FFFFF8000000000000
07FFFFFF600000000000
04FFFFFFFEA630000000
00CFFFFFFFFFFE930000
003FFFFFFFFFFFFFB200
005FFFFFFFFFFFFFFC10
00DFFFFFFFFFFFFFFF80
04FFFFFFFDFFFFFFFFE0
08FFFFFD2027DFFFFFF2
09FFFFF700001EFFFFF3
08FFFFF900000EFFFFF4
06FFFFFF82003FFFFFF2
02FFFFFFFFDAEFFFFFE0
00AFFFFFFFFFFFFFFF80
002DFFFFFFFFFFFFFD10
0002AFFFFFFFFFFFFE20
000004AFFFFFFFFFFF90
0000000159DFFFFFFFE0
000000000003BFFFFFF3
003BC50000000EFFFFF4
03EFFF8000000EFFFFF3
0DFFFFF900007FFFFFF1
1FFFFFFFE99CFFFFFFC0
0AFFFFFFFFFFFFFFFF60
01EFFFFFFFFFFFFFFC00
003DFFFFFFFFFFFFC200
0001AFFFFFFFFFF91000
0000039DFFFFC8200000
00000000122000000000
ENDCHAR
STARTCHAR dieresis
ENCODING 168
SWIDTH 489 0
DWIDTH 18 0
BBX 17 7 1 21
BITMAP
06BCC9100018CCB700
4FFFFF90009FFFFF50
8FFFFFD000CFFFFF90
8FFFFFD000DFFFFF90
8FFFFFC000CFFFFF80
3FFFFF70007FFFFF30
037885000005887300
ENDCHAR
STARTCHAR copyright
ENCODING 169
SWIDTH 711 0
DWIDTH 26 0
BBX 25 24 0 3
BITMAP
0000000259BCDDCB8510000000
000003AFFFFFFFFFFFE9100000
00007FFFFFFFFFFFFFFFD30000
0008FFFFC85433469DFFFE2000
005FFFC300002100006EFFD000
00DFFC1003BFFFEA3003FFF600
05FFF2008FFFFFFFF5008FFD00
09FFA007FFFFFFFFFB002FFF20
0CFF603FFFFEBAEFF6000CFF60
0EFF30AFFFB10017600009FF80
0FFF20EFFF100000000008FF90
1FFF10FFFC000000000007FFA0
1FFF10EFFD000000000007FFA0
0FFF20CFFF300000000008FF90
0DFF408FFFD4004CB0000AFF70
0AFF701EFFFFEEFFF7000DFF40
06FFC004FFFFFFFFFB003FFF10
02FFF4003DFFFFFFD300AFFB00
009FFE20005ACDB61007FFF400
002EFFE72000000004BFFFA000
0004FFFFFDA9889BEFFFFC1000
00004DFFFFFFFFFFFFFFA10000
0000017CFFFFFFFFFFB3000000
00000000146788764100000000
ENDCHAR
STARTCHAR ordfeminine
ENCODING 170
SWIDTH 445 0
DWIDTH 16 0
BBX 15 14 0 12
BITMAP
000016995029A710
0004EFFFFCDFFF70
004FFFFFFFFFFF80
01EFFFFFFFFFFF90
08FFFFFDFFFFFF90
0DFFFE301BFFFF90
1FFFF80003FFFF90
1FFFF70003FFFF90
0EFFFD200AFFFF90
0AFFFFEBDFFFFF90
03FFFFFFFFFFFF90
007FFFFFFFFFFF90
0007FFFFFEEFFF80
000039CDA24CDA20
ENDCHAR
STARTCHAR guillemotleft
ENCODING 171
SWIDTH 668 0
DWIDTH 24 0
BBX 24 19 0 0
BITMAP
000000004B8000000007B600
00000006FFFB0000009FFF80
0000006FFFFF70000AFFFFF4
000006FFFFFFA000AFFFFFF7
00006FFFFFFE300AFFFFFFC1
0006FFFFFFE300AFFFFFFC10
007FFFFFFE300AFFFFFFC100
06FFFFFFE300AFFFFFFC1000
2FFFFFFE3006FFFFFFC10000
6FFFFFF5000AFFFFFF200000
3FFFFFFD2007FFFFFFB00000
08FFFFFFD200BFFFFFFB0000
009FFFFFFD201BFFFFFFB000
0008FFFFFFD201BFFFFFFB00
00008FFFFFFD101BFFFFFFB0
000008FFFFFF9001BFFFFFF5
0000008FFFFF80001BFFFFF5
00000008FFFC100001BFFF90
000000006DA100000009D700
ENDCHAR
STARTCHAR logicalnot
ENCODING 172
SWIDTH 526 0
DWIDTH 19 0
BBX 19 12 0 4
BITMAP
07CDDDDDDDDDDDDDC700
4FFFFFFFFFFFFFFFFF40
6FFFFFFFFFFFFFFFFF60
7FFFFFFFFFFFFFFFFF60
5FFFFFFFFFFFFFFFFF60
1EFFFFFFFFFFFFFFFF60
0155555555555AFFFF60
00000000000007FFFF60
00000000000007FFFF60
00000000000006FFFF50
00000000000003FFFF20
00000000000000477300
ENDCHAR
STARTCHAR registered
ENCODING 174
SWIDTH 711 0
DWIDTH 26 0
BBX 25 24 0 3
BITMAP
0000000259BCDDCB8510000000
000003AFFFFFFFFFFFE9100000
00007FFFFFFFFFFFFFFFD30000
0008FFFFC85433469DFFFE2000
005FFFC303444310006EFFD000
00DFFC10BFFFFFFC3003FFF600
05FFF200EFFFFFFFF5008FFD00
09FFA000EFFFFFFFFE102FFF20
0CFF6000EFFD67DFFF500CFF60
0EFF3000EFFB004FFF7009FF80
0FFF2000EFFB007FFF6008FF90
1FFF1000EFFFDEFFFF3007FFA0
1FFF1000EFFFFFFFFA0007FFA0
0FFF2000EFFFFFFFF50008FF90
0DFF4000EFFECDFFFB000AFF70
0AFF7000EFFB00DFFF200EFF40
06FFC000EFFB006FFF804FFF10
02FFF400DFF9001EFF60CFFB00
009FFE20165100038409FFF400
002EFFE72000000005CFFFA000
0004FFFFFDA9889CEFFFFC1000
00004DFFFFFFFFFFFFFFA10000
0000017CFFFFFFFFFFB3000000
00000000146788764100000000
ENDCHAR
STARTCHAR degree
ENCODING 176
SWIDTH 407 0
DWIDTH 15 0
BBX 14 14 0 14
BITMAP
00001589830000
0004DFFFFFB200
006FFFFFFFFE20
03FFFFFFFFFFC0
0AFFFFB9DFFFF5
0EFFF8000CFFF9
1FFFF20007FFFB
1FFFF20008FFFA
0DFFFB103EFFF8
08FFFFFDFFFFF3
01EFFFFFFFFFA0
003EFFFFFFFB10
00019FFFFE7000
00000145300000
ENDCHAR
STARTCHAR plusminus
ENCODING 177
SWIDTH 505 0
DWIDTH 18 0
BBX 18 20 0 0
BITMAP
000000058850000000
0000005FFFF8000000
0000009FFFFB000000
0000009FFFFC000000
016888CFFFFE888720
0CFFFFFFFFFFFFFFE1
1FFFFFFFFFFFFFFFF4
1FFFFFFFFFFFFFFFF4
0EFFFFFFFFFFFFFFF2
05CDDDEFFFFFDDDC70
0000009FFFFC000000
0000009FFFFC000000
0000006FFFF8000000
000000069971000000
000000000000000000
01AEEEEEEEEEEEEB20
07FFFFFFFFFFFFFFA0
09FFFFFFFFFFFFFFB0
08FFFFFFFFFFFFFFA0
01BEFFFFFFFFFFED40
ENDCHAR
STARTCHAR twosuperior
ENCODING 178
SWIDTH 455 0
DWIDTH 16 0
BBX 16 20 0 7
BITMAP
000029DFFD920000
0006FFFFFFFF6000
006FFFFFFFFFF700
02FFFFFFFFFFFF30
09FFFFFFFFFFFFA0
0DFFFFD54CFFFFE0
1FFFFF5003FFFFF1
1FFFFF3005FFFFF2
0DFFFE000CFFFFE0
039A9301BFFFFFA0
0000005EFFFFFF30
00004CFFFFFFF600
0019FFFFFFFF6000
01BFFFFFFFE50000
08FFFFFFFFFFFFE4
0EFFFFFFFFFFFFFB
0FFFFFFFFFFFFFFC
0DFFFFFFFFFFFFFC
03DFFFFFFFFFFFF7
0002333333333320
ENDCHAR
STARTCHAR threesuperior
ENCODING 179
SWIDTH 457 0
DWIDTH 16 0
BBX 16 20 0 7
BITMAP
000018CFFEB50000
0004EFFFFFFFC100
003EFFFFFFFFFD10
00DFFFFFFFFFFF80
04FFFFFFDFFFFFE0
02FFFFB007FFFFF2
007FFF3002FFFFF1
000263023AFFFFD0
0000008FFFFFFF40
000000DFFFFFFC10
000000BFFFFFFFB0
01576139ACFFFFF4
0CFFFD0000CFFFF7
1FFFFF5000CFFFF8
0EFFFFE649FFFFF5
08FFFFFFFFFFFFE1
02EFFFFFFFFFFF70
003EFFFFFFFFF900
0002BFFFFFFD6000
0000025776300000
ENDCHAR
STARTCHAR acute
ENCODING 180
SWIDTH 605 0
DWIDTH 22 0
BBX 11 8 5 20
BITMAP
00000037BA00
00048DFFFF60
19EFFFFFFFC0
7FFFFFFFFFF0
7FFFFFFFFFC0
3FFFFFFFB610
0CFFEA510000
017400000000
ENDCHAR
STARTCHAR mu
ENCODING 181
SWIDTH 601 0
DWIDTH 22 0
BBX 20 27 1 -8
BITMAP
09DEEA10000004DFFD50
6FFFFF7000000DFFFFE1
8FFFFFA000001FFFFFF3
8FFFFFB000001FFFFFF3
8FFFFFB000001FFFFFF3
8FFFFFB000001FFFFFF3
8FFFFFB000001FFFFFF3
8FFFFFB000001FFFFFF3
8FFFFFB000001FFFFFF3
8FFFFFB000001FFFFFF3
8FFFFFD000004FFFFFF3
8FFFFFF60001CFFFFFF3
8FFFFFFFB89EFFFFFFF3
8FFFFFFFFFFFFFFFFFF3
8FFFFFFFFFFFFFFFFFF3
8FFFFFFFFFFFFFFFFFF3
8FFFFFFFFFFFEFFFFFF3
8FFFFFFFFFFE4CFFFFD0
8FFFFFB4AB92029BB930
8FFFFFB0000000000000
8FFFFFB0000000000000
8FFFFFB0000000000000
8FFFFFB0000000000000
8FFFFFB0000000000000
8FFFFFA0000000000000
5FFFFF70000000000000
08DED910000000000000
ENDCHAR
STARTCHAR paragraph
ENCODING 182
SWIDTH 614 0
DWIDTH 22 0
BBX 19 32 1 -9
BITMAP
00000011111111111000
017CEFFFFFFFFFFFFE60
0CFFFFFFFFFFFFFFFFD0
7FFFFFFFFFFFFFFFFFF0
BFFFFFFFFFFB88FFFFF0
DFFFFFFFFFF600EFFFF0
EFFFFFFFFFF600EFFFF0
EFFFFFFFFFF600EFFFF0
DFFFFFFFFFF600EFFFF0
BFFFFFFFFFF600EFFFF0
7FFFFFFFFFF600EFFFF0
1EFFFFFFFFF600EFFFF0
02CFFFFFFFF600EFFFF0
000257BFFFF600EFFFF0
0000008FFFF600EFFFF0
0000008FFFF600EFFFF0
0000008FFFF600EFFFF0
0000008FFFF600EFFFF0
0000008FFFF600EFFFF0
0000008FFFF600EFFFF0
0000008FFFF600EFFFF0
0000008FFFF600EFFFF0
0000008FFFF600EFFFF0
0000008FFFF600EFFFF0
0000008FFFF600EFFFF0
0000008FFFF600EFFFF0
0000008FFFF600EFFFF0
0000008FFFF600EFFFF0
0000007FFFF600EFFFF0
0000006FFFF500CFFFE0
0000002FFFE1008FFF80
00000002551000035400
ENDCHAR
STARTCHAR periodcentered
ENCODING 183
SWIDTH 237 0
DWIDTH 9 0
BBX 8 8 0 7
BITMAP
00467510
09FFFFE3
0FFFFFF8
1FFFFFF9
1FFFFFF9
0EFFFFF7
06FFFFD1
00134300
ENDCHAR
STARTCHAR cedilla
ENCODING 184
SWIDTH 559 0
DWIDTH 20 0
BBX 8 9 6 -7
BITMAP
00010000
19EFD600
8FFFFF80
5FFFFFF2
0662EFF5
0885EFF5
7FFFFFF1
7FFFFF60
06CDB300
ENDCHAR
STARTCHAR onesuperior
ENCODING 185
SWIDTH 321 0
DWIDTH 12 0
BBX 11 20 0 7
BITMAP
0000018CA300
00001CFFFE00
0002DFFFFF10
003EFFFFFF20
04EFFFFFFF20
2FFFFFFFFF20
6FFFFFFFFF20
2FFFFFFFFF20
05EFDFFFFF20
00133FFFFF20
00003FFFFF20
00003FFFFF20
00003FFFFF20
00003FFFFF20
00003FFFFF20
00003FFFFF20
00003FFFFF20
00002FFFFF10
00000BFFFA00
000000232000
ENDCHAR
STARTCHAR ordmasculine
ENCODING 186
SWIDTH 439 0
DWIDTH 16 0
BBX 15 15 0 11
BITMAP
0000015775100000
00019FFFFFE80000
002DFFFFFFFFB100
00CFFFFFFFFFFA00
07FFFFFFFFFFFF40
0CFFFF7118FFFF90
0FFFFA0000CFFFC0
1FFFF70000AFFFD0
0FFFFA0000DFFFC0
0CFFFF823AFFFF90
06FFFFFFFFFFFF40
00BFFFFFFFFFFA00
001BFFFFFFFFA000
00007EFFFFD60000
0000003553000000
ENDCHAR
STARTCHAR guillemotright
ENCODING 187
SWIDTH 669 0
DWIDTH 24 0
BBX 24 19 0 0
BITMAP
005B7000000007B500000000
07FFFA000000AFFF70000000
3FFFFFA00007FFFFF7000000
6FFFFFFA0009FFFFFF700000
1CFFFFFFA002EFFFFFF70000
01CFFFFFFA003EFFFFFF7000
001CFFFFFFA002EFFFFFF700
0001CFFFFFFA002EFFFFFF70
00001BFFFFFF7002DFFFFFF3
000001EFFFFFB0003FFFFFF8
00000AFFFFFF8001CFFFFFF4
0000AFFFFFFC101CFFFFFF90
000AFFFFFFC101CFFFFFF900
00AFFFFFFC101CFFFFFF9000
0AFFFFFFC101CFFFFFF90000
5FFFFFFC1008FFFFFF900000
4FFFFFC10007FFFFF9000000
09FFFB100000BFFF90000000
007D9000000019D700000000
ENDCHAR
STARTCHAR onequarter
ENCODING 188
SWIDTH 786 0
DWIDTH 28 0
BBX 26 30 1 -1
BITMAP
00000000000000000020000000
000006950000000008FC200000
0000AFFF300000002FFF600000
001BFFFF500000009FFD100000
02CFFFFF50000002FFF6000000
0DFFFFFF5000000AFFD0000000
2FFFFFFF5000003FFF50000000
0AFFFFFF500000BFFC00000000
0066CFFF500004FFF400000000
0000CFFF50000CFFB000000000
0000CFFF50005FFF3000000000
0000CFFF5000CFFB0000000000
0000CFFF5006FFF30000000000
0000CFFF500DFFA01200001100
0000CFFF506FFF21DFE50AFFC0
0000AFFF31EFF905FFFC0FFFF2
0000156307FFE109FFFA0FFFF2
000000001EFF800DFFF60FFFF2
000000008FFE101FFFF30FFFF2
00000002EFF7005FFFE00FFFF2
00000009FFE1009FFFB33FFFF2
0000002FFF6000CFFFFFFFFFF2
000000AFFD0000EFFFFFFFFFF2
000003FFF50000EFFFFFFFFFF2
00000BFFC000005BCCCCCFFFF2
00004FFF4000000000000FFFF2
0000CFFC0000000000000FFFF2
0004FFF40000000000000FFFF2
000AFFB000000000000007DD90
0003CE20000000000000000000
ENDCHAR
STARTCHAR onehalf
ENCODING 189
SWIDTH 804 0
DWIDTH 29 0
BBX 26 30 1 -1
BITMAP
00000000000000000020000000
000006950000000008FC200000
0000AFFF300000002FFF600000
001BFFFF500000009FFD100000
02CFFFFF50000002FFF6000000
0DFFFFFF5000000AFFD0000000
2FFFFFFF5000003FFF50000000
0AFFFFFF500000BFFC00000000
0066CFFF500004FFF400000000
0000CFFF50000CFFB000000000
0000CFFF50005FFF3000000000
0000CFFF5000CFFB0000000000
0000CFFF5006FFF30000000000
0000CFFF500DFFA00024300000
0000CFFF506FFF205DFFFE7000
0000AFFF31EFF907FFFFFFFA00
0000156307FFE13FFFFFFFFF60
000000001EFF80AFFFFEFFFFD0
000000008FFE10EFFF804FFFF2
00000002EFF700FFFF201FFFF3
00000009FFE100DFFE008FFFF1
0000002FFF6000166108FFFFB0
000000AFFD00000005DFFFFF30
000003FFF5000002BFFFFFE400
00000BFFC000002EFFFFFE5310
00004FFF400000BFFFFFFFFFF7
0000CFFC000000FFFFFFFFFFFB
0004FFF4000000DFFFFFFFFFFB
000AFFB00000004CEFFFFFFFE5
0003CE20000000000000000000
ENDCHAR
STARTCHAR threequarters
ENCODING 190
SWIDTH 842 0
DWIDTH 30 0
BBX 28 30 1 -1
BITMAP
0000000000000000000020000000
00004899510000000007FC200000
001BFFFFFE400000002EFF600000
00CFFFFFFFE30000009FFE100000
06FFFFFFFFFB000002FFF6000000
07FFFA49FFFF00000AFFD0000000
01CFE102FFFF00003FFF50000000
0003136BFFFB0000BFFC00000000
00000EFFFFF20004FFF500000000
00000FFFFFF9000BFFC000000000
0488248AFFFF204FFF4000000000
2FFFC000CFFF50CFFB0000000000
2FFFF603EFFF55FFF30000000000
0CFFFFFFFFFE1DFFA01200001100
04FFFFFFFFF76FFF21DFE50AFFC0
005EFFFFFF81DFF905FFFC0FFFF2
00017BCB8207FFF209FFFA0FFFF2
00000000001EFF800CFFF70FFFF2
00000000008FFE101FFFF30FFFF2
0000000001EFF7005FFFE00FFFF2
0000000009FFE1009FFFB33FFFF2
000000002FFF6000CFFFFFFFFFF2
00000000AFFD0000FFFFFFFFFFF2
00000003FFF60000EFFFFFFFFFF2
0000000AFFC000005BCCCCCFFFF2
0000003FFF5000000000000FFFF2
000000BFFC0000000000000FFFF2
000004FFF40000000000000EFFF2
00000AFFB000000000000007DD90
000003CE30000000000000000000
ENDCHAR
STARTCHAR questiondown
ENCODING 191
SWIDTH 511 0
DWIDTH 18 0
BBX 18 28 0 -8
BITMAP
000000000100000000
0000003CFFFA100000
000000CFFFFF700000
000000FFFFFFA00000
000000FFFFFFB00000
000000DFFFFFA00000
0000008FFFFF500000
000000069A84000000
000000000000000000
000000000000000000
000000068983000000
0000007FFFFE000000
000000BFFFFF200000
00006EFFFFFF200000
000AFFFFFFFE000000
00AFFFFFFFF6000000
04FFFFFFFD60000000
0AFFFFFD5000000000
0EFFFFD10000044100
1FFFFF9000007FFE81
1FFFFFA00000EFFFFA
0EFFFFF40008FFFFFC
09FFFFFFDCEFFFFFF8
03FFFFFFFFFFFFFFF2
008FFFFFFFFFFFFF70
000AFFFFFFFFFFF900
00008FFFFFFFFE7000
0000028CEEEB710000
ENDCHAR
STARTCHAR Agrave
ENCODING 192
SWIDTH 765 0
DWIDTH 28 0
BBX 27 36 0 -1
BITMAP
0000000028610000000000000000
00000000CFFFB720000000000000
00000003FFFFFFFD820000000000
00000007FFFFFFFFFE0000000000
00000006FFFFFFFFFF1000000000
000000007CFFFFFFFD0000000000
000000000027BFFFF70000000000
000000000000016A900000000000
0000000000001540000000000000
000000000006FFFC100000000000
00000000002FFFFFA00000000000
0000000000AFFFFFF20000000000
0000000002FFFFFFFA0000000000
0000000009FFFFFFFF2000000000
000000002FFFFFFFFF9000000000
000000008FFFFFFFFFF200000000
00000001EFFFFFFFFFF900000000
00000008FFFFFFFFFFFF10000000
0000001EFFFFFFFFFFFF80000000
0000007FFFFFFAFFFFFFE1000000
000001EFFFFFF29FFFFFF8000000
000007FFFFFF902FFFFFFE100000
00001EFFFFFF2009FFFFFF700000
00006FFFFFFA0002FFFFFFE10000
0000DFFFFFFEEEEEFFFFFFF70000
0006FFFFFFFFFFFFFFFFFFFE0000
000DFFFFFFFFFFFFFFFFFFFF6000
005FFFFFFFFFFFFFFFFFFFFFD000
00DFFFFFFFFFFFFFFFFFFFFFF600
05FFFFFFC6666666667FFFFFFD00
0CFFFFFF40000000000BFFFFFF50
3FFFFFFB000000000003FFFFFFC0
6FFFFFF4000000000000BFFFFFE0
1DFFFFC00000000000004FFFFF80
01AFFE300000000000000AFFE600
0001420000000000000000440000
ENDCHAR
STARTCHAR Aacute
ENCODING 193
SWIDTH 765 0
DWIDTH 28 0
BBX 27 36 0 -1
BITMAP
0000000000000015AEE200000000
0000000000016BFFFFFA00000000
0000000001AFFFFFFFFE00000000
0000000006FFFFFFFFFF20000000
0000000005FFFFFFFFFB00000000
0000000001EFFFFFD83000000000
00000000008FFC73000000000000
0000000000042000000000000000
0000000000001540000000000000
000000000006FFFC100000000000
00000000002FFFFFA00000000000
0000000000AFFFFFF20000000000
0000000002FFFFFFFA0000000000
0000000009FFFFFFFF2000000000
000000002FFFFFFFFF9000000000
000000008FFFFFFFFFF200000000
00000001EFFFFFFFFFF900000000
00000008FFFFFFFFFFFF10000000
0000001EFFFFFFFFFFFF80000000
0000007FFFFFFAFFFFFFE1000000
000001EFFFFFF29FFFFFF8000000
000007FFFFFF902FFFFFFE100000
00001EFFFFFF2009FFFFFF700000
00006FFFFFFA0002FFFFFFE10000
0000DFFFFFFEEEEEFFFFFFF70000
0006FFFFFFFFFFFFFFFFFFFE0000
000DFFFFFFFFFFFFFFFFFFFF6000
005FFFFFFFFFFFFFFFFFFFFFD000
00DFFFFFFFFFFFFFFFFFFFFFF600
05FFFFFFC6666666667FFFFFFD00
0CFFFFFF40000000000BFFFFFF50
3FFFFFFB000000000003FFFFFFC0
6FFFFFF4000000000000BFFFFFE0
1DFFFFC00000000000004FFFFF80
01AFFE300000000000000AFFE600
0001420000000000000000440000
ENDCHAR
STARTCHAR Acircumflex
ENCODING 194
SWIDTH 765 0
DWIDTH 28 0
BBX 27 36 0 -1
BITMAP
000000000016BFE9400000000000
000000016BFFFFFFFE9400000000
0000002EFFFFFFFFFFFF90000000
0000005FFFFFFFFFFFFFE0000000
0000002FFFFFFFFFFFFFB0000000
00000009FFFF935CFFFF40000000
000000008A71000039C500000000
0000000000000000000000000000
0000000000001540000000000000
000000000006FFFC100000000000
00000000002FFFFFA00000000000
0000000000AFFFFFF20000000000
0000000002FFFFFFFA0000000000
0000000009FFFFFFFF2000000000
000000002FFFFFFFFF9000000000
000000008FFFFFFFFFF200000000
00000001EFFFFFFFFFF900000000
00000008FFFFFFFFFFFF10000000
0000001EFFFFFFFFFFFF80000000
0000007FFFFFFAFFFFFFE1000000
000001EFFFFFF29FFFFFF8000000
000007FFFFFF902FFFFFFE100000
00001EFFFFFF2009FFFFFF700000
00006FFFFFFA0002FFFFFFE10000
0000DFFFFFFEEEEEFFFFFFF70000
0006FFFFFFFFFFFFFFFFFFFE0000
000DFFFFFFFFFFFFFFFFFFFF6000
005FFFFFFFFFFFFFFFFFFFFFD000
00DFFFFFFFFFFFFFFFFFFFFFF600
05FFFFFFC6666666667FFFFFFD00
0CFFFFFF40000000000BFFFFFF50
3FFFFFFB000000000003FFFFFFC0
6FFFFFF4000000000000BFFFFFE0
1DFFFFC00000000000004FFFFF80
01AFFE300000000000000AFFE600
0001420000000000000000440000
ENDCHAR
STARTCHAR Atilde
ENCODING 195
SWIDTH 765 0
DWIDTH 28 0
BBX 27 36 0 -1
BITMAP
0000000018DFE92009F800000000
00000001CFFFFFE68FFFA0000000
0000000BFFFFFFFFFFFFD0000000
0000004FFFFFFFFFFFFF70000000
0000005FFFFAEFFFFFFC00000000
00000008FF702CFFFFA100000000
0000000045000046630000000000
0000000000000000000000000000
0000000000001540000000000000
000000000006FFFC100000000000
00000000002FFFFFA00000000000
0000000000AFFFFFF20000000000
0000000002FFFFFFFA0000000000
0000000009FFFFFFFF2000000000
000000002FFFFFFFFF9000000000
000000008FFFFFFFFFF200000000
00000001EFFFFFFFFFF900000000
00000008FFFFFFFFFFFF10000000
0000001EFFFFFFFFFFFF80000000
0000007FFFFFFAFFFFFFE1000000
000001EFFFFFF29FFFFFF8000000
000007FFFFFF902FFFFFFE100000
00001EFFFFFF2009FFFFFF700000
00006FFFFFFA0002FFFFFFE10000
0000DFFFFFFEEEEEFFFFFFF70000
0006FFFFFFFFFFFFFFFFFFFE0000
000DFFFFFFFFFFFFFFFFFFFF6000
005FFFFFFFFFFFFFFFFFFFFFD000
00DFFFFFFFFFFFFFFFFFFFFFF600
05FFFFFFC6666666667FFFFFFD00
0CFFFFFF40000000000BFFFFFF50
3FFFFFFB000000000003FFFFFFC0
6FFFFFF4000000000000BFFFFFE0
1DFFFFC00000000000004FFFFF80
01AFFE300000000000000AFFE600
0001420000000000000000440000
ENDCHAR
STARTCHAR Adieresis
ENCODING 196
SWIDTH 765 0
DWIDTH 28 0
BBX 27 36 0 -1
BITMAP
0000005DFFD600009EFFC3000000
000001EFFFFF1004FFFFFB000000
000002FFFFFF3007FFFFFE000000
000003FFFFFF3007FFFFFE000000
000002FFFFFF2006FFFFFD000000
000000AFFFFB0001DFFFF7000000
0000000355400000145520000000
0000000000000000000000000000
0000000000001540000000000000
000000000006FFFC100000000000
00000000002FFFFFA00000000000
0000000000AFFFFFF20000000000
0000000002FFFFFFFA0000000000
0000000009FFFFFFFF2000000000
000000002FFFFFFFFF9000000000
000000008FFFFFFFFFF200000000
00000001EFFFFFFFFFF900000000
00000008FFFFFFFFFFFF10000000
0000001EFFFFFFFFFFFF80000000
0000007FFFFFFAFFFFFFE1000000
000001EFFFFFF29FFFFFF8000000
000007FFFFFF902FFFFFFE100000
00001EFFFFFF2009FFFFFF700000
00006FFFFFFA0002FFFFFFE10000
0000DFFFFFFEEEEEFFFFFFF70000
0006FFFFFFFFFFFFFFFFFFFE0000
000DFFFFFFFFFFFFFFFFFFFF6000
005FFFFFFFFFFFFFFFFFFFFFD000
00DFFFFFFFFFFFFFFFFFFFFFF600
05FFFFFFC6666666667FFFFFFD00
0CFFFFFF40000000000BFFFFFF50
3FFFFFFB000000000003FFFFFFC0
6FFFFFF4000000000000BFFFFFE0
1DFFFFC00000000000004FFFFF80
01AFFE300000000000000AFFE600
0001420000000000000000440000
ENDCHAR
STARTCHAR Aring
ENCODING 197
SWIDTH 765 0
DWIDTH 28 0
BBX 27 35 0 -1
BITMAP
0000000000000100000000000000
000000000007DFFB300000000000
0000000000AFFFFFF40000000000
0000000006FFC68EFD0000000000
000000000BFD0005FF4000000000
000000000DF90001FF5000000000
000000000CFC0004FF4000000000
0000000007FFA56EFE1000000000
0000000000CFFFFFF50000000000
00000000003FFFFFB00000000000
00000000009FFFFFF20000000000
0000000002FFFFFFFA0000000000
0000000009FFFFFFFF2000000000
000000001FFFFFFFFF9000000000
000000008FFFFFFFFFF200000000
00000001EFFFFFFFFFF900000000
00000008FFFFFFFFFFFF10000000
0000001EFFFFFFFFFFFF80000000
0000007FFFFFFAFFFFFFE1000000
000001EFFFFFF29FFFFFF8000000
000007FFFFFF902FFFFFFE100000
00000EFFFFFF2009FFFFFF700000
00006FFFFFFA0002FFFFFFE10000
0000DFFFFFFEEEEEFFFFFFF70000
0006FFFFFFFFFFFFFFFFFFFE0000
000DFFFFFFFFFFFFFFFFFFFF6000
005FFFFFFFFFFFFFFFFFFFFFD000
00CFFFFFFFFFFFFFFFFFFFFFF600
05FFFFFFC6666666667FFFFFFD00
0CFFFFFF40000000000BFFFFFF50
4FFFFFFB000000000003FFFFFFC0
6FFFFFF4000000000000BFFFFFE0
1DFFFFC00000000000004FFFFF80
01AFFE300000000000000AFFE600
0001420000000000000000440000
ENDCHAR
STARTCHAR AE
ENCODING 198
SWIDTH 1148 0
DWIDTH 41 0
BBX 41 28 0 -1
BITMAP
000000000000000000003666666666666666665100
00000000000000000009FFFFFFFFFFFFFFFFFFFD10
0000000000000000008FFFFFFFFFFFFFFFFFFFFF50
000000000000000007FFFFFFFFFFFFFFFFFFFFFF60
00000000000000006FFFFFFFFFFFFFFFFFFFFFFF60
0000000000000004FFFFFFFFFFFFFFFFFFFFFFFF30
000000000000003EFFFFFFFFFFFEEEEEEEEEEED700
00000000000002EFFFFFFFFFFF4000000000000000
0000000000002DFFFFFFFFFFFF4000000000000000
000000000001CFFFFFFFFFFFFF4000000000000000
00000000000BFFFFFFFDFFFFFF9666666651000000
0000000000AFFFFFFFC3FFFFFFFFFFFFFFFD100000
0000000009FFFFFFFD22FFFFFFFFFFFFFFFF500000
000000008FFFFFFFE202FFFFFFFFFFFFFFFF700000
00000006FFFFFFFE3002FFFFFFFFFFFFFFFF600000
0000005FFFFFFFF40002FFFFFFFFFFFFFFFF400000
000004FFFFFFFFDAAAABFFFFFFFEEEEEEED7000000
00003EFFFFFFFFFFFFFFFFFFFF4000000000000000
0002EFFFFFFFFFFFFFFFFFFFFF4000000000000000
001DFFFFFFFFFFFFFFFFFFFFFF4000000000000000
01CFFFFFFFFFFFFFFFFFFFFFFF9666666666665100
0BFFFFFFFCAAAAAAAAAAFFFFFFFFFFFFFFFFFFFD00
8FFFFFFFC10000000002FFFFFFFFFFFFFFFFFFFF40
EFFFFFFD200000000002FFFFFFFFFFFFFFFFFFFF60
CFFFFFE2000000000000EFFFFFFFFFFFFFFFFFFF60
3FFFFE300000000000008FFFFFFFFFFFFFFFFFFF20
05EFE40000000000000007DFFFFFFFFFFFFFFED700
002410000000000000000000000000000000000000
ENDCHAR
STARTCHAR Ccedilla
ENCODING 199
SWIDTH 679 0
DWIDTH 24 0
BBX 24 34 0 -7
BITMAP
0000000000158AAA85100000
000000003AFFFFFFFFFA3000
0000002BFFFFFFFFFFFFFA10
000005EFFFFFFFFFFFFFFFD1
00007FFFFFFFFFFFFFFFFFF7
0005FFFFFFFFFFFFFFFFFFF6
002EFFFFFFFFFCBCEFFFFFD1
00AFFFFFFFD5000005EFFE30
02FFFFFFF90000000017A300
07FFFFFFA000000000000000
0BFFFFFE1000000000000000
0EFFFFFA0000000000000000
0FFFFFF60000000000000000
1FFFFFF40000000000000000
0FFFFFF50000000000000000
0EFFFFF70000000000000000
0CFFFFFC0000000000000000
08FFFFFF4000000000000000
04FFFFFFD100000000001000
00DFFFFFFD300000005DF800
005FFFFFFFFB52125BFFFF70
000BFFFFFFFFFFFFFFFFFFE1
0001DFFFFFFFFFFFFFFFFFF6
00002CFFFFFFFFFFFFFFFFF5
000001AFFFFFFFFFFFFFFF90
00000004CFFFFFFFFFFFC400
00000000049EFFFFFEA50000
00000000000AFFFFD1000000
00000000000BFFFFF8000000
000000000002A78FFD000000
000000000000746FFD000000
000000000009FFFFFA000000
00000000000BFFFFE2000000
0000000000019EE920000000
ENDCHAR
STARTCHAR Egrave
ENCODING 200
SWIDTH 638 0
DWIDTH 23 0
BBX 22 35 1 0
BITMAP
0000000762000000000000
0000008FFFD83000000000
000000EFFFFFFE93000000
000003FFFFFFFFFF300000
000002FFFFFFFFFF500000
0000005BFFFFFFFF200000
0000000015AEFFFB000000
00000000000059A2000000
0146666666666666666300
1DFFFFFFFFFFFFFFFFFF80
7FFFFFFFFFFFFFFFFFFFE0
8FFFFFFFFFFFFFFFFFFFF1
8FFFFFFFFFFFFFFFFFFFF0
8FFFFFFFFFFFFFFFFFFFC0
8FFFFFFFFFFFFFFFFFEC30
8FFFFFC000000000000000
8FFFFFC000000000000000
8FFFFFC000000000000000
8FFFFFD666666653000000
8FFFFFFFFFFFFFFF900000
8FFFFFFFFFFFFFFFE00000
8FFFFFFFFFFFFFFFF10000
8FFFFFFFFFFFFFFFF10000
8FFFFFFFFFFFFFFFD00000
8FFFFFFFFFFFFFEC400000
8FFFFFC000000000000000
8FFFFFC000000000000000
8FFFFFC000000000000000
8FFFFFD666666666665300
8FFFFFFFFFFFFFFFFFFF80
8FFFFFFFFFFFFFFFFFFFE0
8FFFFFFFFFFFFFFFFFFFF1
8FFFFFFFFFFFFFFFFFFFF0
5FFFFFFFFFFFFFFFFFFFC0
08DFFFFFFFFFFFFFFFFC30
ENDCHAR
STARTCHAR Eacute
ENCODING 201
SWIDTH 638 0
DWIDTH 23 0
BBX 22 35 1 0
BITMAP
0000000000026BFB000000
0000000038CFFFFF500000
0000004DFFFFFFFFA00000
000000BFFFFFFFFFC00000
000000AFFFFFFFFF600000
0000005FFFFFFB72000000
0000000CFFB61000000000
0000000141000000000000
0146666666666666666300
1DFFFFFFFFFFFFFFFFFF80
7FFFFFFFFFFFFFFFFFFFE0
8FFFFFFFFFFFFFFFFFFFF1
8FFFFFFFFFFFFFFFFFFFF0
8FFFFFFFFFFFFFFFFFFFC0
8FFFFFFFFFFFFFFFFFEC30
8FFFFFC000000000000000
8FFFFFC000000000000000
8FFFFFC000000000000000
8FFFFFD666666653000000
8FFFFFFFFFFFFFFF900000
8FFFFFFFFFFFFFFFE00000
8FFFFFFFFFFFFFFFF10000
8FFFFFFFFFFFFFFFF10000
8FFFFFFFFFFFFFFFD00000
8FFFFFFFFFFFFFEC400000
8FFFFFC000000000000000
8FFFFFC000000000000000
8FFFFFC000000000000000
8FFFFFD666666666665300
8FFFFFFFFFFFFFFFFFFF80
8FFFFFFFFFFFFFFFFFFFE0
8FFFFFFFFFFFFFFFFFFFF1
8FFFFFFFFFFFFFFFFFFFF0
5FFFFFFFFFFFFFFFFFFFC0
08DFFFFFFFFFFFFFFFFC30
ENDCHAR
STARTCHAR Ecircumflex
ENCODING 202
SWIDTH 638 0
DWIDTH 23 0
BBX 22 35 1 0
BITMAP
000000027CFD8300000000
000027CFFFFFFFD9300000
0004FFFFFFFFFFFFF70000
0008FFFFFFFFFFFFFC0000
0004FFFFFFFFFFFFF90000
0000CFFFE826DFFFE20000
000019A6100004AB400000
0000000000000000000000
0146666666666666666300
1DFFFFFFFFFFFFFFFFFF80
7FFFFFFFFFFFFFFFFFFFE0
8FFFFFFFFFFFFFFFFFFFF1
8FFFFFFFFFFFFFFFFFFFF0
8FFFFFFFFFFFFFFFFFFFC0
8FFFFFFFFFFFFFFFFFEC30
8FFFFFC000000000000000
8FFFFFC000000000000000
8FFFFFC000000000000000
8FFFFFD666666653000000
8FFFFFFFFFFFFFFF900000
8FFFFFFFFFFFFFFFE00000
8FFFFFFFFFFFFFFFF10000
8FFFFFFFFFFFFFFFF10000
8FFFFFFFFFFFFFFFD00000
8FFFFFFFFFFFFFEC400000
8FFFFFC000000000000000
8FFFFFC000000000000000
8FFFFFC000000000000000
8FFFFFD666666666665300
8FFFFFFFFFFFFFFFFFFF80
8FFFFFFFFFFFFFFFFFFFE0
8FFFFFFFFFFFFFFFFFFFF1
8FFFFFFFFFFFFFFFFFFFF0
5FFFFFFFFFFFFFFFFFFFC0
08DFFFFFFFFFFFFFFFFC30
ENDCHAR
STARTCHAR Edieresis
ENCODING 203
SWIDTH 638 0
DWIDTH 23 0
BBX 22 35 1 0
BITMAP
0006DFFD600009EFFC3000
001EFFFFE1005FFFFFB000
003FFFFFF3007FFFFFE000
003FFFFFF3007FFFFFE000
002FFFFFF2006FFFFFD000
000AFFFFB0001DFFFF6000
0000455300000145520000
0000000000000000000000
0146666666666666666300
1DFFFFFFFFFFFFFFFFFF80
7FFFFFFFFFFFFFFFFFFFE0
8FFFFFFFFFFFFFFFFFFFF1
8FFFFFFFFFFFFFFFFFFFF0
8FFFFFFFFFFFFFFFFFFFC0
8FFFFFFFFFFFFFFFFFEC30
8FFFFFC000000000000000
8FFFFFC000000000000000
8FFFFFC000000000000000
8FFFFFD666666653000000
8FFFFFFFFFFFFFFF900000
8FFFFFFFFFFFFFFFE00000
8FFFFFFFFFFFFFFFF10000
8FFFFFFFFFFFFFFFF10000
8FFFFFFFFFFFFFFFD00000
8FFFFFFFFFFFFFEC400000
8FFFFFC000000000000000
8FFFFFC000000000000000
8FFFFFC000000000000000
8FFFFFD666666666665300
8FFFFFFFFFFFFFFFFFFF80
8FFFFFFFFFFFFFFFFFFFE0
8FFFFFFFFFFFFFFFFFFFF1
8FFFFFFFFFFFFFFFFFFFF0
5FFFFFFFFFFFFFFFFFFFC0
08DFFFFFFFFFFFFFFFFC30
ENDCHAR
STARTCHAR Igrave
ENCODING 204
SWIDTH 267 0
DWIDTH 10 0
BBX 11 35 -2 0
BITMAP
048410000000
1EFFEA610000
7FFFFFFFB600
BFFFFFFFFFA0
AFFFFFFFFFC0
18DFFFFFFF90
00038DFFFF30
00000027B700
000004652000
0000DFFFF700
0004FFFFFD00
0006FFFFFF00
0006FFFFFF00
0006FFFFFF00
0006FFFFFF00
0006FFFFFF00
0006FFFFFF00
0006FFFFFF00
0006FFFFFF00
0006FFFFFF00
0006FFFFFF00
0006FFFFFF00
0006FFFFFF00
0006FFFFFF00
0006FFFFFF00
0006FFFFFF00
0006FFFFFF00
0006FFFFFF00
0006FFFFFF00
0006FFFFFF00
0006FFFFFF00
0006FFFFFF00
0005FFFFFF00
0003FFFFFC00
00007DFEC300
ENDCHAR
STARTCHAR Iacute
ENCODING 205
SWIDTH 269 0
DWIDTH 10 0
BBX 12 35 0 0
BITMAP
00000048DF50
00159EFFFFD0
08EFFFFFFFF4
2FFFFFFFFFF6
1FFFFFFFFFD2
0BFFFFFE9500
04FFD9400000
003300000000
000455200000
00CFFFF80000
04FFFFFE0000
05FFFFFF0000
05FFFFFF0000
05FFFFFF0000
05FFFFFF0000
05FFFFFF0000
05FFFFFF0000
05FFFFFF0000
05FFFFFF0000
05FFFFFF0000
05FFFFFF0000
05FFFFFF0000
05FFFFFF0000
05FFFFFF0000
05FFFFFF0000
05FFFFFF0000
05FFFFFF0000
05FFFFFF0000
05FFFFFF0000
05FFFFFF0000
05FFFFFF0000
05FFFFFF0000
05FFFFFF0000
02FFFFFC0000
006DFEC30000
ENDCHAR
STARTCHAR Icircumflex
ENCODING 206
SWIDTH 270 0
DWIDTH 10 0
BBX 15 35 -3 0
BITMAP
000016BFEA500000
016BFFFFFFFEA500
1EFFFFFFFFFFFFA0
5FFFFFFFFFFFFFF0
1FFFFFFFFFFFFFC0
08FFFFA35BFFFF50
007A71000039C600
0000000000000000
0000004552000000
00000CFFFF800000
00004FFFFFE00000
00005FFFFFF00000
00005FFFFFF00000
00005FFFFFF00000
00005FFFFFF00000
00005FFFFFF00000
00005FFFFFF00000
00005FFFFFF00000
00005FFFFFF00000
00005FFFFFF00000
00005FFFFFF00000
00005FFFFFF00000
00005FFFFFF00000
00005FFFFFF00000
00005FFFFFF00000
00005FFFFFF00000
00005FFFFFF00000
00005FFFFFF00000
00005FFFFFF00000
00005FFFFFF00000
00005FFFFFF00000
00005FFFFFF00000
00005FFFFFF00000
00002FFFFFC00000
000006DFEC300000
ENDCHAR
STARTCHAR Idieresis
ENCODING 207
SWIDTH 268 0
DWIDTH 10 0
BBX 17 35 -4 0
BITMAP
05DFFE700008EFFC40
0EFFFFF2003FFFFFC0
1FFFFFF4006FFFFFF0
2FFFFFF5006FFFFFF0
1FFFFFF3005FFFFFE0
09FFFFC0000DFFFF80
003554000001455300
000000000000000000
000000045530000000
000000BFFFF9000000
000003FFFFFF000000
000004FFFFFF100000
000004FFFFFF100000
000004FFFFFF100000
000004FFFFFF100000
000004FFFFFF100000
000004FFFFFF100000
000004FFFFFF100000
000004FFFFFF100000
000004FFFFFF100000
000004FFFFFF100000
000004FFFFFF100000
000004FFFFFF100000
000004FFFFFF100000
000004FFFFFF100000
000004FFFFFF100000
000004FFFFFF100000
000004FFFFFF100000
000004FFFFFF100000
000004FFFFFF100000
000004FFFFFF100000
000004FFFFFF100000
000004FFFFFF100000
000001FFFFFD000000
0000005DFFC4000000
ENDCHAR
STARTCHAR Eth
ENCODING 208
SWIDTH 775 0
DWIDTH 28 0
BBX 27 27 0 0
BITMAP
0000036666666654200000000000
00008FFFFFFFFFFFFC8100000000
0000EFFFFFFFFFFFFFFE81000000
0000FFFFFFFFFFFFFFFFFC200000
0000FFFFFFFFFFFFFFFFFFE30000
0000FFFFFFFFFFFFFFFFFFFD2000
0000FFFFFFFFFFFFFFFFFFFFC000
0000FFFFFF6000138FFFFFFFF600
0000FFFFFF60000002CFFFFFFE00
0000FFFFFF600000001DFFFFFF40
0000FFFFFF6000000004FFFFFF90
049BFFFFFFCA70000000CFFFFFC0
0EFFFFFFFFFFF40000008FFFFFD0
1FFFFFFFFFFFF70000006FFFFFF0
1FFFFFFFFFFFF60000007FFFFFE0
09FFFFFFFFFFE20000009FFFFFC0
0012FFFFFF7200000000EFFFFFA0
0000FFFFFF6000000007FFFFFF60
0000FFFFFF600000005FFFFFFF10
0000FFFFFF60000018FFFFFFF900
0000FFFFFF96667AEFFFFFFFF200
0000FFFFFFFFFFFFFFFFFFFF6000
0000FFFFFFFFFFFFFFFFFFF90000
0000FFFFFFFFFFFFFFFFFF900000
0000EFFFFFFFFFFFFFFFF6000000
0000BFFFFFFFFFFFFFFA20000000
00003BEFFFFFFFECA61000000000
ENDCHAR
STARTCHAR Ntilde
ENCODING 209
SWIDTH 720 0
DWIDTH 26 0
BBX 24 35 1 0
BITMAP
00000006CFEB3006FA100000
000000AFFFFFF76FFFD00000
000008FFFFFFFFFFFFF10000
00001FFFFFFFFFFFFFA00000
00002FFFFBDFFFFFFD200000
000005FFA01AFFFFC2000000
000000261000367400000000
000000000000000000000000
014541000000000000255400
2EFFFF500000000005FFFFD1
7FFFFFF3000000000BFFFFF5
8FFFFFFD100000000DFFFFF7
8FFFFFFFA00000000DFFFFF7
8FFFFFFFF60000000DFFFFF7
8FFFFFFFFE3000000DFFFFF7
8FFFFFFFFFC100000DFFFFF7
8FFFFFFFFFF900000DFFFFF7
8FFFFFFFFFFF50000DFFFFF7
8FFFFFFFFFFFE2000DFFFFF7
8FFFFFFFFFFFFC000DFFFFF7
8FFFFFCCFFFFFF900DFFFFF7
8FFFFFC2EFFFFFF50DFFFFF7
8FFFFFC05FFFFFFE2DFFFFF7
8FFFFFC008FFFFFFCDFFFFF7
8FFFFFC000CFFFFFFFFFFFF7
8FFFFFC0002EFFFFFFFFFFF7
8FFFFFC00004FFFFFFFFFFF7
8FFFFFC000008FFFFFFFFFF7
8FFFFFC000000BFFFFFFFFF7
8FFFFFC0000002EFFFFFFFF7
8FFFFFC00000004FFFFFFFF7
8FFFFFC000000008FFFFFFF7
8FFFFFB000000000BFFFFFF7
5FFFFF90000000001EFFFFF4
09EFEA100000000003CEFD80
ENDCHAR
STARTCHAR Ograve
ENCODING 210
SWIDTH 775 0
DWIDTH 28 0
BBX 27 36 0 -1
BITMAP
0000000007730000000000000000
000000006FFFD940000000000000
00000000DFFFFFFEA40000000000
00000001FFFFFFFFFF5000000000
00000001FFFFFFFFFF6000000000
000000004AEFFFFFFF3000000000
000000000015AEFFFC0000000000
0000000000000049B30000000000
0000000000379AA8620000000000
000000007DFFFFFFFFD600000000
0000004DFFFFFFFFFFFFC3000000
000007FFFFFFFFFFFFFFFE500000
00007FFFFFFFFFFFFFFFFFF60000
0005FFFFFFFFFFFFFFFFFFFF4000
001EFFFFFFFFDBBDFFFFFFFFE100
008FFFFFFFB300004CFFFFFFF800
01EFFFFFF8000000009FFFFFFE10
06FFFFFF90000000000BFFFFFF50
0AFFFFFE100000000002FFFFFF90
0DFFFFF9000000000000BFFFFFC0
0FFFFFF60000000000008FFFFFD0
1FFFFFF40000000000006FFFFFF0
1FFFFFF50000000000006FFFFFE0
0EFFFFF70000000000008FFFFFD0
0DFFFFFB000000000000CFFFFFB0
09FFFFFF300000000003FFFFFF70
05FFFFFFC1000000001DFFFFFF30
01EFFFFFFC10000002CFFFFFFC00
006FFFFFFFE720027EFFFFFFF400
000CFFFFFFFFFFFFFFFFFFFFB000
0002EFFFFFFFFFFFFFFFFFFD1000
00004EFFFFFFFFFFFFFFFFE30000
000003DFFFFFFFFFFFFFFD200000
0000001AFFFFFFFFFFFF91000000
0000000039EFFFFFFE9300000000
0000000000034665300000000000
ENDCHAR
STARTCHAR Oacute
ENCODING 211
SWIDTH 775 0
DWIDTH 28 0
BBX 27 36 0 -1
BITMAP
0000000000000016AED100000000
0000000000027BFFFFF800000000
0000000002CFFFFFFFFD00000000
0000000008FFFFFFFFFF00000000
0000000007FFFFFFFFFA00000000
0000000002FFFFFFC72000000000
0000000000AFFC72000000000000
0000000000041000000000000000
0000000000379AA8620000000000
000000007DFFFFFFFFD600000000
0000004DFFFFFFFFFFFFC3000000
000007FFFFFFFFFFFFFFFE500000
00007FFFFFFFFFFFFFFFFFF60000
0005FFFFFFFFFFFFFFFFFFFF4000
001EFFFFFFFFDBBDFFFFFFFFE100
008FFFFFFFB300004CFFFFFFF800
01EFFFFFF8000000009FFFFFFE10
06FFFFFF90000000000BFFFFFF50
0AFFFFFE100000000002FFFFFF90
0DFFFFF9000000000000BFFFFFC0
0FFFFFF60000000000008FFFFFD0
1FFFFFF40000000000006FFFFFF0
1FFFFFF50000000000006FFFFFE0
0EFFFFF70000000000008FFFFFD0
0DFFFFFB000000000000CFFFFFB0
09FFFFFF300000000003FFFFFF70
05FFFFFFC1000000001DFFFFFF30
01EFFFFFFC10000002CFFFFFFC00
006FFFFFFFE720027EFFFFFFF400
000CFFFFFFFFFFFFFFFFFFFFB000
0002EFFFFFFFFFFFFFFFFFFD1000
00004EFFFFFFFFFFFFFFFFE30000
000003DFFFFFFFFFFFFFFD200000
0000001AFFFFFFFFFFFF91000000
0000000039EFFFFFFE9300000000
0000000000034665300000000000
ENDCHAR
STARTCHAR Ocircumflex
ENCODING 212
SWIDTH 775 0
DWIDTH 28 0
BBX 27 36 0 -1
BITMAP
000000000015AEEA510000000000
000000005AEFFFFFFFA500000000
0000000CFFFFFFFFFFFFC0000000
0000002FFFFFFFFFFFFFF2000000
0000000EFFFFFFFFFFFFE0000000
00000006FFFFB44AFFFF70000000
000000006A82000028C800000000
0000000000000000000000000000
0000000000379AA8620000000000
000000007DFFFFFFFFD600000000
0000004DFFFFFFFFFFFFC3000000
000007FFFFFFFFFFFFFFFE500000
00007FFFFFFFFFFFFFFFFFF60000
0005FFFFFFFFFFFFFFFFFFFF4000
001EFFFFFFFFDBBDFFFFFFFFE100
008FFFFFFFB300004CFFFFFFF800
01EFFFFFF8000000009FFFFFFE10
06FFFFFF90000000000BFFFFFF50
0AFFFFFE100000000002FFFFFF90
0DFFFFF9000000000000BFFFFFC0
0FFFFFF60000000000008FFFFFD0
1FFFFFF40000000000006FFFFFF0
1FFFFFF50000000000006FFFFFE0
0EFFFFF70000000000008FFFFFD0
0DFFFFFB000000000000CFFFFFB0
09FFFFFF300000000003FFFFFF70
05FFFFFFC1000000001DFFFFFF30
01EFFFFFFC10000002CFFFFFFC00
006FFFFFFFE720027EFFFFFFF400
000CFFFFFFFFFFFFFFFFFFFFB000
0002EFFFFFFFFFFFFFFFFFFD1000
00004EFFFFFFFFFFFFFFFFE30000
000003DFFFFFFFFFFFFFFD200000
0000001AFFFFFFFFFFFF91000000
0000000039EFFFFFFE9300000000
0000000000034665300000000000
ENDCHAR
STARTCHAR Otilde
ENCODING 213
SWIDTH 775 0
DWIDTH 28 0
BBX 27 36 0 -1
BITMAP
00000000018DFE91009E80000000
000000001DFFFFFE58FFF9000000
00000000CFFFFFFFFFFFFD000000
00000005FFFFFFFFFFFFF7000000
00000005FFFFAEFFFFFFB0000000
000000009FF602CFFFFA10000000
0000000004500004763000000000
0000000000000000000000000000
0000000000379AA8620000000000
000000007DFFFFFFFFD600000000
0000004DFFFFFFFFFFFFC3000000
000007FFFFFFFFFFFFFFFE500000
00007FFFFFFFFFFFFFFFFFF60000
0005FFFFFFFFFFFFFFFFFFFF4000
001EFFFFFFFFDBBDFFFFFFFFE100
008FFFFFFFB300004CFFFFFFF800
01EFFFFFF8000000009FFFFFFE10
06FFFFFF90000000000BFFFFFF50
0AFFFFFE100000000002FFFFFF90
0DFFFFF9000000000000BFFFFFC0
0FFFFFF60000000000008FFFFFD0
1FFFFFF40000000000006FFFFFF0
1FFFFFF50000000000006FFFFFE0
0EFFFFF70000000000008FFFFFD0
0DFFFFFB000000000000CFFFFFB0
09FFFFFF300000000003FFFFFF70
05FFFFFFC1000000001DFFFFFF30
01EFFFFFFC10000002CFFFFFFC00
006FFFFFFFE720027EFFFFFFF400
000CFFFFFFFFFFFFFFFFFFFFB000
0002EFFFFFFFFFFFFFFFFFFD1000
00004EFFFFFFFFFFFFFFFFE30000
000003DFFFFFFFFFFFFFFD200000
0000001AFFFFFFFFFFFF91000000
0000000039EFFFFFFE9300000000
0000000000034665300000000000
ENDCHAR
STARTCHAR Odieresis
ENCODING 214
SWIDTH 775 0
DWIDTH 28 0
BBX 27 36 0 -1
BITMAP
0000006DFFD500009EFFC2000000
000001FFFFFE0006FFFFFA000000
000004FFFFFF2008FFFFFD000000
000004FFFFFF2008FFFFFD000000
000003FFFFFF1007FFFFFC000000
000000BFFFFA0002EFFFF6000000
0000000455300000145520000000
0000000000000000000000000000
0000000000379AA8620000000000
000000007DFFFFFFFFD600000000
0000004DFFFFFFFFFFFFC3000000
000007FFFFFFFFFFFFFFFE500000
00007FFFFFFFFFFFFFFFFFF60000
0005FFFFFFFFFFFFFFFFFFFF4000
001EFFFFFFFFDBBDFFFFFFFFE100
008FFFFFFFB300004CFFFFFFF800
01EFFFFFF8000000009FFFFFFE10
06FFFFFF90000000000BFFFFFF50
0AFFFFFE100000000002FFFFFF90
0DFFFFF9000000000000BFFFFFC0
0FFFFFF60000000000008FFFFFD0
1FFFFFF40000000000006FFFFFF0
1FFFFFF50000000000006FFFFFE0
0EFFFFF70000000000008FFFFFD0
0DFFFFFB000000000000CFFFFFB0
09FFFFFF300000000003FFFFFF70
05FFFFFFC1000000001DFFFFFF30
01EFFFFFFC10000002CFFFFFFC00
006FFFFFFFE720027EFFFFFFF400
000CFFFFFFFFFFFFFFFFFFFFB000
0002EFFFFFFFFFFFFFFFFFFD1000
00004EFFFFFFFFFFFFFFFFE30000
000003DFFFFFFFFFFFFFFD200000
0000001AFFFFFFFFFFFF91000000
0000000039EFFFFFFE9300000000
0000000000034665300000000000
ENDCHAR
STARTCHAR multiply
ENCODING 215
SWIDTH 521 0
DWIDTH 19 0
BBX 18 17 0 1
BITMAP
003CD500000008EA10
03EFFF700000AFFFD1
0DFFFFF6000AFFFFFA
1FFFFFFF60AFFFFFFC
07FFFFFFFCFFFFFFF4
009FFFFFFFFFFFFF50
0009FFFFFFFFFFF500
00009FFFFFFFFF5000
00000DFFFFFFFA0000
0000AFFFFFFFFF7000
000AFFFFFFFFFFF700
00AFFFFFFFFFFFFF70
08FFFFFFFBFFFFFFF5
1FFFFFFF509FFFFFFC
0DFFFFF50009FFFFFA
04FFFF5000009FFFD1
003CC400000007DA20
ENDCHAR
STARTCHAR Oslash
ENCODING 216
SWIDTH 775 0
DWIDTH 28 0
BBX 27 31 0 -2
BITMAP
0000000000000000001200000000
000000000000000002EFD6000000
000000000047ABA96AFFFFA00000
000000007DFFFFFFFFFFFFF10000
0000004DFFFFFFFFFFFFFFE00000
000007FFFFFFFFFFFFFFFFA00000
00007FFFFFFFFFFFFFFFFFF60000
0005FFFFFFFFFFFFFFFFFFFF4000
001EFFFFFFFFDBDFFFFFFFFFD100
008FFFFFFFB301EFFFFFFFFFF800
01EFFFFFF80007FFFFFFFFFFFE10
06FFFFFF90000EFFFFFFFFFFFF50
0AFFFFFE10006FFFFFF5FFFFFF90
0DFFFFF90000DFFFFFA0BFFFFFC0
0FFFFFF50006FFFFFF308FFFFFE0
1FFFFFF4000DFFFFFB006FFFFFF0
1FFFFFF5005FFFFFF3006FFFFFE0
0FFFFFF700CFFFFFB0008FFFFFD0
0DFFFFFB05FFFFFF4000CFFFFFB0
0AFFFFFF3CFFFFFC0004FFFFFF70
05FFFFFFDFFFFFF5001DFFFFFF30
00EFFFFFFFFFFFC002CFFFFFFC00
007FFFFFFFFFFF528EFFFFFFF500
000CFFFFFFFFFFFFFFFFFFFFB000
0003EFFFFFFFFFFFFFFFFFFD1000
00004EFFFFFFFFFFFFFFFFE30000
000005FFFFFFFFFFFFFFFD200000
000007FFFFFFFFFFFFFF91000000
00000AFFFFFFFFFFFE9300000000
000004EFFFE35665300000000000
00000028DE500000000000000000
ENDCHAR
STARTCHAR Ugrave
ENCODING 217
SWIDTH 726 0
DWIDTH 26 0
BBX 24 36 1 -1
BITMAP
000000762000000000000000
000008FFFD83000000000000
00000EFFFFFFE93000000000
00003FFFFFFFFFF300000000
00003FFFFFFFFFF400000000
000005BFFFFFFFF100000000
000000015AEFFFB000000000
0000000000059A2000000000
015662000000000000256510
2EFFFF500000000003FFFFF3
7FFFFFB00000000009FFFFF9
8FFFFFC0000000000AFFFFFA
8FFFFFD0000000000AFFFFFB
8FFFFFD0000000000AFFFFFB
8FFFFFD0000000000AFFFFFB
8FFFFFD0000000000AFFFFFB
8FFFFFD0000000000AFFFFFB
8FFFFFD0000000000AFFFFFB
8FFFFFD0000000000AFFFFFB
8FFFFFD0000000000AFFFFFB
8FFFFFD0000000000AFFFFFB
8FFFFFD0000000000AFFFFFB
8FFFFFD0000000000AFFFFFA
7FFFFFE0000000000BFFFFFA
6FFFFFF1000000000DFFFFF8
4FFFFFF5000000003FFFFFF6
0FFFFFFC00000000AFFFFFF2
0AFFFFFF70000005FFFFFFD0
04FFFFFFFA31028FFFFFFF60
00CFFFFFFFFFFFFFFFFFFD10
002FFFFFFFFFFFFFFFFFF400
0006FFFFFFFFFFFFFFFF8000
00007FFFFFFFFFFFFFF90000
000004DFFFFFFFFFFE500000
00000017DFFFFFFD81000000
000000000256653000000000
ENDCHAR
STARTCHAR Uacute
ENCODING 218
SWIDTH 726 0
DWIDTH 26 0
BBX 24 36 1 -1
BITMAP
000000000000016AED100000
000000000027BFFFFF800000
000000002CFFFFFFFFD00000
000000008FFFFFFFFFF00000
000000007FFFFFFFFFA00000
000000002FFFFFFC72000000
000000000AFFC72000000000
000000000041000000000000
015662000000000000256510
2EFFFF500000000003FFFFF3
7FFFFFB00000000009FFFFF9
8FFFFFC0000000000AFFFFFA
8FFFFFD0000000000AFFFFFB
8FFFFFD0000000000AFFFFFB
8FFFFFD0000000000AFFFFFB
8FFFFFD0000000000AFFFFFB
8FFFFFD0000000000AFFFFFB
8FFFFFD0000000000AFFFFFB
8FFFFFD0000000000AFFFFFB
8FFFFFD0000000000AFFFFFB
8FFFFFD0000000000AFFFFFB
8FFFFFD0000000000AFFFFFB
8FFFFFD0000000000AFFFFFA
7FFFFFE0000000000BFFFFFA
6FFFFFF1000000000DFFFFF8
4FFFFFF5000000003FFFFFF6
0FFFFFFC00000000AFFFFFF2
0AFFFFFF70000005FFFFFFD0
04FFFFFFFA31028FFFFFFF60
00CFFFFFFFFFFFFFFFFFFD10
002FFFFFFFFFFFFFFFFFF400
0006FFFFFFFFFFFFFFFF8000
00007FFFFFFFFFFFFFF90000
000004DFFFFFFFFFFE500000
00000017DFFFFFFD81000000
000000000256653000000000
ENDCHAR
STARTCHAR Ucircumflex
ENCODING 219
SWIDTH 726 0
DWIDTH 26 0
BBX 24 36 1 -1
BITMAP
00000000027CFD8300000000
00000027CFFFFFFFD8300000
000005FFFFFFFFFFFFF60000
000009FFFFFFFFFFFFFA0000
000006FFFFFFFFFFFFF70000
000000DFFFE827DFFFE10000
00000029A5000005AB300000
000000000000000000000000
015662000000000000256510
2EFFFF500000000003FFFFF3
7FFFFFB00000000009FFFFF9
8FFFFFC0000000000AFFFFFA
8FFFFFD0000000000AFFFFFB
8FFFFFD0000000000AFFFFFB
8FFFFFD0000000000AFFFFFB
8FFFFFD0000000000AFFFFFB
8FFFFFD0000000000AFFFFFB
8FFFFFD0000000000AFFFFFB
8FFFFFD0000000000AFFFFFB
8FFFFFD0000000000AFFFFFB
8FFFFFD0000000000AFFFFFB
8FFFFFD0000000000AFFFFFB
8FFFFFD0000000000AFFFFFA
7FFFFFE0000000000BFFFFFA
6FFFFFF1000000000DFFFFF8
4FFFFFF5000000003FFFFFF6
0FFFFFFC00000000AFFFFFF2
0AFFFFFF70000005FFFFFFD0
04FFFFFFFA31028FFFFFFF60
00CFFFFFFFFFFFFFFFFFFD10
002FFFFFFFFFFFFFFFFFF400
0006FFFFFFFFFFFFFFFF8000
00007FFFFFFFFFFFFFF90000
000004DFFFFFFFFFFE500000
00000017DFFFFFFD81000000
000000000256653000000000
ENDCHAR
STARTCHAR Udieresis
ENCODING 220
SWIDTH 726 0
DWIDTH 26 0
BBX 24 36 1 -1
BITMAP
00003CFFE800006DFFD50000
0000CFFFFF3002FFFFFE0000
0000EFFFFF6004FFFFFF2000
0000FFFFFF7004FFFFFF2000
0000EFFFFF5003FFFFFF1000
00007FFFFD1000BFFFFA0000
000003554100000455300000
000000000000000000000000
015662000000000000256510
2EFFFF500000000003FFFFF3
7FFFFFB00000000009FFFFF9
8FFFFFC0000000000AFFFFFA
8FFFFFD0000000000AFFFFFB
8FFFFFD0000000000AFFFFFB
8FFFFFD0000000000AFFFFFB
8FFFFFD0000000000AFFFFFB
8FFFFFD0000000000AFFFFFB
8FFFFFD0000000000AFFFFFB
8FFFFFD0000000000AFFFFFB
8FFFFFD0000000000AFFFFFB
8FFFFFD0000000000AFFFFFB
8FFFFFD0000000000AFFFFFB
8FFFFFD0000000000AFFFFFA
7FFFFFE0000000000BFFFFFA
6FFFFFF1000000000DFFFFF8
4FFFFFF5000000003FFFFFF6
0FFFFFFC00000000AFFFFFF2
0AFFFFFF70000005FFFFFFD0
04FFFFFFFA31028FFFFFFF60
00CFFFFFFFFFFFFFFFFFFD10
002FFFFFFFFFFFFFFFFFF400
0006FFFFFFFFFFFFFFFF8000
00007FFFFFFFFFFFFFF90000
000004DFFFFFFFFFFE500000
00000017DFFFFFFD81000000
000000000256653000000000
ENDCHAR
STARTCHAR Yacute
ENCODING 221
SWIDTH 686 0
DWIDTH 25 0
BBX 25 36 0 -1
BITMAP
000000000000049DE400000000
00000000015AEFFFFC00000000
000000009FFFFFFFFF20000000
00000003FFFFFFFFFF40000000
00000002FFFFFFFFFD10000000
00000000DFFFFFE94000000000
000000005FFD83000000000000
00000000032000000000000000
0018B600000000000019B50000
04DFFF600000000000BFFFC100
2EFFFFE20000000006FFFFFC00
6FFFFFFB000000001EFFFFFF10
2FFFFFFF50000000AFFFFFFC00
08FFFFFFE1000004FFFFFFF400
01DFFFFFF900001DFFFFFF9000
004FFFFFFF30008FFFFFFD1000
0008FFFFFFC003FFFFFFF40000
0001DFFFFFF70CFFFFFF900000
00004FFFFFFE8FFFFFFD100000
000008FFFFFFFFFFFFF4000000
000001DFFFFFFFFFFF90000000
0000003FFFFFFFFFFD10000000
00000008FFFFFFFFF400000000
00000001DFFFFFFF9000000000
000000003FFFFFFD1000000000
000000000DFFFFF80000000000
000000000DFFFFF80000000000
000000000DFFFFF80000000000
000000000DFFFFF80000000000
000000000DFFFFF80000000000
000000000DFFFFF80000000000
000000000DFFFFF80000000000
000000000DFFFFF80000000000
000000000AFFFFF50000000000
0000000003CFFFA00000000000
00000000000010000000000000
ENDCHAR
STARTCHAR Thorn
ENCODING 222
SWIDTH 634 0
DWIDTH 23 0
BBX 21 27 1 0
BITMAP
0146510000000000000000
2EFFFF5000000000000000
7FFFFFB000000000000000
8FFFFFC000000000000000
8FFFFFEBBBBBA720000000
8FFFFFFFFFFFFFFA200000
8FFFFFFFFFFFFFFFF60000
8FFFFFFFFFFFFFFFFF7000
8FFFFFFFFFFFFFFFFFF400
8FFFFFFFFFFFFFFFFFFD00
8FFFFFE9999ADFFFFFFF40
8FFFFFC0000008FFFFFF90
8FFFFFC0000000BFFFFFB0
8FFFFFC00000008FFFFFC0
8FFFFFC00000008FFFFFC0
8FFFFFC0000001DFFFFFA0
8FFFFFC000014CFFFFFF70
8FFFFFFFFFFFFFFFFFFF20
8FFFFFFFFFFFFFFFFFFA00
8FFFFFFFFFFFFFFFFFE100
8FFFFFFFFFFFFFFFFE3000
8FFFFFFFFFFFFFFFB20000
8FFFFFFFFFFFFFB5000000
8FFFFFD555554100000000
8FFFFFC000000000000000
5FFFFF9000000000000000
08DEEA1000000000000000
ENDCHAR
STARTCHAR germandbls
ENCODING 223
SWIDTH 633 0
DWIDTH 23 0
BBX 21 30 1 -2
BITMAP
0000000001100000000000
000027BEFFFFDA61000000
001AFFFFFFFFFFFD300000
02DFFFFFFFFFFFFFE10000
0BFFFFFFFFFFFFFFF70000
2FFFFFFFFFFFFFFFFA0000
5FFFFFFD744BFFFFF90000
7FFFFFE20007FFFFF80000
8FFFFFB0001DFFFFF30000
8FFFFFA000BFFFFFB00000
8FFFFFA005FFFFFE200000
8FFFFFA00BFFFFF5000000
8FFFFFA00EFFFFB0000000
8FFFFFA00EFFFFD1000000
8FFFFFA00CFFFFFC200000
8FFFFFA006FFFFFFE50000
8FFFFFA000BFFFFFFF9000
8FFFFFA0001AFFFFFFF800
8FFFFFA000006EFFFFFF30
8FFFFFA0000002CFFFFF80
8FFFFFA00000002FFFFFC0
8FFFFFA00141002FFFFFD0
8FFFFFA00CFFA6BFFFFFC0
8FFFFFA03FFFFFFFFFFFB0
8FFFFFA06FFFFFFFFFFF70
8FFFFFA08FFFFFFFFFFE10
8FFFFFA05FFFFFFFFFE400
6FFFFF8005ADFFFFD82000
1CFFFD2000000110000000
0012100000000000000000
ENDCHAR
STARTCHAR agrave
ENCODING 224
SWIDTH 596 0
DWIDTH 21 0
BBX 20 28 0 0
BITMAP
0000001AB72000000000
0000007FFFFD83000000
000000DFFFFFFFE91000
000001FFFFFFFFFF7000
000000DFFFFFFFFF7000
00000016BFFFFFFF3000
00000000015AEFFB0000
00000000000004710000
00000000000000000000
00000049CEC8205CEEC3
00001AFFFFFFE6FFFFFC
0002DFFFFFFFFFFFFFFF
001DFFFFFFFFFFFFFFFF
00AFFFFFFFFFFFFFFFFF
03FFFFFFFFFFFFFFFFFF
09FFFFFFD758EFFFFFFF
0DFFFFFE10004FFFFFFF
0FFFFFF600000BFFFFFF
1FFFFFF4000008FFFFFF
0FFFFFF600000BFFFFFF
0DFFFFFE20005FFFFFFF
09FFFFFFE869FFFFFFFF
03FFFFFFFFFFFFFFFFFF
00AFFFFFFFFFFFFFFFFF
001DFFFFFFFFFFFFFFFF
0002DFFFFFFFFFFFFFFF
00001AFFFFFFF6FFFFFC
00000049CEC9305CDEB3
ENDCHAR
STARTCHAR aacute
ENCODING 225
SWIDTH 596 0
DWIDTH 21 0
BBX 20 28 0 0
BITMAP
00000000000037BA0000
00000000048DFFFF6000
00000019EFFFFFFFB000
0000008FFFFFFFFFE000
0000008FFFFFFFFFC000
0000004FFFFFFEA50000
0000000CFFEA51000000
00000002740000000000
00000000000000000000
00000049CEC8205CEEC3
00001AFFFFFFE6FFFFFC
0002DFFFFFFFFFFFFFFF
001DFFFFFFFFFFFFFFFF
00AFFFFFFFFFFFFFFFFF
03FFFFFFFFFFFFFFFFFF
09FFFFFFD758EFFFFFFF
0DFFFFFE10004FFFFFFF
0FFFFFF600000BFFFFFF
1FFFFFF4000008FFFFFF
0FFFFFF600000BFFFFFF
0DFFFFFE20005FFFFFFF
09FFFFFFE869FFFFFFFF
03FFFFFFFFFFFFFFFFFF
00AFFFFFFFFFFFFFFFFF
001DFFFFFFFFFFFFFFFF
0002DFFFFFFFFFFFFFFF
00001AFFFFFFF6FFFFFC
00000049CEC9305CDEB3
ENDCHAR
STARTCHAR acircumflex
ENCODING 226
SWIDTH 596 0
DWIDTH 21 0
BBX 20 28 0 0
BITMAP
00000000038CA6100000
00000038DFFFFFFB6100
00001CFFFFFFFFFFFF60
00006FFFFFFFFFFFFFD0
00004FFFFFFFFFFFFFC0
00000CFFFFC69EFFFF50
000002BDA300017DE700
00000000000000000000
00000000000000000000
00000049CEC8205CEEC3
00001AFFFFFFE6FFFFFC
0002DFFFFFFFFFFFFFFF
001DFFFFFFFFFFFFFFFF
00AFFFFFFFFFFFFFFFFF
03FFFFFFFFFFFFFFFFFF
09FFFFFFD758EFFFFFFF
0DFFFFFE10004FFFFFFF
0FFFFFF600000BFFFFFF
1FFFFFF4000008FFFFFF
0FFFFFF600000BFFFFFF
0DFFFFFE20005FFFFFFF
09FFFFFFE869FFFFFFFF
03FFFFFFFFFFFFFFFFFF
00AFFFFFFFFFFFFFFFFF
001DFFFFFFFFFFFFFFFF
0002DFFFFFFFFFFFFFFF
00001AFFFFFFF6FFFFFC
00000049CEC9305CDEB3
ENDCHAR
STARTCHAR atilde
ENCODING 227
SWIDTH 596 0
DWIDTH 21 0
BBX 20 28 0 0
BITMAP
00000004ACB60007B500
000000BFFFFFC25FFF70
00000AFFFFFFFFFFFFD0
00004FFFFFFFFFFFFF80
00006FFFFDFFFFFFFD10
00001CFF905EFFFFD200
0000007800017A950000
00000000000000000000
00000000000000000000
00000049CEC8205CEEC3
00001AFFFFFFE6FFFFFC
0002DFFFFFFFFFFFFFFF
001DFFFFFFFFFFFFFFFF
00AFFFFFFFFFFFFFFFFF
03FFFFFFFFFFFFFFFFFF
09FFFFFFD758EFFFFFFF
0DFFFFFE10004FFFFFFF
0FFFFFF600000BFFFFFF
1FFFFFF4000008FFFFFF
0FFFFFF600000BFFFFFF
0DFFFFFE20005FFFFFFF
09FFFFFFE869FFFFFFFF
03FFFFFFFFFFFFFFFFFF
00AFFFFFFFFFFFFFFFFF
001DFFFFFFFFFFFFFFFF
0002DFFFFFFFFFFFFFFF
00001AFFFFFFF6FFFFFC
00000049CEC9305CDEB3
ENDCHAR
STARTCHAR adieresis
ENCODING 228
SWIDTH 596 0
DWIDTH 21 0
BBX 20 28 0 0
BITMAP
00004BCCA200007BCC81
0001FFFFFC0006FFFFF7
0005FFFFFF1009FFFFFB
0005FFFFFF100AFFFFFC
0004FFFFFF0009FFFFFB
0001EFFFFA0004FFFFF6
00002788610000388840
00000000000000000000
00000000000000000000
00000049CEC8205CEEC3
00001AFFFFFFE6FFFFFC
0002DFFFFFFFFFFFFFFF
001DFFFFFFFFFFFFFFFF
00AFFFFFFFFFFFFFFFFF
03FFFFFFFFFFFFFFFFFF
09FFFFFFD758EFFFFFFF
0DFFFFFE10004FFFFFFF
0FFFFFF600000BFFFFFF
1FFFFFF4000008FFFFFF
0FFFFFF600000BFFFFFF
0DFFFFFE20005FFFFFFF
09FFFFFFE869FFFFFFFF
03FFFFFFFFFFFFFFFFFF
00AFFFFFFFFFFFFFFFFF
001DFFFFFFFFFFFFFFFF
0002DFFFFFFFFFFFFFFF
00001AFFFFFFF6FFFFFC
00000049CEC9305CDEB3
ENDCHAR
STARTCHAR aring
ENCODING 229
SWIDTH 596 0
DWIDTH 21 0
BBX 20 27 0 0
BITMAP
0000000003BFE9100000
000000003EFEFFC00000
00000000AF801DF40000
00000000DF2008F70000
00000000BF500BF50000
000000005FFBDFE10000
0000000006EFFC200000
00000000001320000000
00000049CEC8205CEEC3
00001AFFFFFFE6FFFFFC
0002DFFFFFFFFFFFFFFF
001DFFFFFFFFFFFFFFFF
00AFFFFFFFFFFFFFFFFF
03FFFFFFFFFFFFFFFFFF
09FFFFFFD758EFFFFFFF
0DFFFFFE10004FFFFFFF
0FFFFFF600000BFFFFFF
1FFFFFF4000008FFFFFF
0FFFFFF600000BFFFFFF
0DFFFFFE20005FFFFFFF
09FFFFFFE869FFFFFFFF
03FFFFFFFFFFFFFFFFFF
00AFFFFFFFFFFFFFFFFF
001DFFFFFFFFFFFFFFFF
0002DFFFFFFFFFFFFFFF
00001AFFFFFFF6FFFFFC
00000049CEC9305CDEB3
ENDCHAR
STARTCHAR ae
ENCODING 230
SWIDTH 910 0
DWIDTH 33 0
BBX 32 21 0 -1
BITMAP
00000001233200000000001210000000
000017BFFFFFD8100028CFFFFEA40000
0006EFFFFFFFFFE508FFFFFFFFFFB100
00AFFFFFFFFFFFFFDFFFFFFFFFFFFD10
06FFFFFFFFFFFFFFFFFFFFFFFFFFFFA0
08FFFFFFFFFFFFFFFFFFFFFFFFFFFFF4
03FFFFFFDAAEFFFFFFFFFE758FFFFFF9
008FFFF90002EFFFFFFFB10007FFFFFC
0008FE7000008FFFFFFF200006FFFFFC
0000100110003FFFFFFFBBBBBEFFFFFB
00028CEFFFDA4FFFFFFFFFFFFFFFFFF6
008FFFFFFFFFFFFFFFFFFFFFFFFFFFA0
07FFFFFFFFFFFFFFFFFF777777777300
0EFFFFD643469EFFFFFF500000001000
1FFFFF7000001CFFFFFFFA42348DFA00
0FFFFFC20027EFFFFFFFFFFFFFFFFF70
0DFFFFFFEFFFFFFFFFFFFFFFFFFFFFC0
07FFFFFFFFFFFFF7DFFFFFFFFFFFFFD0
01CFFFFFFFFFFE501AFFFFFFFFFFFE40
0008EFFFFFFD81000039EFFFFFEA6100
00000245431000000000013321000000
ENDCHAR
STARTCHAR ccedilla
ENCODING 231
SWIDTH 524 0
DWIDTH 19 0
BBX 18 27 0 -7
BITMAP
000000001455300000
0000005BFFFFFEA300
00002BFFFFFFFFFF80
0003EFFFFFFFFFFFF9
002EFFFFFFFFFFFFFE
00BFFFFFFFFFFFFFFB
04FFFFFFFFFFFFFFF3
0AFFFFFFE744AFFF70
0DFFFFFE2000038500
0FFFFFF90000000000
1FFFFFF80000000000
0FFFFFFA0000000000
0DFFFFFF3000048300
0AFFFFFFF856BFFF50
04FFFFFFFFFFFFFFF4
00BFFFFFFFFFFFFFFC
002EFFFFFFFFFFFFFE
0003DFFFFFFFFFFFF7
00001AFFFFFFFFFF70
0000004BFFFFFD9200
0000000AFFFFF60000
00000007FFFFFE0000
00000000863FFF3000
00000000975FFF3000
00000008FFFFFE0000
00000009FFFFF50000
000000007CDA300000
ENDCHAR
STARTCHAR egrave
ENCODING 232
SWIDTH 573 0
DWIDTH 21 0
BBX 20 29 0 -1
BITMAP
0000009C830000000000
000005FFFFD940000000
00000BFFFFFFFEA10000
00000DFFFFFFFFF90000
00000AFFFFFFFFF90000
0000005AEFFFFFF50000
00000000059EFFD00000
00000000000047200000
00000000145542000000
0000006CFFFFFFC70000
00003DFFFFFFFFFFC200
0005FFFFFFFFFFFFFD10
003EFFFFFFFFFFFFFFA0
00CFFFFFFFFFFFFFFFF3
05FFFFFFFC66AFFFFFF8
0AFFFFFF80000AFFFFFA
0DFFFFFC000009FFFFFB
0FFFFFFDAAAABFFFFFF9
1FFFFFFFFFFFFFFFFFF4
0FFFFFFFFFFFFFFFFF90
0EFFFFFD999999998400
0AFFFFFE100000000000
05FFFFFFE721247CE700
00DFFFFFFFFFFFFFFF40
004FFFFFFFFFFFFFFFA0
0007FFFFFFFFFFFFFFB0
00006EFFFFFFFFFFFF60
0000019DFFFFFFFFC500
00000000356776410000
ENDCHAR
STARTCHAR eacute
ENCODING 233
SWIDTH 573 0
DWIDTH 21 0
BBX 20 29 0 -1
BITMAP
00000000000049C60000
0000000015AEFFFF1000
0000003BFFFFFFFF7000
000000DFFFFFFFFFA000
000000DFFFFFFFFF6000
0000009FFFFFFE940000
0000002FFFD830000000
00000004630000000000
00000000145542000000
0000006CFFFFFFC70000
00003DFFFFFFFFFFC200
0005FFFFFFFFFFFFFD10
003EFFFFFFFFFFFFFFA0
00CFFFFFFFFFFFFFFFF3
05FFFFFFFC66AFFFFFF8
0AFFFFFF80000AFFFFFA
0DFFFFFC000009FFFFFB
0FFFFFFDAAAABFFFFFF9
1FFFFFFFFFFFFFFFFFF4
0FFFFFFFFFFFFFFFFF90
0EFFFFFD999999998400
0AFFFFFE100000000000
05FFFFFFE721247CE700
00DFFFFFFFFFFFFFFF40
004FFFFFFFFFFFFFFFA0
0007FFFFFFFFFFFFFFB0
00006EFFFFFFFFFFFF60
0000019DFFFFFFFFC500
00000000356776410000
ENDCHAR
STARTCHAR ecircumflex
ENCODING 234
SWIDTH 573 0
DWIDTH 21 0
BBX 20 29 0 -1
BITMAP
0000000049CA61000000
0000049EFFFFFFB61000
0002DFFFFFFFFFFFE500
0008FFFFFFFFFFFFFC00
0005FFFFFFFFFFFFFA00
0000DFFFFB69FFFFF300
00003CD9300017DE6000
00000000000000000000
00000000145542000000
0000006CFFFFFFC70000
00003DFFFFFFFFFFC200
0005FFFFFFFFFFFFFD10
003EFFFFFFFFFFFFFFA0
00CFFFFFFFFFFFFFFFF3
05FFFFFFFC66AFFFFFF8
0AFFFFFF80000AFFFFFA
0DFFFFFC000009FFFFFB
0FFFFFFDAAAABFFFFFF9
1FFFFFFFFFFFFFFFFFF4
0FFFFFFFFFFFFFFFFF90
0EFFFFFD999999998400
0AFFFFFE100000000000
05FFFFFFE721247CE700
00DFFFFFFFFFFFFFFF40
004FFFFFFFFFFFFFFFA0
0007FFFFFFFFFFFFFFB0
00006EFFFFFFFFFFFF60
0000019DFFFFFFFFC500
00000000356776410000
ENDCHAR
STARTCHAR edieresis
ENCODING 235
SWIDTH 573 0
DWIDTH 21 0
BBX 20 29 0 -1
BITMAP
0007BCB8000029CCB500
006FFFFF7000BFFFFF30
00AFFFFFB000EFFFFF60
00AFFFFFB000FFFFFF70
00AFFFFFA000EFFFFF60
005FFFFF50009FFFFE20
00048984000005887200
00000000000000000000
00000000145542000000
0000006CFFFFFFC70000
00003DFFFFFFFFFFC200
0005FFFFFFFFFFFFFD10
003EFFFFFFFFFFFFFFA0
00CFFFFFFFFFFFFFFFF3
05FFFFFFFC66AFFFFFF8
0AFFFFFF80000AFFFFFA
0DFFFFFC000009FFFFFB
0FFFFFFDAAAABFFFFFF9
1FFFFFFFFFFFFFFFFFF4
0FFFFFFFFFFFFFFFFF90
0EFFFFFD999999998400
0AFFFFFE100000000000
05FFFFFFE721247CE700
00DFFFFFFFFFFFFFFF40
004FFFFFFFFFFFFFFFA0
0007FFFFFFFFFFFFFFB0
00006EFFFFFFFFFFFF60
0000019DFFFFFFFFC500
00000000356776410000
ENDCHAR
STARTCHAR igrave
ENCODING 236
SWIDTH 255 0
DWIDTH 9 0
BBX 11 28 -2 0
BITMAP
06C940000000
2FFFFEA51000
7FFFFFFFFB30
AFFFFFFFFFD0
7FFFFFFFFFD0
049EFFFFFF90
000038DFFF20
000000036400
000000000000
00008DED9100
0005FFFFF800
0008FFFFFB00
0008FFFFFB00
0008FFFFFB00
0008FFFFFB00
0008FFFFFB00
0008FFFFFB00
0008FFFFFB00
0008FFFFFB00
0008FFFFFB00
0008FFFFFB00
0008FFFFFB00
0008FFFFFB00
0008FFFFFB00
0008FFFFFB00
0008FFFFFB00
0006FFFFF800
00009EFEA100
ENDCHAR
STARTCHAR iacute
ENCODING 237
SWIDTH 255 0
DWIDTH 9 0
BBX 12 28 0 0
BITMAP
00000027BB10
00038CFFFF90
08DFFFFFFFE0
5FFFFFFFFFF2
5FFFFFFFFFD1
1FFFFFFFB610
0AFFFA610000
017510000000
000000000000
008DED910000
05FFFFF80000
08FFFFFB0000
08FFFFFB0000
08FFFFFB0000
08FFFFFB0000
08FFFFFB0000
08FFFFFB0000
08FFFFFB0000
08FFFFFB0000
08FFFFFB0000
08FFFFFB0000
08FFFFFB0000
08FFFFFB0000
08FFFFFB0000
08FFFFFB0000
08FFFFFB0000
06FFFFF80000
009EFEA10000
ENDCHAR
STARTCHAR icircumflex
ENCODING 238
SWIDTH 255 0
DWIDTH 9 0
BBX 15 28 -3 0
BITMAP
0000049CA5100000
0049EFFFFFFA5100
3DFFFFFFFFFFFE50
8FFFFFFFFFFFFFC0
6FFFFFFFFFFFFFA0
1DFFFFB69FFFFF30
03CD9300018DE600
0000000000000000
0000000000000000
000008DED9100000
00005FFFFF800000
00008FFFFFB00000
00008FFFFFB00000
00008FFFFFB00000
00008FFFFFB00000
00008FFFFFB00000
00008FFFFFB00000
00008FFFFFB00000
00008FFFFFB00000
00008FFFFFB00000
00008FFFFFB00000
00008FFFFFB00000
00008FFFFFB00000
00008FFFFFB00000
00008FFFFFB00000
00008FFFFFB00000
00006FFFFF800000
000009EFEA100000
ENDCHAR
STARTCHAR idieresis
ENCODING 239
SWIDTH 255 0
DWIDTH 9 0
BBX 17 28 -4 0
BITMAP
05BCC9200008BCB800
3FFFFFA0007FFFFF60
6FFFFFE000BFFFFFA0
7FFFFFF000BFFFFFA0
6FFFFFE000AFFFFFA0
2EFFFF90005FFFFF50
027885000004888400
000000000000000000
000000000000000000
0000008DEDA1000000
000005FFFFF9000000
000008FFFFFB000000
000008FFFFFC000000
000008FFFFFC000000
000008FFFFFC000000
000008FFFFFC000000
000008FFFFFC000000
000008FFFFFC000000
000008FFFFFC000000
000008FFFFFC000000
000008FFFFFC000000
000008FFFFFC000000
000008FFFFFC000000
000008FFFFFC000000
000008FFFFFC000000
000008FFFFFB000000
000005FFFFF9000000
0000009EFEB2000000
ENDCHAR
STARTCHAR eth
ENCODING 240
SWIDTH 585 0
DWIDTH 21 0
BBX 21 30 0 -1
BITMAP
000000000007E700000000
00000018934FFF30000000
000000BFFFFFFD00000000
000003FFFFFFF400000000
000005FFFFFFFD20000000
000001AFFFFFFFE3000000
0000001EFFFFFFFE200000
000000AFFFAFFFFFC00000
000000CFF604EFFFF80000
0000001970003EFFFF2000
00000001578625FFFF9000
000002AFFFFFFBBFFFE100
00006FFFFFFFFFFFFFF500
0008FFFFFFFFFFFFFFF900
005FFFFFFFFFFFFFFFFC00
01EFFFFFFFFFFFFFFFFE00
06FFFFFFE868EFFFFFFF10
0BFFFFFC10001CFFFFFF20
0EFFFFF5000004FFFFFF20
1FFFFFF2000001FFFFFF20
0FFFFFF3000002FFFFFF10
0EFFFFF8000008FFFFFE00
0AFFFFFF81018FFFFFF900
05FFFFFFFFEFFFFFFFF400
00CFFFFFFFFFFFFFFFA000
003EFFFFFFFFFFFFFD2000
0004EFFFFFFFFFFFE30000
00002CFFFFFFFFFD200000
0000005CFFFFFD70000000
0000000013542000000000
ENDCHAR
STARTCHAR ntilde
ENCODING 241
SWIDTH 606 0
DWIDTH 22 0
BBX 20 28 1 0
BITMAP
0000039CB81003B80000
00007FFFFFE53EFFB000
0005FFFFFFFFFFFFF300
000EFFFFFFFFFFFFD000
002FFFFEEFFFFFFF4000
0008FFD12CFFFFE50000
000059200059A7100000
00000000000000000000
00000000000000000000
09DEEA104ADEC8200000
6FFFFF88FFFFFFF80000
8FFFFFEFFFFFFFFFA000
8FFFFFFFFFFFFFFFF700
8FFFFFFFFFFFFFFFFF20
8FFFFFFFFFFFFFFFFF90
8FFFFFFFA66BFFFFFFE0
8FFFFFF600009FFFFFF3
8FFFFFE000002FFFFFF4
8FFFFFB000000FFFFFF5
8FFFFFB000000EFFFFF6
8FFFFFB000000EFFFFF6
8FFFFFB000000EFFFFF6
8FFFFFB000000EFFFFF6
8FFFFFB000000EFFFFF6
8FFFFFB000000EFFFFF6
8FFFFFB000000EFFFFF5
5FFFFF8000000BFFFFF3
09DEEA10000002BEED70
ENDCHAR
STARTCHAR ograve
ENCODING 242
SWIDTH 600 0
DWIDTH 22 0
BBX 21 29 0 -1
BITMAP
0000005C95100000000000
000001EFFFFB6100000000
000005FFFFFFFFC4000000
000008FFFFFFFFFF000000
000005FFFFFFFFFF000000
00000038DFFFFFFB000000
00000000038CFFF4000000
0000000000002650000000
0000000024654100000000
0000005CFFFFFEA3000000
00002CFFFFFFFFFF800000
0003EFFFFFFFFFFFFB0000
002EFFFFFFFFFFFFFFA000
00BFFFFFFFFFFFFFFFF500
04FFFFFFFFFFFFFFFFFD00
09FFFFFFC3016EFFFFFF30
0DFFFFFC000003FFFFFF80
0FFFFFF6000000CFFFFF90
1FFFFFF4000000AFFFFFA0
0FFFFFF6000000CFFFFFA0
0DFFFFFC100005FFFFFF70
09FFFFFFD5128FFFFFFF40
03FFFFFFFFFFFFFFFFFD00
00AFFFFFFFFFFFFFFFF500
001DFFFFFFFFFFFFFFA000
0002EFFFFFFFFFFFFB0000
00002BFFFFFFFFFF800000
0000004BFFFFFE93000000
0000000013543000000000
ENDCHAR
STARTCHAR oacute
ENCODING 243
SWIDTH 600 0
DWIDTH 22 0
BBX 21 29 0 -1
BITMAP
00000000000038C9000000
00000000049DFFFF500000
00000019EFFFFFFFA00000
0000009FFFFFFFFFD00000
0000009FFFFFFFFFB00000
0000005FFFFFFEA5000000
0000000DFFE95000000000
0000000274000000000000
0000000024654100000000
0000005CFFFFFEA3000000
00002CFFFFFFFFFF800000
0003EFFFFFFFFFFFFB0000
002EFFFFFFFFFFFFFFA000
00BFFFFFFFFFFFFFFFF500
04FFFFFFFFFFFFFFFFFD00
09FFFFFFC3016EFFFFFF30
0DFFFFFC000003FFFFFF80
0FFFFFF6000000CFFFFF90
1FFFFFF4000000AFFFFFA0
0FFFFFF6000000CFFFFFA0
0DFFFFFC100005FFFFFF70
09FFFFFFD5128FFFFFFF40
03FFFFFFFFFFFFFFFFFD00
00AFFFFFFFFFFFFFFFF500
001DFFFFFFFFFFFFFFA000
0002EFFFFFFFFFFFFB0000
00002BFFFFFFFFFF800000
0000004BFFFFFE93000000
0000000013543000000000
ENDCHAR
STARTCHAR ocircumflex
ENCODING 244
SWIDTH 600 0
DWIDTH 22 0
BBX 21 29 0 -1
BITMAP
0000000027CB7200000000
0000038DFFFFFFC7200000
0000BFFFFFFFFFFFF80000
0004FFFFFFFFFFFFFF1000
0001FFFFFFFFFFFFFE0000
00009FFFFD77EFFFF70000
00001ADA500006CFA00000
0000000000000000000000
0000000024654100000000
0000005CFFFFFEA3000000
00002CFFFFFFFFFF800000
0003EFFFFFFFFFFFFB0000
002EFFFFFFFFFFFFFFA000
00BFFFFFFFFFFFFFFFF500
04FFFFFFFFFFFFFFFFFD00
09FFFFFFC3016EFFFFFF30
0DFFFFFC000003FFFFFF80
0FFFFFF6000000CFFFFF90
1FFFFFF4000000AFFFFFA0
0FFFFFF6000000CFFFFFA0
0DFFFFFC100005FFFFFF70
09FFFFFFD5128FFFFFFF40
03FFFFFFFFFFFFFFFFFD00
00AFFFFFFFFFFFFFFFF500
001DFFFFFFFFFFFFFFA000
0002EFFFFFFFFFFFFB0000
00002BFFFFFFFFFF800000
0000004BFFFFFE93000000
0000000013543000000000
ENDCHAR
STARTCHAR otilde
ENCODING 245
SWIDTH 600 0
DWIDTH 22 0
BBX 21 29 0 -1
BITMAP
0000004ACB71005C700000
000008FFFFFD34FFF90000
00007FFFFFFFFFFFFF1000
0002FFFFFFFFFFFFFB0000
0004FFFFEFFFFFFFE20000
0000AFFB03DFFFFE300000
0000069100169961000000
0000000000000000000000
0000000024654100000000
0000005CFFFFFEA3000000
00002CFFFFFFFFFF800000
0003EFFFFFFFFFFFFB0000
002EFFFFFFFFFFFFFFA000
00BFFFFFFFFFFFFFFFF500
04FFFFFFFFFFFFFFFFFD00
09FFFFFFC3016EFFFFFF30
0DFFFFFC000003FFFFFF80
0FFFFFF6000000CFFFFF90
1FFFFFF4000000AFFFFFA0
0FFFFFF6000000CFFFFFA0
0DFFFFFC100005FFFFFF70
09FFFFFFD5128FFFFFFF40
03FFFFFFFFFFFFFFFFFD00
00AFFFFFFFFFFFFFFFF500
001DFFFFFFFFFFFFFFA000
0002EFFFFFFFFFFFFB0000
00002BFFFFFFFFFF800000
0000004BFFFFFE93000000
0000000013543000000000
ENDCHAR
STARTCHAR odieresis
ENCODING 246
SWIDTH 600 0
DWIDTH 22 0
BBX 21 29 0 -1
BITMAP
0005BCC9200008BCB80000
002FFFFFB0007FFFFF6000
006FFFFFE000AFFFFFA000
006FFFFFF000BFFFFFB000
006FFFFFE000AFFFFFA000
001EFFFF90005FFFFF5000
0002788500000488840000
0000000000000000000000
0000000024654100000000
0000005CFFFFFEA3000000
00002CFFFFFFFFFF800000
0003EFFFFFFFFFFFFB0000
002EFFFFFFFFFFFFFFA000
00BFFFFFFFFFFFFFFFF500
04FFFFFFFFFFFFFFFFFD00
09FFFFFFC3016EFFFFFF30
0DFFFFFC000003FFFFFF80
0FFFFFF6000000CFFFFF90
1FFFFFF4000000AFFFFFA0
0FFFFFF6000000CFFFFFA0
0DFFFFFC100005FFFFFF70
09FFFFFFD5128FFFFFFF40
03FFFFFFFFFFFFFFFFFD00
00AFFFFFFFFFFFFFFFF500
001DFFFFFFFFFFFFFFA000
0002EFFFFFFFFFFFFB0000
00002BFFFFFFFFFF800000
0000004BFFFFFE93000000
0000000013543000000000
ENDCHAR
STARTCHAR divide
ENCODING 247
SWIDTH 503 0
DWIDTH 18 0
BBX 18 20 0 0
BITMAP
000000179971000000
0000008FFFFB000000
000000CFFFFE000000
000000DFFFFF000000
000000BFFFFD000000
0000004EFFF6000000
000000013310000000
015777777777777510
0CFFFFFFFFFFFFFFD0
1FFFFFFFFFFFFFFFF2
1FFFFFFFFFFFFFFFF3
0EFFFFFFFFFFFFFFF1
039BBBBBBBBBBBBA40
000000000000000000
0000002BDEB3000000
000000AFFFFC000000
000000DFFFFE000000
000000DFFFFE000000
000000AFFFFC000000
0000002ADEB3000000
ENDCHAR
STARTCHAR oslash
ENCODING 248
SWIDTH 600 0
DWIDTH 22 0
BBX 21 31 0 -6
BITMAP
0000000000000018720000
00000000000000BFFF9000
00000000000004FFFFF800
0000000000000BFFFFFA00
0000000000004FFFFFF500
000000001455BFFFFFD000
0000005CFFFFFFFFFF6000
00002CFFFFFFFFFFFE0000
0003EFFFFFFFFFFFFC0000
002DFFFFFFFFFFFFFFA000
00BFFFFFFFFFFFFFFFF500
04FFFFFFFFFFFFFFFFFD00
09FFFFFFC4117EFFFFFF30
0DFFFFFC000004FFFFFF70
0FFFFFF6000000CFFFFF90
1FFFFFF4000000AFFFFFA0
0FFFFFF6000000CFFFFFA0
0DFFFFFC000004FFFFFF70
09FFFFFFC4028FFFFFFF40
04FFFFFFFFFFFFFFFFFD00
00BFFFFFFFFFFFFFFFF500
002EFFFFFFFFFFFFFFA000
0003FFFFFFFFFFFFFB1000
0005FFFFFFFFFFFF900000
000CFFFFFFFFFEA3000000
004FFFFFF6553000000000
00BFFFFFC0000000000000
01FFFFFF50000000000000
01EFFFFD00000000000000
004DFFF500000000000000
0000485000000000000000
ENDCHAR
STARTCHAR ugrave
ENCODING 249
SWIDTH 606 0
DWIDTH 22 0
BBX 20 28 1 0
BITMAP
000005C9510000000000
00001EFFFEA610000000
00006FFFFFFFFB400000
00008FFFFFFFFFE00000
00006FFFFFFFFFE00000
0000038DFFFFFFA00000
0000000038CFFF400000
00000000000264000000
00000000000000000000
09EFEA10000003CFFD80
6FFFFF9000000BFFFFF3
8FFFFFB000000EFFFFF5
8FFFFFC000000EFFFFF6
8FFFFFC000000EFFFFF6
8FFFFFC000000EFFFFF6
8FFFFFC000000EFFFFF6
8FFFFFC000000EFFFFF6
8FFFFFC000000EFFFFF6
8FFFFFC000000EFFFFF6
7FFFFFE000002FFFFFF6
6FFFFFF70000AFFFFFF6
2FFFFFFFA77CFFFFFFF6
0CFFFFFFFFFFFFFFFFF6
05FFFFFFFFFFFFFFFFF6
00AFFFFFFFFFFFFFFFF6
001BFFFFFFFFFEFFFFF5
00019FFFFFFE5BFFFFF3
0000038CDD9203BEED70
ENDCHAR
STARTCHAR uacute
ENCODING 250
SWIDTH 606 0
DWIDTH 22 0
BBX 20 28 1 0
BITMAP
00000000000159C40000
0000000026BFFFFD0000
0000005CFFFFFFFF4000
000001FFFFFFFFFF7000
000000FFFFFFFFFF4000
000000BFFFFFFD830000
0000005FFFC730000000
00000005620000000000
00000000000000000000
09EFEA10000003CFFD80
6FFFFF9000000BFFFFF3
8FFFFFB000000EFFFFF5
8FFFFFC000000EFFFFF6
8FFFFFC000000EFFFFF6
8FFFFFC000000EFFFFF6
8FFFFFC000000EFFFFF6
8FFFFFC000000EFFFFF6
8FFFFFC000000EFFFFF6
8FFFFFC000000EFFFFF6
7FFFFFE000002FFFFFF6
6FFFFFF70000AFFFFFF6
2FFFFFFFA77CFFFFFFF6
0CFFFFFFFFFFFFFFFFF6
05FFFFFFFFFFFFFFFFF6
00AFFFFFFFFFFFFFFFF6
001BFFFFFFFFFEFFFFF5
00019FFFFFFE5BFFFFF3
0000038CDD9203BEED70
ENDCHAR
STARTCHAR ucircumflex
ENCODING 251
SWIDTH 606 0
DWIDTH 22 0
BBX 20 28 1 0
BITMAP
000000027BC730000000
000027CFFFFFFD830000
0009FFFFFFFFFFFFA000
001FFFFFFFFFFFFFF300
000EFFFFFFFFFFFFF100
0007FFFFE86DFFFF9000
00009DB500005BFB1000
00000000000000000000
00000000000000000000
09EFEA10000003CFFD80
6FFFFF9000000BFFFFF3
8FFFFFB000000EFFFFF5
8FFFFFC000000EFFFFF6
8FFFFFC000000EFFFFF6
8FFFFFC000000EFFFFF6
8FFFFFC000000EFFFFF6
8FFFFFC000000EFFFFF6
8FFFFFC000000EFFFFF6
8FFFFFC000000EFFFFF6
7FFFFFE000002FFFFFF6
6FFFFFF70000AFFFFFF6
2FFFFFFFA77CFFFFFFF6
0CFFFFFFFFFFFFFFFFF6
05FFFFFFFFFFFFFFFFF6
00AFFFFFFFFFFFFFFFF6
001BFFFFFFFFFEFFFFF5
00019FFFFFFE5BFFFFF3
0000038CDD9203BEED70
ENDCHAR
STARTCHAR udieresis
ENCODING 252
SWIDTH 606 0
DWIDTH 22 0
BBX 20 28 1 0
BITMAP
004ACCA300006BCC9100
01EFFFFD0004FFFFF900
03FFFFFF2008FFFFFD00
04FFFFFF3008FFFFFE00
03FFFFFF2007FFFFFD00
00DFFFFC0003FFFFF800
00178861000037885000
00000000000000000000
00000000000000000000
09EFEA10000003CFFD80
6FFFFF9000000BFFFFF3
8FFFFFB000000EFFFFF5
8FFFFFC000000EFFFFF6
8FFFFFC000000EFFFFF6
8FFFFFC000000EFFFFF6
8FFFFFC000000EFFFFF6
8FFFFFC000000EFFFFF6
8FFFFFC000000EFFFFF6
8FFFFFC000000EFFFFF6
7FFFFFE000002FFFFFF6
6FFFFFF70000AFFFFFF6
2FFFFFFFA77CFFFFFFF6
0CFFFFFFFFFFFFFFFFF6
05FFFFFFFFFFFFFFFFF6
00AFFFFFFFFFFFFFFFF6
001BFFFFFFFFFEFFFFF5
00019FFFFFFE5BFFFFF3
0000038CDD9203BEED70
ENDCHAR
STARTCHAR yacute
ENCODING 253
SWIDTH 604 0
DWIDTH 22 0
BBX 22 37 0 -9
BITMAP
00000000000016AC300000
00000000027BFFFFB00000
00000006DFFFFFFFF20000
0000003FFFFFFFFFF50000
0000002FFFFFFFFFE30000
0000000DFFFFFFC7200000
00000007FFFB7200000000
0000000065100000000000
0002510000000000230000
019FFE2000000005FFE810
1DFFFFB00000000DFFFFC0
6FFFFFF50000005FFFFFF2
3FFFFFFD100000CFFFFFE1
0AFFFFFF800004FFFFFF80
02FFFFFFE2000BFFFFFF20
008FFFFFFA003FFFFFFA00
001DFFFFFF409FFFFFF300
0005FFFFFFD2FFFFFFC000
0000BFFFFFFDFFFFFF5000
00002FFFFFFFFFFFFD0000
000008FFFFFFFFFFF60000
000001DFFFFFFFFFE10000
0000005FFFFFFFFF800000
0000000BFFFFFFFF200000
00000003FFFFFFFA000000
00000000BFFFFFF3000000
00000001FFFFFFB0000000
00000008FFFFFF50000000
0000001EFFFFFD00000000
0000006FFFFFF600000000
000000DFFFFFE100000000
000004FFFFFF8000000000
00000AFFFFFF1000000000
00000EFFFFF90000000000
00000BFFFFF30000000000
000001AFFFA00000000000
0000000266000000000000
ENDCHAR
STARTCHAR thorn
ENCODING 254
SWIDTH 580 0
DWIDTH 21 0
BBX 19 38 1 -9
BITMAP
01453000000000000000
2EFFFC00000000000000
7FFFFF30000000000000
8FFFFF40000000000000
8FFFFF50000000000000
8FFFFF50000000000000
8FFFFF50000000000000
8FFFFF50000000000000
8FFFFF50000000000000
8FFFFF50000000000000
8FFFFF539DEC93000000
8FFFFFAFFFFFFF910000
8FFFFFFFFFFFFFFC1000
8FFFFFFFFFFFFFFFB000
8FFFFFFFFFFFFFFFF800
8FFFFFFFFFFFFFFFFE10
8FFFFFFE868EFFFFFF70
8FFFFFF30003EFFFFFB0
8FFFFF9000008FFFFFD0
8FFFFF6000005FFFFFE0
8FFFFF9000008FFFFFD0
8FFFFFF30003EFFFFFB0
8FFFFFFE868FFFFFFF70
8FFFFFFFFFFFFFFFFF20
8FFFFFFFFFFFFFFFF800
8FFFFFFFFFFFFFFFC000
8FFFFFFFFFFFFFFC1000
8FFFFFBFFFFFFF910000
8FFFFF44ADEC93000000
8FFFFF40000000000000
8FFFFF40000000000000
8FFFFF40000000000000
8FFFFF40000000000000
8FFFFF40000000000000
8FFFFF40000000000000
6FFFFF20000000000000
1CFFF900000000000000
00121000000000000000
ENDCHAR
STARTCHAR ydieresis
ENCODING 255
SWIDTH 604 0
DWIDTH 22 0
BBX 22 37 0 -9
BITMAP
00018CCB600003ACCA4000
0009FFFFF4000DFFFFE100
000CFFFFF8002FFFFFF400
000DFFFFF9002FFFFFF400
000CFFFFF8001FFFFFF300
0007FFFFF3000BFFFFD000
0000588730000168871000
0000000000000000000000
0002510000000000230000
019FFE2000000005FFE810
1DFFFFB00000000DFFFFC0
6FFFFFF50000005FFFFFF2
3FFFFFFD100000CFFFFFE1
0AFFFFFF800004FFFFFF80
02FFFFFFE2000BFFFFFF20
008FFFFFFA003FFFFFFA00
001DFFFFFF409FFFFFF300
0005FFFFFFD2FFFFFFC000
0000BFFFFFFDFFFFFF5000
00002FFFFFFFFFFFFD0000
000008FFFFFFFFFFF60000
000001DFFFFFFFFFE10000
0000005FFFFFFFFF800000
0000000BFFFFFFFF200000
00000003FFFFFFFA000000
00000000BFFFFFF3000000
00000001FFFFFFB0000000
00000008FFFFFF50000000
0000001EFFFFFD00000000
0000006FFFFFF600000000
000000DFFFFFE100000000
000004FFFFFF8000000000
00000AFFFFFF1000000000
00000EFFFFF90000000000
00000BFFFFF30000000000
000001AFFFA00000000000
0000000266000000000000
ENDCHAR
STARTCHAR dotlessi
ENCODING 305
SWIDTH 255 0
DWIDTH 9 0
BBX 7 19 1 0
BITMAP
08DED910
5FFFFF80
8FFFFFB0
8FFFFFB0
8FFFFFB0
8FFFFFB0
8FFFFFB0
8FFFFFB0
8FFFFFB0
8FFFFFB0
8FFFFFB0
8FFFFFB0
8FFFFFB0
8FFFFFB0
8FFFFFB0
8FFFFFB0
8FFFFFB0
6FFFFF80
09EFEA10
ENDCHAR
STARTCHAR Lslash
ENCODING 321
SWIDTH 687 0
DWIDTH 25 0
BBX 23 27 1 0
BITMAP
000002554000000000000000
00007FFFFD10000000000000
0000DFFFFF50000000000000
0000EFFFFF60000000000000
0000EFFFFF60000000000000
0000EFFFFF60000000000000
0000EFFFFF60000000000000
0000EFFFFF60000000000000
0000EFFFFF60000000000000
0000EFFFFF76ADA000000000
0000EFFFFFFFFFF500000000
0001EFFFFFFFFFF900000000
28CFFFFFFFFFFFF900000000
EFFFFFFFFFFFFD8100000000
FFFFFFFFFFC6200000000000
CFFFFFFFFF60000000000000
4EEAFFFFFF60000000000000
0000EFFFFF60000000000000
0000EFFFFF60000000000000
0000EFFFFF60000000000000
0000EFFFFF60000000000000
0000EFFFFF95555555555200
0000EFFFFFFFFFFFFFFFFF70
0000EFFFFFFFFFFFFFFFFFC0
0000EFFFFFFFFFFFFFFFFFC0
0000BFFFFFFFFFFFFFFFFFB0
00002BEFFFFFFFFFFFFFFC30
ENDCHAR
STARTCHAR lslash
ENCODING 322
SWIDTH 468 0
DWIDTH 17 0
BBX 17 28 0 0
BITMAP
000005BDDA30000000
00001FFFFFC0000000
00003FFFFFF0000000
00004FFFFFF1000000
00004FFFFFF1000000
00004FFFFFF1000000
00004FFFFFF1000000
00004FFFFFF1000000
00004FFFFFF1000000
00004FFFFFF1000000
00004FFFFFF47BD500
00004FFFFFFFFFFE00
00006FFFFFFFFFFF30
04AEFFFFFFFFFFFF30
4FFFFFFFFFFFFFB500
6FFFFFFFFFF9510000
3FFFFFFFFFF1000000
09FDBFFFFFF1000000
00004FFFFFF1000000
00004FFFFFF1000000
00004FFFFFF1000000
00003FFFFFF5100000
00002FFFFFFFFC1000
00000FFFFFFFFF6000
00000CFFFFFFFF8000
000007FFFFFFFF8000
000001CFFFFFFF6000
00000006ADEFFB1000
ENDCHAR
STARTCHAR OE
ENCODING 338
SWIDTH 1092 0
DWIDTH 39 0
BBX 39 27 0 0
BITMAP
0000000000134666666666666666666666664000
000000004AEFFFFFFFFFFFFFFFFFFFFFFFFFFD00
0000002BFFFFFFFFFFFFFFFFFFFFFFFFFFFFFF40
000004EFFFFFFFFFFFFFFFFFFFFFFFFFFFFFFF60
00005FFFFFFFFFFFFFFFFFFFFFFFFFFFFFFFFF50
0003FFFFFFFFFFFFFFFFFFFFFFFFFFFFFFFFFF20
001EFFFFFFFFFDDDDDFFFFFFFFFFFFFFFFFFD700
008FFFFFFFD5000003FFFFFF2000000000000000
01EFFFFFFA00000003FFFFFF2000000000000000
06FFFFFFA000000003FFFFFF2000000000000000
0AFFFFFE1000000003FFFFFF7666666640000000
0DFFFFF90000000003FFFFFFFFFFFFFFFD100000
0FFFFFF60000000003FFFFFFFFFFFFFFFF500000
1FFFFFF40000000003FFFFFFFFFFFFFFFF600000
0FFFFFF50000000003FFFFFFFFFFFFFFFF600000
0EFFFFF70000000003FFFFFFFFFFFFFFFF300000
0CFFFFFB0000000003FFFFFFFFFFFFFFD7000000
08FFFFFF4000000003FFFFFF2000000000000000
04FFFFFFE200000003FFFFFF2000000000000000
00CFFFFFFE40000003FFFFFF2000000000000000
004FFFFFFFFB644446FFFFFF7666666666664000
0009FFFFFFFFFFFFFFFFFFFFFFFFFFFFFFFFFD00
0000CFFFFFFFFFFFFFFFFFFFFFFFFFFFFFFFFF40
00001CFFFFFFFFFFFFFFFFFFFFFFFFFFFFFFFF60
000001AFFFFFFFFFFFFFFFFFFFFFFFFFFFFFFF50
00000004CFFFFFFFFFFFFFFFFFFFFFFFFFFFFF20
00000000038BDFFFFFFFFFFFFFFFFFFFFFFFD700
ENDCHAR
STARTCHAR oe
ENCODING 339
SWIDTH 944 0
DWIDTH 34 0
BBX 34 21 0 -1
BITMAP
0000000013442000000000012100000000
0000005BFFFFFE9200017BEFFFEB600000
00002BFFFFFFFFFF706EFFFFFFFFFD3000
0003EFFFFFFFFFFFFDFFFFFFFFFFFFE300
002EFFFFFFFFFFFFFFFFFFFFFFFFFFFD10
00BFFFFFFFFFFFFFFFFFFFFFFFFFFFFF70
04FFFFFFFFFFFFFFFFFFFFF857EFFFFFD0
0AFFFFFFC4127EFFFFFFFD20004FFFFFF0
0EFFFFFC000004FFFFFFF500003FFFFFF1
1FFFFFF6000000DFFFFFFCBBBBEFFFFFE0
2FFFFFF4000000BFFFFFFFFFFFFFFFFF90
1FFFFFF5000000DFFFFFFFFFFFFFFFFC10
0EFFFFFC000004FFFFFFF9777777775000
0AFFFFFFB3017EFFFFFFF9000000000000
05FFFFFFFFFFFFFFFFFFFFC53347CFC200
00BFFFFFFFFFFFFFFFFFFFFFFFFFFFFA00
002EFFFFFFFFFFFFFFFFFFFFFFFFFFFF10
0003EFFFFFFFFFFFFEFFFFFFFFFFFFFF10
00002CFFFFFFFFFF808FFFFFFFFFFFF700
0000006CFFFFFEA300028DFFFFFEB72000
0000000024653000000000133310000000
ENDCHAR
STARTCHAR Scaron
ENCODING 352
SWIDTH 583 0
DWIDTH 21 0
BBX 20 36 1 -1
BITMAP
0006EE9200039ED40000
002FFFFFB6BFFFFE2000
008FFFFFFFFFFFFF8000
00AFFFFFFFFFFFFFA000
003DFFFFFFFFFFFD3000
000049EFFFFFD9400000
000000049B8300000000
00000000000000000000
0000037ABCB962000000
0002BFFFFFFFFFB30000
004EFFFFFFFFFFFF6000
02EFFFFFFFFFFFFFF400
0BFFFFFFFFFFFFFFF800
2FFFFFFFFFFFFFFFF300
7FFFFFFA324BFFFF8000
9FFFFFD000007EF90000
9FFFFFC0000000100000
7FFFFFF5000000000000
4FFFFFFFC74100000000
0EFFFFFFFFFFC8300000
05FFFFFFFFFFFFFB3000
008FFFFFFFFFFFFFF500
0005CFFFFFFFFFFFFE20
000004AFFFFFFFFFFF80
0000000158CFFFFFFFD0
000000000003DFFFFFF0
04DF910000006FFFFFF1
3EFFFC1000007FFFFFF0
DFFFFFD30002DFFFFFD0
FFFFFFFFB9AFFFFFFF90
AFFFFFFFFFFFFFFFFF30
1DFFFFFFFFFFFFFFF900
03EFFFFFFFFFFFFFB100
001BFFFFFFFFFFF80000
00004AFFFFFFE9200000
00000003554200000000
ENDCHAR
STARTCHAR scaron
ENCODING 353
SWIDTH 489 0
DWIDTH 18 0
BBX 16 29 1 -1
BITMAP
04CB5000017BA200
2EFFFE739EFFFD10
8FFFFFFFFFFFFF60
BFFFFFFFFFFFFF90
6FFFFFFFFFFFFF50
027CFFFFFFFB6100
000027CEB6100000
0000000000000000
0000013454100000
0007CFFFFFFD8200
01CFFFFFFFFFFF70
0BFFFFFFFFFFFFC0
2FFFFFFFFFFFFF80
6FFFFFEBACFFFE10
6FFFFF400017A300
5FFFFFD630000000
2FFFFFFFFFC72000
0CFFFFFFFFFFF910
03FFFFFFFFFFFFA0
005EFFFFFFFFFFF3
00017DFFFFFFFFF8
027400369EFFFFFA
1EFFD60004FFFFFA
9FFFFFECCFFFFFF8
FFFFFFFFFFFFFFF4
EFFFFFFFFFFFFFC0
3CFFFFFFFFFFFD20
005AEFFFFFFC6100
0000034543100000
ENDCHAR
STARTCHAR Ydieresis
ENCODING 376
SWIDTH 686 0
DWIDTH 25 0
BBX 25 36 0 -1
BITMAP
00001BEFEB10004CFFE8000000
00008FFFFF7000DFFFFF300000
0000BFFFFFA000FFFFFF600000
0000BFFFFFA000FFFFFF600000
0000AFFFFF9000EFFFFF500000
00004FFFFF30008FFFFD100000
00000255510000035540000000
00000000000000000000000000
0018B600000000000019B50000
04DFFF600000000000BFFFC100
2EFFFFE20000000006FFFFFC00
6FFFFFFB000000001EFFFFFF10
2FFFFFFF50000000AFFFFFFC00
08FFFFFFE1000004FFFFFFF400
01DFFFFFF900001DFFFFFF9000
004FFFFFFF30008FFFFFFD1000
0008FFFFFFC003FFFFFFF40000
0001DFFFFFF70CFFFFFF900000
00004FFFFFFE8FFFFFFD100000
000008FFFFFFFFFFFFF4000000
000001DFFFFFFFFFFF90000000
0000003FFFFFFFFFFD10000000
00000008FFFFFFFFF400000000
00000001DFFFFFFF9000000000
000000003FFFFFFD1000000000
000000000DFFFFF80000000000
000000000DFFFFF80000000000
000000000DFFFFF80000000000
000000000DFFFFF80000000000
000000000DFFFFF80000000000
000000000DFFFFF80000000000
000000000DFFFFF80000000000
000000000DFFFFF80000000000
000000000AFFFFF50000000000
0000000003CFFFA00000000000
00000000000010000000000000
ENDCHAR
STARTCHAR Zcaron
ENCODING 381
SWIDTH 643 0
DWIDTH 23 0
BBX 23 36 0 -1
BITMAP
000005EE9300039EE5000000
00002FFFFFB6BFFFFF200000
00007FFFFFFFFFFFFF800000
00009FFFFFFFFFFFFFB00000
00003DFFFFFFFFFFFD400000
00000049DFFFFFE940000000
00000000038B940000000000
000000000000000000000000
004666666666666666640000
09FFFFFFFFFFFFFFFFFFB000
0EFFFFFFFFFFFFFFFFFFF700
1FFFFFFFFFFFFFFFFFFFFB00
1FFFFFFFFFFFFFFFFFFFFA00
0CFFFFFFFFFFFFFFFFFFF400
03ACDDDDDDDDEFFFFFFF8000
000000000001EFFFFFFC0000
00000000000BFFFFFFE20000
00000000007FFFFFFF500000
0000000003FFFFFFF9000000
000000001DFFFFFFD1000000
000000009FFFFFFF30000000
00000005FFFFFFF700000000
0000002EFFFFFFB000000000
000000BFFFFFFE1000000000
000007FFFFFFF40000000000
00003FFFFFFF900000000000
0001DFFFFFFC000000000000
000AFFFFFFE2000000000000
006FFFFFFF82222222220000
02EFFFFFFFFFFFFFFFFFF700
0BFFFFFFFFFFFFFFFFFFFF10
1FFFFFFFFFFFFFFFFFFFFF30
0FFFFFFFFFFFFFFFFFFFFF30
0AFFFFFFFFFFFFFFFFFFFF10
019FFFFFFFFFFFFFFFFFE700
000011111111111111110000
ENDCHAR
STARTCHAR zcaron
ENCODING 382
SWIDTH 586 0
DWIDTH 21 0
BBX 21 28 0 0
BITMAP
000019C82000049B600000
00009FFFFA46CFFFF50000
0001FFFFFFFFFFFFFD0000
0004FFFFFFFFFFFFFF1000
0001DFFFFFFFFFFFFB0000
000005AEFFFFFFD9400000
000000005AED9400000000
0000000000000000000000
0000000000000000000000
006DEFFFFFFFFFFFEC4000
01FFFFFFFFFFFFFFFFF300
04FFFFFFFFFFFFFFFFF900
04FFFFFFFFFFFFFFFFFA00
03FFFFFFFFFFFFFFFFF600
00BFFFFFFFFFFFFFFFA000
0003555559FFFFFFFA0000
000000006FFFFFFF800000
00000007FFFFFFF7000000
0000009FFFFFFF60000000
00001BFFFFFFF500000000
0001CFFFFFFE4000000000
002DFFFFFFF85555552000
02DFFFFFFFFFFFFFFFF900
0BFFFFFFFFFFFFFFFFFF10
1FFFFFFFFFFFFFFFFFFF30
0EFFFFFFFFFFFFFFFFFF20
08FFFFFFFFFFFFFFFFFF10
008DFFFFFFFFFFFFFFD500
ENDCHAR
STARTCHAR florin
ENCODING 402
SWIDTH 529 0
DWIDTH 19 0
BBX 19 36 0 -9
BITMAP
000000000000379AA700
00000000002BFFFFFF50
0000000003EFFFFFFF70
000000002EFFFFFFFF70
00000000BFFFFFFFFF40
00000003FFFFFFFFFD00
00000007FFFFFE975100
0000000AFFFFF8000000
0000000DFFFFF7000000
00018CCFFFFFFCBCB800
000AFFFFFFFFFFFFFF50
000FFFFFFFFFFFFFFF70
002FFFFFFFFFFFFFFF70
002FFFFFFFFFFFFFFF40
000DFFFFFFFFFFFFFB00
000156BFFFFFB5653000
000000AFFFFF90000000
000000BFFFFF70000000
000000DFFFFF50000000
000000FFFFFF30000000
000001FFFFFF20000000
000003FFFFFF00000000
000005FFFFFD00000000
000006FFFFFC00000000
000008FFFFFA00000000
00000AFFFFF800000000
00000CFFFFF700000000
00000DFFFFF500000000
00004FFFFFF200000000
07DFFFFFFFD000000000
6FFFFFFFFF7000000000
BFFFFFFFFE1000000000
EFFFFFFFF50000000000
EFFFFFFE600000000000
6EFFEC82000000000000
00100000000000000000
ENDCHAR
STARTCHAR circumflex
ENCODING 710
SWIDTH 603 0
DWIDTH 22 0
BBX 16 7 3 21
BITMAP
0000038CB7200000
0038DFFFFFFC7200
1BFFFFFFFFFFFF80
4FFFFFFFFFFFFFF1
2FFFFFFFFFFFFFE0
0AFFFFD68EFFFF70
01ADA400006CF900
ENDCHAR
STARTCHAR caron
ENCODING 711
SWIDTH 600 0
DWIDTH 22 0
BBX 15 7 3 21
BITMAP
01AC82000049B600
0AFFFFA46CFFFF50
2FFFFFFFFFFFFFC0
4FFFFFFFFFFFFFF0
1DFFFFFFFFFFFFA0
015AEFFFFFFD8300
000015AED8300000
ENDCHAR
STARTCHAR dotaccent
ENCODING 729
SWIDTH 285 0
DWIDTH 10 0
BBX 7 7 2 25
BITMAP
05898300
8FFFFF20
CFFFFF60
DFFFFF70
CFFFFF60
8FFFFF20
07AA9400
ENDCHAR
STARTCHAR ring
ENCODING 730
SWIDTH 378 0
DWIDTH 14 0
BBX 10 11 2 23
BITMAP
0000100000
006DFFB300
0AFFFFFF50
5FFC68EFE1
BFD1004FF5
CFA0001FF6
BFC0004FF5
6FFB56EFE1
0BFFFFFF60
008EFFD400
0000320000
ENDCHAR
STARTCHAR ogonek
ENCODING 731
SWIDTH 570 0
DWIDTH 21 0
BBX 8 9 6 -7
BITMAP
00001000
019EFD60
1CFFFFF4
7FFFFFF2
AFFA3840
AFFB4A50
6FFFFFF3
0BFFFFF3
007DEB40
ENDCHAR
STARTCHAR tilde
ENCODING 732
SWIDTH 584 0
DWIDTH 21 0
BBX 16 7 2 21
BITMAP
00039CB81003C800
007FFFFFE43EFFB0
05FFFFFFFFFFFFF2
0EFFFFFFFFFFFFC0
2FFFFEEFFFFFFF40
08FFC12CFFFFE500
0059200059A71000
ENDCHAR
STARTCHAR endash
ENCODING 8211
SWIDTH 561 0
DWIDTH 20 0
BBX 20 7 0 6
BITMAP
06BCCCCCCCCCCCCCCB70
3FFFFFFFFFFFFFFFFFF6
6FFFFFFFFFFFFFFFFFF9
6FFFFFFFFFFFFFFFFFF9
4FFFFFFFFFFFFFFFFFF7
0AFFFFFFFFFFFFFFFFC1
00011111111111111000
ENDCHAR
STARTCHAR emdash
ENCODING 8212
SWIDTH 693 0
DWIDTH 25 0
BBX 25 7 0 6
BITMAP
06BCCCCCCCCCCCCCCCCCCCB500
3FFFFFFFFFFFFFFFFFFFFFFF20
6FFFFFFFFFFFFFFFFFFFFFFF50
6FFFFFFFFFFFFFFFFFFFFFFF60
4FFFFFFFFFFFFFFFFFFFFFFF40
0AFFFFFFFFFFFFFFFFFFFFFA00
00011111111111111111110000
ENDCHAR
STARTCHAR quoteleft
ENCODING 8216
SWIDTH 237 0
DWIDTH 9 0
BBX 8 14 0 13
BITMAP
00000251
0001AFF7
001CFFF7
008FFF91
01FFFA00
07FFF500
0BFFFA30
0EFFFFF4
1FFFFFF8
1FFFFFF9
1FFFFFF9
0DFFFFF6
04CFFFA1
00001000
ENDCHAR
STARTCHAR quoteright
ENCODING 8217
SWIDTH 237 0
DWIDTH 9 0
BBX 8 13 0 14
BITMAP
00256410
07FFFFD2
0EFFFFF7
1FFFFFF9
1FFFFFF9
0EFFFFF8
06FFFFF6
001CFFF3
000DFFD0
005FFF70
09FFFD00
0FFFE200
0DE92000
ENDCHAR
STARTCHAR quotesinglbase
ENCODING 8218
SWIDTH 237 0
DWIDTH 9 0
BBX 8 13 0 -6
BITMAP
017AA930
0AFFFFF4
0FFFFFF8
1FFFFFF9
1FFFFFF9
0DFFFFF8
03BFFFF5
000BFFF2
001EFFB0
008FFF40
0DFFFA00
0FFFB100
09A50000
ENDCHAR
STARTCHAR quotedblleft
ENCODING 8220
SWIDTH 482 0
DWIDTH 17 0
BBX 17 14 0 13
BITMAP
000002510000003500
0001AFF700002CFF50
001CFFF70002EFFF50
008FFF91000BFFF700
01FFFA00004FFF7000
07FFF50000AFFF2000
0BFFFA3000EFFF8200
0EFFFFF402FFFFFE10
1FFFFFF804FFFFFF50
1FFFFFF905FFFFFF70
1FFFFFF904FFFFFF60
0DFFFFF601FFFFFF30
04CFFFA1006DFFD700
000010000000100000
ENDCHAR
STARTCHAR quotedblright
ENCODING 8221
SWIDTH 482 0
DWIDTH 17 0
BBX 17 13 0 14
BITMAP
002564100003554000
07FFFFD200BFFFFC00
0EFFFFF702FFFFFF40
1FFFFFF904FFFFFF60
1FFFFFF904FFFFFF60
0EFFFFF802FFFFFF50
06FFFFF600AFFFFF30
001CFFF30002FFFF00
000DFFD00001FFFA00
005FFF700008FFF400
09FFFD0001BFFFA000
0FFFE20004FFFC1000
0DE9200002FE810000
ENDCHAR
STARTCHAR quotedblbase
ENCODING 8222
SWIDTH 482 0
DWIDTH 17 0
BBX 17 13 0 -6
BITMAP
017AA9300028AA8200
0AFFFFF400DFFFFE10
0FFFFFF803FFFFFF50
1FFFFFF904FFFFFF70
1FFFFFF904FFFFFF60
0DFFFFF801FFFFFF50
03BFFFF5005DFFFF20
000BFFF20000FFFE00
001EFFB00003FFF800
008FFF40001BFFE200
0DFFFA0002FFFF6000
0FFFB10004FFF80000
09A5000001B9300000
ENDCHAR
STARTCHAR dagger
ENCODING 8224
SWIDTH 527 0
DWIDTH 19 0
BBX 19 34 0 -7
BITMAP
00000008CDC800000000
0000006FFFFF50000000
0000009FFFFF90000000
0000009FFFFF90000000
0000009FFFFF90000000
0000009FFFFF90000000
0000009FFFFF90000000
0000009FFFFF90000000
026764BFFFFFA4676100
2EFFFFFFFFFFFFFFFE10
6FFFFFFFFFFFFFFFFF50
7FFFFFFFFFFFFFFFFF60
5FFFFFFFFFFFFFFFFF50
1CFFFFFFFFFFFFFFFD10
003332AFFFFF92333000
0000009FFFFF90000000
0000009FFFFF90000000
0000009FFFFF90000000
0000009FFFFF90000000
0000009FFFFF90000000
0000009FFFFF90000000
0000009FFFFF90000000
0000009FFFFF90000000
0000009FFFFF90000000
0000009FFFFF90000000
0000009FFFFF90000000
0000009FFFFF90000000
0000009FFFFF90000000
0000009FFFFF90000000
0000009FFFFF90000000
0000009FFFFF90000000
0000009FFFFF80000000
0000006FFFFF50000000
00000007BCB700000000
ENDCHAR
STARTCHAR daggerdbl
ENCODING 8225
SWIDTH 527 0
DWIDTH 19 0
BBX 19 34 0 -7
BITMAP
00000008CDC800000000
0000006FFFFF50000000
0000009FFFFF90000000
0000009FFFFF90000000
0000009FFFFF90000000
0000009FFFFF90000000
0000009FFFFF90000000
0000009FFFFF90000000
026764BFFFFFA4676100
2EFFFFFFFFFFFFFFFE10
6FFFFFFFFFFFFFFFFF50
7FFFFFFFFFFFFFFFFF60
5FFFFFFFFFFFFFFFFF50
1CFFFFFFFFFFFFFFFD10
003332AFFFFF92333000
0000009FFFFF90000000
0000009FFFFF90000000
0000009FFFFF90000000
0000009FFFFF90000000
014543AFFFFFA3454000
2EFFFFFFFFFFFFFFFD10
6FFFFFFFFFFFFFFFFF50
7FFFFFFFFFFFFFFFFF60
6FFFFFFFFFFFFFFFFF50
1EFFFFFFFFFFFFFFFE10
014543AFFFFFA3454100
0000009FFFFF90000000
0000009FFFFF90000000
0000009FFFFF90000000
0000009FFFFF90000000
0000009FFFFF90000000
0000009FFFFF80000000
0000006FFFFF50000000
00000007BCB700000000
ENDCHAR
STARTCHAR bullet
ENCODING 8226
SWIDTH 342 0
DWIDTH 12 0
BBX 12 11 0 6
BITMAP
000279984000
008FFFFFFB10
05FFFFFFFFA0
0CFFFFFFFFF2
0FFFFFFFFFF5
1FFFFFFFFFF6
1FFFFFFFFFF5
0DFFFFFFFFF3
07FFFFFFFFC0
00BFFFFFFE30
0006ADDB8100
ENDCHAR
STARTCHAR ellipsis
ENCODING 8230
SWIDTH 911 0
DWIDTH 33 0
BBX 32 7 0 0
BITMAP
017AA9300000017AA95000000069A960
0AFFFFF4000009FFFFF5000007FFFFF7
0FFFFFF800000EFFFFFA00000CFFFFFC
1FFFFFF900000FFFFFFB00000DFFFFFD
1FFFFFF900000EFFFFFB00000CFFFFFD
0DFFFFF600000BFFFFF7000009FFFFFA
03CFFE90000002BEFEA1000001BFFEA2
ENDCHAR
STARTCHAR perthousand
ENCODING 8240
SWIDTH 1223 0
DWIDTH 44 0
BBX 42 30 1 -1
BITMAP
000000000000000000002000000000000000000000
00000000000000000004FD40000000000000000000
0000367630000000000DFF90000000000000000000
002BFFFFFC300000006FFF30000000000000000000
02EFFFFFFFE2000000DFFA00000000000000000000
0BFFFFFFFFFB000007FFF200000000000000000000
2FFFFFDFFFFF30001EFF9000000000000000000000
6FFFC101CFFF60007FFE1000000000000000000000
8FFF60007FFF8001EFF80000000000000000000000
8FFF60006FFF8008FFE10000000000000000000000
7FFF9000AFFF702FFF700000000000000000000000
4FFFF96AFFFF509FFD100000000000000000000000
0EFFFFFFFFFE12FFF6000000000000000000000000
05FFFFFFFFF70AFFD0000000000000000000000000
007FFFFFFF903FFF50000000000000000000000000
00039DEDA400BFFC00014553000000000146520000
000000000004FFF4008EFFFFD4000001AFFFFFB200
00000000000CFFB00BFFFFFFFF40001DFFFFFFFE20
00000000005FFF306FFFFFFFFFE1009FFFFFFFFFB0
0000000000CFFB00DFFFFEFFFFF501FFFFFEFFFFF2
0000000005FFF302FFFF401AFFF905FFFD202DFFF6
000000000DFFA004FFFA0003FFFB07FFF70007FFF8
000000006FFF2005FFF90002FFFC08FFF60006FFF9
00000001EFF90004FFFC0005FFFB07FFF80009FFF8
00000007FFE10001FFFF946EFFF904FFFE747FFFF5
0000001EFF800000BFFFFFFFFFF401EFFFFFFFFFF1
0000008FFE1000003FFFFFFFFFC0006FFFFFFFFF90
000001EFF700000006FFFFFFFD200009FFFFFFFB10
000006FFE1000000003AEFFD810000005BFFFC7000
000001AF5000000000000100000000000001000000
ENDCHAR
STARTCHAR guilsinglleft
ENCODING 8249
SWIDTH 383 0
DWIDTH 14 0
BBX 14 19 0 0
BITMAP
000000005ED300
00000007FFFE40
0000007FFFFFE1
000007FFFFFFF3
00007FFFFFFFC0
0007FFFFFFFD10
007FFFFFFFD200
06FFFFFFFD2000
3FFFFFFFD20000
6FFFFFFF300000
3FFFFFFFD10000
07FFFFFFFD1000
008FFFFFFFD200
0007FFFFFFFD20
00007FFFFFFFC0
000007FFFFFFF3
0000007FFFFFE1
00000007FFFF40
000000006ED400
ENDCHAR
STARTCHAR guilsinglright
ENCODING 8250
SWIDTH 383 0
DWIDTH 14 0
BBX 14 19 0 0
BITMAP
005ED300000000
06FFFE40000000
3FFFFFE4000000
6FFFFFFE400000
1EFFFFFFE40000
03EFFFFFFE4000
003EFFFFFFE400
0004EFFFFFFE40
00004EFFFFFFE1
000006FFFFFFF3
00003EFFFFFFE1
0003EFFFFFFF50
003EFFFFFFF500
03EFFFFFFF5000
1EFFFFFFF40000
6FFFFFFF400000
3FFFFFF4000000
07FFFF40000000
006ED400000000
ENDCHAR
STARTCHAR fraction
ENCODING 8260
SWIDTH 433 0
DWIDTH 16 0
BBX 18 31 1 -2
BITMAP
000000000000000200
000000000000005FD3
00000000000000DFF9
00000000000006FFF2
0000000000001DFF90
0000000000007FFE10
000000000001EFF800
000000000008FFE100
00000000001EFF7000
00000000009FFE1000
0000000002FFF60000
000000000AFFD00000
000000003FFF500000
00000000BFFC000000
00000003FFF5000000
0000000BFFC0000000
0000004FFF40000000
000000CFFB00000000
000005FFF300000000
00000DFFA000000000
00006FFF2000000000
0001DFF90000000000
0007FFE20000000000
001EFF800000000000
008FFE100000000000
01EFF7000000000000
09FFE1000000000000
2FFF60000000000000
7FFD00000000000000
2BF500000000000000
001000000000000000
ENDCHAR
STARTCHAR Euro
ENCODING 8364
SWIDTH 612 0
DWIDTH 22 0
BBX 22 28 0 0
BITMAP
0000000000279BBBBBB920
000000004CFFFFFFFFFFD0
00000008FFFFFFFFFFFFF1
0000009FFFFFFFFFFFFFF2
000005FFFFFFFFFFFFFFF1
00000DFFFFFFFFFFFFFFB0
00005FFFFFFFC999999610
0000AFFFFFF70000000000
0000EFFFFFB00000000000
19BCFFFFFFDBBBBBBB6000
5FFFFFFFFFFFFFFFFFF000
6FFFFFFFFFFFFFFFFFF100
2EFFFFFFFFFFFFFFFFB000
0019FFFFFB111111110000
0008FFFFFB000000000000
1BDEFFFFFECCCCCCCC7000
6FFFFFFFFFFFFFFFFFF100
6FFFFFFFFFFFFFFFFFF100
2DEFFFFFFFFFFFFFFEA000
0000EFFFFF800000000000
0000AFFFFFE20000000000
00005FFFFFFE8655555200
00000DFFFFFFFFFFFFFF80
000005FFFFFFFFFFFFFFF0
000000AFFFFFFFFFFFFFF2
0000001BFFFFFFFFFFFFF1
000000007EFFFFFFFFFFD0
00000000016ACEEEEEDB40
ENDCHAR
STARTCHAR trademark
ENCODING 8482
SWIDTH 840 0
DWIDTH 30 0
BBX 29 15 0 8
BITMAP
1BCCCCCCCCCCB206CB40000019CA20
6FFFFFFFFFFFF73FFFF30000BFFFA0
7FFFFFFFFFFFF74FFFFD1006FFFFC0
4FFFFFFFFFFFF55FFFFF902EFFFFC0
04778FFFF977405FFFFFF5CFFFFFC0
00003FFFF400005FFFFFFFFFFFFFC0
00003FFFF400005FFFFFFFFFFFFFC0
00003FFFF400005FFFFFFFFFFFFFC0
00003FFFF400005FFFFFFFFFFFFFC0
00003FFFF400005FFFFAFFFEBFFFC0
00003FFFF400005FFFF29FD39FFFC0
00003FFFF400005FFFF202009FFFC0
00002FFFF400005FFFF100009FFFC0
00001EFFF200003FFFE000007FFFA0
000002663000000466200000046510
ENDCHAR
STARTCHAR minus
ENCODING 8722
SWIDTH 581 0
DWIDTH 21 0
BBX 20 7 0 6
BITMAP
03ACCCCCCCCCCCCCCB92
0DFFFFFFFFFFFFFFFFFB
1FFFFFFFFFFFFFFFFFFF
1FFFFFFFFFFFFFFFFFFF
0EFFFFFFFFFFFFFFFFFD
06EFFFFFFFFFFFFFFFE6
00001111111111111000
ENDCHAR
STARTCHAR f_f
ENCODING 64256
SWIDTH 803 0
DWIDTH 29 0
BBX 29 28 0 0
BITMAP
000000016BDEDA10000028CDED7000
0000005EFFFFFF700008FFFFFFF300
000005FFFFFFFFA0009FFFFFFFF600
00001EFFFFFFFFA005FFFFFFFFF600
00008FFFFFFFFF900DFFFFFFFFF400
0000DFFFFFFFFE303FFFFFFFFFD000
0001FFFFFFA652005FFFFFF8541000
0002FFFFFF3000006FFFFFD0000000
0002FFFFFF3000007FFFFFD0000000
08DDFFFFFFCDDDDCDFFFFFFCEEC600
4FFFFFFFFFFFFFFFFFFFFFFFFFFF20
6FFFFFFFFFFFFFFFFFFFFFFFFFFF50
7FFFFFFFFFFFFFFFFFFFFFFFFFFF50
6FFFFFFFFFFFFFFFFFFFFFFFFFFF40
1EFFFFFFFFFFFFFFFFFFFFFFFFFC00
0256FFFFFF6455559FFFFFE4553000
0002FFFFFF3000007FFFFFD0000000
0002FFFFFF3000007FFFFFD0000000
0002FFFFFF3000007FFFFFD0000000
0002FFFFFF3000007FFFFFD0000000
0002FFFFFF3000007FFFFFD0000000
0002FFFFFF3000007FFFFFD0000000
0002FFFFFF3000007FFFFFD0000000
0002FFFFFF3000007FFFFFD0000000
0002FFFFFF3000007FFFFFD0000000
0002FFFFFF2000006FFFFFD0000000
0000EFFFFE0000003FFFFFA0000000
00005CFFD500000008DFEB20000000
ENDCHAR
STARTCHAR fi
ENCODING 64257
SWIDTH 709 0
DWIDTH 26 0
BBX 25 28 0 0
BITMAP
000000016ACDD910004ACCA200
0000004EFFFFFF7000EFFFFC00
000004FFFFFFFFA003FFFFFF10
00001EFFFFFFFFA003FFFFFF10
00008FFFFFFFFF9002FFFFFF00
0000DFFFFFFFFF3000CFFFFA00
0001FFFFFFB662000015775000
0002FFFFFF3000000000000000
0002FFFFFF3000000000000000
05ABFFFFFFCDED80005CEEB300
2FFFFFFFFFFFFFF601FFFFFD00
6FFFFFFFFFFFFFF903FFFFFF10
7FFFFFFFFFFFFFFA03FFFFFF10
5FFFFFFFFFFFFFF803FFFFFF10
1EFFFFFFFFFFFFE303FFFFFF10
0146FFFFFF65651003FFFFFF10
0002FFFFFF30000003FFFFFF10
0002FFFFFF30000003FFFFFF10
0002FFFFFF30000003FFFFFF10
0002FFFFFF30000003FFFFFF10
0002FFFFFF30000003FFFFFF10
0002FFFFFF30000003FFFFFF10
0002FFFFFF30000003FFFFFF10
0002FFFFFF30000003FFFFFF10
0002FFFFFF30000003FFFFFF10
0002FFFFFF20000003FFFFFF10
0000EFFFFE00000001FFFFFD00
00005DFFD5000000006DFFC400
ENDCHAR
STARTCHAR fl
ENCODING 64258
SWIDTH 774 0
DWIDTH 28 0
BBX 28 28 0 0
BITMAP
000000016ACDD910007CDD910000
0000004EFFFFFF7003FFFFF90000
000004FFFFFFFFA007FFFFFC0000
00001EFFFFFFFFA007FFFFFC0000
00008FFFFFFFFF9007FFFFFC0000
0000DFFFFFFFFF3007FFFFFC0000
0001FFFFFFB6620007FFFFFC0000
0002FFFFFF30000007FFFFFC0000
0002FFFFFF30000007FFFFFC0000
05ABFFFFFFCDED8007FFFFFC0000
2FFFFFFFFFFFFFF607FFFFFC0000
6FFFFFFFFFFFFFF907FFFFFC0000
7FFFFFFFFFFFFFFA07FFFFFC0000
5FFFFFFFFFFFFFF807FFFFFC0000
1EFFFFFFFFFFFFE307FFFFFC0000
0146FFFFFF65651007FFFFFC0000
0002FFFFFF30000007FFFFFC0000
0002FFFFFF30000007FFFFFC0000
0002FFFFFF30000007FFFFFC0000
0002FFFFFF30000007FFFFFC0000
0002FFFFFF30000007FFFFFD0000
0002FFFFFF30000007FFFFFF2000
0002FFFFFF30000006FFFFFFFFB0
0002FFFFFF30000004FFFFFFFFF3
0002FFFFFF30000001FFFFFFFFF5
0002FFFFFF20000000BFFFFFFFF4
0000EFFFFE000000002EFFFFFFF3
00005DFFD500000000017BDFFEA0
ENDCHAR
STARTCHAR f_f_i
ENCODING 64259
SWIDTH 1059 0
DWIDTH 38 0
BBX 37 28 0 0
BITMAP
000000016BDEDA10000028CDED700004899500
0000005EFFFFFF700008FFFFFFF3004FFFFF50
000005FFFFFFFFA0009FFFFFFFF6008FFFFFA0
00001EFFFFFFFFA005FFFFFFFFF6009FFFFFA0
00008FFFFFFFFF900DFFFFFFFFF4008FFFFFA0
0000DFFFFFFFFE303FFFFFFFFFD0003FFFFF50
0001FFFFFFA652005FFFFFF854100004898500
0002FFFFFF3000006FFFFFD000000000000000
0002FFFFFF3000007FFFFFD000000000000000
08DDFFFFFFCDDDDCDFFFFFFCEEC60007BCB800
4FFFFFFFFFFFFFFFFFFFFFFFFFFF205FFFFF60
6FFFFFFFFFFFFFFFFFFFFFFFFFFF508FFFFFA0
7FFFFFFFFFFFFFFFFFFFFFFFFFFF509FFFFFA0
6FFFFFFFFFFFFFFFFFFFFFFFFFFF409FFFFFA0
1EFFFFFFFFFFFFFFFFFFFFFFFFFC009FFFFFA0
0256FFFFFF6455559FFFFFE45530009FFFFFA0
0002FFFFFF3000007FFFFFD00000009FFFFFA0
0002FFFFFF3000007FFFFFD00000009FFFFFA0
0002FFFFFF3000007FFFFFD00000009FFFFFA0
0002FFFFFF3000007FFFFFD00000009FFFFFA0
0002FFFFFF3000007FFFFFD00000009FFFFFA0
0002FFFFFF3000007FFFFFD00000009FFFFFA0
0002FFFFFF3000007FFFFFD00000009FFFFFA0
0002FFFFFF3000007FFFFFD00000009FFFFFA0
0002FFFFFF3000007FFFFFD00000009FFFFFA0
0002FFFFFF2000006FFFFFD00000008FFFFFA0
0000EFFFFE0000003FFFFFA00000006FFFFF70
00005CFFD500000008DFEB200000000AEFEA10
ENDCHAR
STARTCHAR .notdef
ENCODING -1
SWIDTH 500 0
DWIDTH 18 0
BBX 1 1 0 0
BITMAP
00
ENDCHAR
STARTCHAR .null
ENCODING -1
SWIDTH 0 0
DWIDTH 0 0
BBX 1 1 0 0
BITMAP
00
ENDCHAR
STARTCHAR nonmarkingreturn
ENCODING -1
SWIDTH 333 0
DWIDTH 12 0
BBX 1 1 0 0
BITMAP
00
ENDCHAR
STARTCHAR f_t
ENCODING -1
SWIDTH 814 0
DWIDTH 29 0
BBX 29 28 0 0
BITMAP
000000016BDEDA1000000000000000
0000005EFFFFFF7000000000000000
000005FFFFFFFFA000466400000000
00001EFFFFFFFFA009FFFFC0000000
00008FFFFFFFFF900FFFFFF2000000
0000DFFFFFFFFE300FFFFFF4000000
0001FFFFFFA652000FFFFFF4000000
0002FFFFFF3000000FFFFFF4000000
0002FFFFFF3000000FFFFFF4000000
08DDFFFFFFCDDDDCCFFFFFFDDDD910
4FFFFFFFFFFFFFFFFFFFFFFFFFFF80
6FFFFFFFFFFFFFFFFFFFFFFFFFFFB0
7FFFFFFFFFFFFFFFFFFFFFFFFFFFB0
6FFFFFFFFFFFFFFFFFFFFFFFFFFFA0
1EFFFFFFFFFFFFFFFFFFFFFFFFFF40
0256FFFFFF6455554FFFFFF7566200
0002FFFFFF3000000FFFFFF4000000
0002FFFFFF3000000FFFFFF4000000
0002FFFFFF3000000FFFFFF4000000
0002FFFFFF3000000FFFFFF4000000
0002FFFFFF3000000FFFFFF4000000
0002FFFFFF3000000EFFFFF9000000
0002FFFFFF3000000CFFFFFFFEA200
0002FFFFFF30000008FFFFFFFFF900
0002FFFFFF30000002FFFFFFFFFC00
0002FFFFFF200000006FFFFFFFFB00
0000EFFFFE0000000006EFFFFFF900
00005CFFD5000000000017CEFFB200
ENDCHAR
STARTCHAR t_t
ENCODING -1
SWIDTH 794 0
DWIDTH 29 0
BBX 28 26 0 0
BITMAP
0000046640000000026751000000
0000BFFFFA0000005FFFFE200000
0001FFFFFF100000AFFFFF700000
0002FFFFFF100000BFFFFF800000
0002FFFFFF200000BFFFFF800000
0002FFFFFF200000BFFFFF800000
0002FFFFFF200000BFFFFF800000
08DDFFFFFFDDDEDDEFFFFFDCDDB3
4FFFFFFFFFFFFFFFFFFFFFFFFFFC
6FFFFFFFFFFFFFFFFFFFFFFFFFFF
7FFFFFFFFFFFFFFFFFFFFFFFFFFF
6FFFFFFFFFFFFFFFFFFFFFFFFFFE
1EFFFFFFFFFFFFFFFFFFFFFFFFF8
0256FFFFFF556665CFFFFFA56630
0002FFFFFF200000BFFFFF800000
0002FFFFFF200000BFFFFF800000
0002FFFFFF200000BFFFFF800000
0002FFFFFF200000BFFFFF800000
0002FFFFFF200000BFFFFF800000
0001FFFFFF600000AFFFFFC10000
0000EFFFFFFEEA108FFFFFFFEC40
0000BFFFFFFFFF705FFFFFFFFFD0
00004FFFFFFFFF900DFFFFFFFFF1
00000AFFFFFFFF9004FFFFFFFFF1
0000009FFFFFFF60004EFFFFFFD0
000000039CEFEA1000017BEFFC40
ENDCHAR
STARTCHAR l_l
ENCODING -1
SWIDTH 626 0
DWIDTH 23 0
BBX 21 28 1 0
BITMAP
08DED910002ADEC7000000
5FFFFF7000AFFFFF300000
8FFFFFB000DFFFFF600000
8FFFFFB000DFFFFF700000
8FFFFFB000DFFFFF700000
8FFFFFB000DFFFFF700000
8FFFFFB000DFFFFF700000
8FFFFFB000DFFFFF700000
8FFFFFB000DFFFFF700000
8FFFFFB000DFFFFF700000
8FFFFFB000DFFFFF700000
8FFFFFB000DFFFFF700000
8FFFFFB000DFFFFF700000
8FFFFFB000DFFFFF700000
8FFFFFB000DFFFFF700000
8FFFFFB000DFFFFF700000
8FFFFFB000DFFFFF700000
8FFFFFB000DFFFFF700000
8FFFFFB000DFFFFF700000
8FFFFFB000DFFFFF700000
8FFFFFB000DFFFFF700000
8FFFFFD510CFFFFFC65200
6FFFFFFFD1AFFFFFFFFF60
4FFFFFFFF56FFFFFFFFFD0
0EFFFFFFF61EFFFFFFFFF0
08FFFFFFF505FFFFFFFFE0
00AFFFFFF3006EFFFFFFA0
00049CDD7000017ADED910
ENDCHAR
STARTCHAR j_j
ENCODING -1
SWIDTH 521 0
DWIDTH 19 0
BBX 23 37 -5 -9
BITMAP
000000048995000006897200
0000004FFFFF40008FFFFE10
0000008FFFFF9000DFFFFF40
0000008FFFFF9000DFFFFF50
0000008FFFFF9000CFFFFF40
0000003FFFFF40008FFFFE10
000000037873000005887100
000000000000000000000000
000000000000000000000000
00000008CDC800002ACDB500
0000005FFFFF6000AFFFFF10
0000008FFFFF9000DFFFFF40
0000008FFFFF9000DFFFFF50
0000008FFFFF9000DFFFFF50
0000008FFFFF9000DFFFFF50
0000008FFFFF9000DFFFFF50
0000008FFFFF9000DFFFFF50
0000008FFFFF9000DFFFFF50
0000008FFFFF9000DFFFFF50
0000008FFFFF9000DFFFFF50
0000008FFFFF9000DFFFFF50
0000008FFFFF9000DFFFFF50
0000008FFFFF9000DFFFFF50
0000008FFFFF9000DFFFFF50
0000008FFFFF9000DFFFFF50
0000008FFFFF9000DFFFFF50
0000008FFFFF9000DFFFFF50
000000AFFFFF9000DFFFFF40
000001EFFFFF7000EFFFFF40
00001BFFFFFF4002FFFFFF20
18CEFFFFFFFE06CEFFFFFE00
8FFFFFFFFFF73FFFFFFFFB00
BFFFFFFFFFC07FFFFFFFF500
BFFFFFFFFD207FFFFFFFC000
AFFFFFFFA1006FFFFFFD2000
4EFFFFB400001EFFFFA20000
014431000000015541000000
ENDCHAR
ENDFONT
